<svg width="29" height="28" viewBox="0 0 29 28" fill="none" xmlns="http://www.w3.org/2000/svg">
<path d="M21.8545 4.5625C24.6019 4.5625 26.829 6.7897 26.8291 9.53711V17.7314C26.8289 20.1792 25.061 22.2113 22.7324 22.626V24.5596C22.7322 25.0443 22.3392 25.4375 21.8545 25.4375C21.3699 25.4374 20.9767 25.0442 20.9766 24.5596V22.7061H9.07617V24.5596C9.076 25.0443 8.68299 25.4375 8.19824 25.4375C7.71359 25.4374 7.32049 25.0442 7.32031 24.5596V22.626C5.27671 22.2618 3.6656 20.6517 3.30176 18.6084H6.83203C7.31681 18.6083 7.70996 18.2153 7.70996 17.7305C7.70973 17.2459 7.31667 16.8526 6.83203 16.8525H3.22363V10.415H6.83203C7.31681 10.415 7.70996 10.0219 7.70996 9.53711C7.70996 9.05231 7.31681 8.65926 6.83203 8.65918H3.30273C3.71759 6.33072 5.75058 4.5626 8.19824 4.5625H21.8545ZM15.0254 8.65918C12.2781 8.65932 10.0509 10.8865 10.0508 13.6338C10.0508 16.3812 12.278 18.6083 15.0254 18.6084C17.7729 18.6084 20 16.3813 20 13.6338C19.9999 10.8864 17.7728 8.65918 15.0254 8.65918ZM15.0254 10.415C16.4986 10.415 17.7397 11.4051 18.1221 12.7559H16.3916C15.9068 12.7559 15.5138 13.149 15.5137 13.6338C15.5137 14.1186 15.9067 14.5117 16.3916 14.5117H18.1221C17.7399 15.8627 16.4988 16.8525 15.0254 16.8525C13.2477 16.8524 11.8066 15.4115 11.8066 13.6338C11.8068 11.8562 13.2478 10.4152 15.0254 10.415Z" fill="currentColor"/>
</svg>
