<svg width="29" height="28" viewBox="0 0 29 28" fill="none" xmlns="http://www.w3.org/2000/svg">
<path d="M24.6367 21.642L23.1783 21.6537C23.4 19.5187 23.05 17.197 21.8133 15.3537C21.4983 14.8987 21.09 14.397 20.5533 13.942C20.915 13.9187 21.2767 13.942 21.65 14.0003C25.5117 14.782 25.6167 19.1687 24.6367 21.642ZM9.35333 13.942C8.99166 13.9187 8.63 13.942 8.25667 14.0003C4.395 14.782 4.29 19.1687 5.27 21.642L6.72833 21.6537C6.50666 19.5187 6.85667 17.197 8.09333 15.3537C8.40833 14.8987 8.81666 14.397 9.35333 13.942ZM14.9533 14.0003C8.14 14.0003 7.825 20.6153 9.27167 24.1853V24.2087H20.635V24.1853C22.0933 20.6153 21.7667 14.0003 14.965 14.0003H14.9533ZM14.9533 11.4453C17.065 11.4453 18.78 9.73033 18.78 7.61866C18.78 5.50699 17.065 3.79199 14.9533 3.79199C12.8417 3.79199 11.1267 5.50699 11.1267 7.61866C11.1267 9.73033 12.8417 11.4453 14.9533 11.4453ZM20.0983 11.3987C20.285 11.422 20.495 11.4453 20.6933 11.4453C22.455 11.4453 23.8783 10.022 23.8783 8.26033C23.8783 7.49033 23.61 6.77866 23.155 6.23033C23.0967 6.14866 23.0267 6.07866 22.9567 5.99699C22.8167 5.85699 22.6533 5.72866 22.49 5.61199C22.3967 5.55366 22.3267 5.49533 22.2217 5.44866C22.07 5.36699 21.9183 5.29699 21.7317 5.22699C21.7083 5.22699 21.685 5.21533 21.6383 5.20366C21.545 5.18033 21.4517 5.15699 21.335 5.12199C21.1717 5.08699 20.985 5.07533 20.81 5.06366H20.6933C20.5067 5.06366 20.2967 5.07533 20.1217 5.11033C20.495 5.86866 20.6933 6.72033 20.6933 7.60699C20.6933 8.96033 20.2383 10.197 19.445 11.177C19.6433 11.2703 19.865 11.3287 20.0983 11.3753V11.3987ZM9.21333 11.4453C9.42333 11.4453 9.62167 11.422 9.80833 11.3987C10.0417 11.352 10.2517 11.282 10.4617 11.2003C9.66833 10.2203 9.21333 8.98366 9.21333 7.63033C9.21333 6.73199 9.42333 5.88033 9.785 5.13366C9.61 5.09866 9.4 5.08699 9.21333 5.08699H9.09666C8.92167 5.09866 8.735 5.11033 8.57167 5.14533C8.455 5.16866 8.35 5.19199 8.26833 5.22699C7.965 5.33199 7.685 5.46033 7.42833 5.63533C7.335 5.68199 7.265 5.75199 7.18333 5.81033C6.47167 6.39366 6.01667 7.28033 6.01667 8.27199C6.01667 10.0337 7.44 11.457 9.20167 11.457L9.21333 11.4453Z" fill="currentColor"/>
</svg>
