<svg width="25" height="26" viewBox="0 0 25 26" fill="none" xmlns="http://www.w3.org/2000/svg">
<path d="M11.5381 7.95719V9.97152C11.5381 11.5024 10.2993 12.7412 8.76839 12.7412H6.75407C5.22318 12.7412 3.98438 11.5024 3.98438 9.97152V7.95719C3.98438 6.42631 5.22318 5.1875 6.75407 5.1875H8.76839C10.2993 5.1875 11.5381 6.42631 11.5381 7.95719ZM18.84 5.1875H16.8257C15.2948 5.1875 14.056 6.42631 14.056 7.95719V9.97152C14.056 11.5024 15.2948 12.7412 16.8257 12.7412H18.84C20.3709 12.7412 21.6097 11.5024 21.6097 9.97152V7.95719C21.6097 6.42631 20.3709 5.1875 18.84 5.1875ZM8.76839 15.2591H6.75407C5.22318 15.2591 3.98438 16.4979 3.98438 18.0288V20.0431C3.98438 21.574 5.22318 22.8128 6.75407 22.8128H8.76839C10.2993 22.8128 11.5381 21.574 11.5381 20.0431V18.0288C11.5381 16.4979 10.2993 15.2591 8.76839 15.2591ZM18.84 15.2591H16.8257C15.2948 15.2591 14.056 16.4979 14.056 18.0288V20.0431C14.056 21.574 15.2948 22.8128 16.8257 22.8128H18.84C20.3709 22.8128 21.6097 21.574 21.6097 20.0431V18.0288C21.6097 16.4979 20.3709 15.2591 18.84 15.2591Z" fill="currentColor"/>
</svg>
