<svg width="24" height="24" viewBox="0 0 24 24" fill="none" xmlns="http://www.w3.org/2000/svg">
<circle cx="12" cy="8" r="1" fill="white"/>
<path d="M12 5.04697C12 4.46875 11.5293 3.99295 10.956 4.06841C9.75105 4.22701 8.59325 4.65879 7.5733 5.33634C6.26144 6.20782 5.236 7.44712 4.62549 8.89892C4.01499 10.3507 3.8466 11.9504 4.14141 13.4975C4.43623 15.0446 5.18114 16.4703 6.28277 17.5958C7.38441 18.7214 8.79376 19.4967 10.3342 19.8246C11.8746 20.1526 13.4776 20.0186 14.9421 19.4394C16.4067 18.8601 17.6677 17.8615 18.5671 16.5687C19.2664 15.5635 19.7229 14.4152 19.9074 13.214C19.9951 12.6424 19.5295 12.1616 18.9514 12.1492C18.3733 12.1368 17.904 12.5992 17.7898 13.166C17.631 13.9547 17.3119 14.7064 16.8482 15.3729C16.1842 16.3273 15.2533 17.0645 14.172 17.4922C13.0908 17.9198 11.9074 18.0187 10.7702 17.7766C9.63297 17.5345 8.59251 16.9621 7.77922 16.1312C6.96593 15.3002 6.41599 14.2477 6.19834 13.1056C5.9807 11.9634 6.10502 10.7824 6.55572 9.71061C7.00643 8.63881 7.76347 7.72388 8.73196 7.08051C9.40822 6.63127 10.1666 6.32838 10.9585 6.1865C11.5276 6.08453 12 5.6252 12 5.04697Z" fill="#FFC600"/>
<path d="M18.946 11.6869C19.5236 11.6608 19.9777 11.1691 19.8765 10.5998C19.597 9.02732 18.8512 7.56575 17.7244 6.41151C16.5976 5.25726 15.1543 4.47659 13.589 4.15937C13.0223 4.04453 12.5198 4.48671 12.4799 5.06355C12.44 5.6404 12.8795 6.13123 13.4403 6.27225C14.4926 6.53686 15.4587 7.08822 16.2261 7.87426C16.9934 8.66029 17.5214 9.63937 17.7607 10.6977C17.8882 11.2617 18.3683 11.7129 18.946 11.6869Z" fill="#FFC600"/>
<path d="M13.1265 12.7381C13.1265 12.6198 13.1022 12.5465 13.0794 12.5022C13.0564 12.4576 13.0245 12.4224 12.9839 12.3931C12.8916 12.3266 12.7639 12.2988 12.6872 12.2988H11.7121C11.4638 12.2987 11.1033 12.2289 10.7894 12.0031C10.448 11.7573 10.2002 11.3519 10.2002 10.7868C10.2002 10.2218 10.4481 9.81742 10.7894 9.57163C11.1034 9.34557 11.4637 9.27494 11.7121 9.2749H13.3698C13.6663 9.2749 13.9066 9.51525 13.9066 9.81173C13.9066 10.1082 13.6663 10.3486 13.3698 10.3486H11.7121C11.6355 10.3486 11.5087 10.3765 11.4164 10.4429C11.3758 10.4722 11.3441 10.5073 11.321 10.552C11.2982 10.5963 11.2739 10.6687 11.2739 10.7868C11.2739 10.9052 11.2982 10.9784 11.321 11.0227C11.3441 11.0673 11.3758 11.1025 11.4164 11.1318C11.5087 11.1981 11.6355 11.2251 11.7121 11.2251H12.6872C12.9357 11.2251 13.2969 11.2957 13.6109 11.5218C13.9523 11.7677 14.2002 12.1731 14.2002 12.7381C14.2 13.3028 13.9522 13.7075 13.6109 13.9533C13.2969 14.1794 12.9357 14.25 12.6872 14.25H10.932C10.6357 14.25 10.3954 14.0095 10.3952 13.7132C10.3952 13.4167 10.6356 13.1764 10.932 13.1763H12.6872C12.7639 13.1763 12.8916 13.1485 12.9839 13.082C13.0245 13.0527 13.0564 13.0175 13.0794 12.9729C13.1022 12.9287 13.1265 12.8561 13.1265 12.7381Z" fill="black"/>
<path d="M11.6631 9.81173V8.83663C11.6631 8.54015 11.9034 8.2998 12.1999 8.2998C12.4964 8.2998 12.7367 8.54015 12.7367 8.83663V9.81173C12.7367 10.1082 12.4964 10.3486 12.1999 10.3486C11.9034 10.3486 11.6631 10.1082 11.6631 9.81173Z" fill="black"/>
<path d="M11.6631 14.6877V13.7126C11.6631 13.4161 11.9034 13.1758 12.1999 13.1758C12.4964 13.1758 12.7367 13.4161 12.7367 13.7126V14.6877C12.7367 14.9842 12.4964 15.2245 12.1999 15.2245C11.9034 15.2245 11.6631 14.9842 11.6631 14.6877Z" fill="black"/>
</svg>
