<svg width="24" height="24" viewBox="0 0 24 24" fill="none" xmlns="http://www.w3.org/2000/svg">
<rect x="18" y="8" width="2" height="4" rx="1" fill="black"/>
<path d="M10 14H8C5.79 14 4 12.21 4 10C4 7.79 5.79 6 8 6H10C10 7 10 8.09 10 10C10 10.76 10 12.5 10 14Z" fill="#FFC600"/>
<path d="M10 14C10.61 13.95 11.28 13.94 12 14C14.65 14.21 16.71 15.2 18 16C18.46 14.65 19 12.58 19 10C19 8.58 18.84 6.44 18 4C16.71 4.8 14.65 5.79 12 6C11.28 6.06 10.61 6.05 10 6" fill="#FFC600"/>
<path d="M10 14L11.34 17.19C11.72 18.08 11.47 19.15 10.76 19.7C10.4 19.9 9.88 20.09 9.31 19.95C8.17 19.63 7.6 18.11 7 16.41C6.75 15.71 6.47 14.76 6.26 13.59" fill="#FFC600"/>
<path d="M8.69411 7.26698C8.85035 7.11095 9.1036 7.11081 9.25974 7.26698C9.41577 7.42322 9.41513 7.67646 9.25896 7.8326C8.97218 8.11948 8.75834 8.76528 8.79568 9.55057C8.83221 10.3179 9.10633 11.1143 9.65896 11.667C9.81517 11.8232 9.81517 12.0764 9.65896 12.2326C9.50274 12.3887 9.2495 12.3888 9.09333 12.2326C8.36615 11.5053 8.04069 10.5014 7.99724 9.58885C7.95466 8.69438 8.18082 7.78016 8.69411 7.26698Z" fill="black"/>
<path d="M15 9C15.2761 9 15.5 9.22386 15.5 9.5C15.5 9.77614 15.2761 10 15 10H13.5C13.2239 10 13 9.77614 13 9.5C13 9.22386 13.2239 9 13.5 9H15Z" fill="white"/>
</svg>
