<svg width="24" height="24" viewBox="0 0 24 24" fill="none" xmlns="http://www.w3.org/2000/svg">
<path fill-rule="evenodd" clip-rule="evenodd" d="M17.5938 13.6201C17.5936 15.1096 16.385 16.3182 14.8955 16.3184H7.69824C6.20887 16.3181 5.00016 15.1095 5 13.6201V10.5615H11.7217C11.6876 10.6811 11.652 10.799 11.6221 10.9141L11.5273 11.2949C11.3571 12.0086 11.9914 12.6429 12.7051 12.4727C13.1797 12.3594 13.8145 12.1904 14.2988 11.9951C14.8429 11.7757 15.4739 11.2818 16.082 10.7246C16.1397 10.6718 16.1959 10.6162 16.2539 10.5615H17.5938V13.6201ZM12.5703 12.8574C12.2755 12.8577 12.0314 13.0945 12.0312 13.3965C12.0312 13.6914 12.2755 13.9363 12.5703 13.9365H14.3701C14.6651 13.9364 14.9102 13.6915 14.9102 13.3965C14.91 13.1016 14.665 12.8575 14.3701 12.8574H12.5703Z" fill="#FFC600"/>
<path d="M14.1729 7C13.8578 7.30542 13.5531 7.61489 13.2754 7.91797C12.7182 8.52613 12.2243 9.15705 12.0049 9.70117C11.9818 9.7583 11.9607 9.8181 11.9385 9.87891H5V9.69824C5.00025 8.20877 6.20969 7 7.69922 7H14.1729Z" fill="black"/>
<path d="M14.6428 20.0001H11.4869C11.044 20.0001 10.6564 19.8373 10.3796 19.5661L9.32762 18.5352C9.16151 18.3725 9.05078 18.1012 9.05078 17.8842V16.2023H14.5321C14.6982 16.2023 14.8643 16.0395 14.8643 15.8768V13.3811C14.8643 12.8928 15.2519 12.4587 15.7502 12.4045C16.3038 12.3502 16.8021 12.7843 16.8021 13.3268V17.2331C16.8021 17.5587 16.7468 17.8299 16.5807 18.1012L16.0824 19.132C15.8055 19.6203 15.2519 20.0001 14.6428 20.0001Z" fill="black"/>
<path d="M18.1155 4.34042C18.1155 4.34042 18.3516 4.14688 18.4926 4.08847C18.6336 4.03006 18.7847 4 18.9373 4C19.09 4 19.2411 4.03006 19.3821 4.08847C19.5231 4.14688 19.6513 4.23249 19.7592 4.34042C19.8671 4.44835 19.9527 4.57647 20.0111 4.71749C20.0695 4.8585 20.0996 5.00964 20.0996 5.16227C20.0996 5.3149 20.0695 5.46603 20.0111 5.60705C19.9527 5.74806 19.7592 5.98411 19.7592 5.98411C19.7592 5.98411 16.0256 10.8 14.2117 11.5316C13.7641 11.7121 13.1598 11.8737 12.6887 11.9861C12.3375 12.0699 12.0297 11.7621 12.1135 11.411C12.2259 10.9398 12.3875 10.3355 12.568 9.88789C13.2996 8.07398 18.1155 4.34042 18.1155 4.34042Z" fill="#FFC600"/>
</svg>
