<svg width="24" height="24" viewBox="0 0 24 24" fill="none" xmlns="http://www.w3.org/2000/svg">
<path d="M6.92889 16.1477H6.37522C5.93229 16.1477 5.60009 15.8222 5.60009 15.3882V5.89365C5.60009 5.02558 4.65086 4 3.76499 4H15.4474C16.0564 4 16.7842 4.80856 16.7842 5.40536V15.4967C16.7842 15.8764 16.452 16.202 16.0644 16.202H9.4204" fill="#FFC600"/>
<path d="M7.45508 14.3706H9.30636" stroke="white" stroke-width="0.755683" stroke-miterlimit="10" stroke-linecap="round"/>
<path d="M10.6592 14.3706H12.5105" stroke="white" stroke-width="0.755683" stroke-miterlimit="10" stroke-linecap="round"/>
<path d="M13.8623 14.3706H15.7136" stroke="white" stroke-width="0.755683" stroke-miterlimit="10" stroke-linecap="round"/>
<path d="M13.0979 20.0001H9.942C9.49906 20.0001 9.1115 19.8373 8.83466 19.5661L7.78269 18.5352C7.61659 18.3725 7.50586 18.1012 7.50586 17.8842V16.2023H12.9872C13.1533 16.2023 13.3194 16.0395 13.3194 15.8768V13.3811C13.3194 12.8928 13.7069 12.4587 14.2052 12.4045C14.7589 12.3502 15.2572 12.7843 15.2572 13.3268V17.2331C15.2572 17.5587 15.2018 17.8299 15.0357 18.1012L14.5374 19.132C14.2606 19.6203 13.7069 20.0001 13.0979 20.0001Z" fill="black"/>
<path d="M18.2503 4.34042C18.2503 4.34042 18.4863 4.14688 18.6273 4.08847C18.7683 4.03006 18.9195 4 19.0721 4C19.2247 4 19.3759 4.03006 19.5169 4.08847C19.6579 4.14688 19.786 4.23249 19.894 4.34042C20.0019 4.44835 20.0875 4.57647 20.1459 4.71749C20.2043 4.8585 20.2344 5.00964 20.2344 5.16227C20.2344 5.3149 20.2043 5.46603 20.1459 5.60705C20.0875 5.74806 19.894 5.98411 19.894 5.98411C19.894 5.98411 16.1604 10.8 14.3465 11.5316C13.8989 11.7121 13.2946 11.8737 12.8234 11.9861C12.4723 12.0699 12.1645 11.7621 12.2483 11.411C12.3607 10.9398 12.5223 10.3355 12.7028 9.88788C13.4344 8.07398 18.2503 4.34042 18.2503 4.34042Z" fill="black"/>
</svg>
