<svg width="40" height="40" viewBox="0 0 40 40" fill="none" xmlns="http://www.w3.org/2000/svg">
<rect x="15" y="16" width="11" height="10" fill="black"/>
<path d="M28.2666 11.7202C26.2399 9.6935 23.5466 8.4935 20.6266 8.3335H19.9733C18.1733 8.3335 16.3866 8.76016 14.7866 9.5735C12.8399 10.5335 11.2133 12.0268 10.0799 13.8668C8.93325 15.7068 8.33325 17.8268 8.33325 20.0002C8.33325 21.4935 8.61325 22.9602 9.17325 24.3468C9.33325 24.7468 9.38659 25.1335 9.31992 25.5335L9.02659 28.2535C8.94659 29.0002 9.21325 29.7335 9.73325 30.2535C10.2666 30.7868 10.9999 31.0402 11.7466 30.9735L14.5333 30.6668C14.8666 30.6135 15.2533 30.6668 15.6533 30.8268C17.0266 31.3868 18.4799 31.6668 19.9733 31.6668H19.9999C22.1733 31.6668 24.2933 31.0668 26.1333 29.9202C27.9733 28.7868 29.4666 27.1602 30.4266 25.2135C31.2399 23.6135 31.6666 21.8002 31.6666 20.0002V19.3202C31.5066 16.4535 30.3066 13.7602 28.2666 11.7202ZM21.0133 23.6668H17.0133C16.4533 23.6668 16.0133 23.2135 16.0133 22.6668C16.0133 22.1202 16.4533 21.6668 17.0133 21.6668H21.0133C21.5599 21.6668 22.0133 22.1202 22.0133 22.6668C22.0133 23.2135 21.5599 23.6668 21.0133 23.6668ZM22.9999 18.3335H16.9999C16.4533 18.3335 15.9999 17.8802 15.9999 17.3335C15.9999 16.7868 16.4533 16.3335 16.9999 16.3335H22.9999C23.5599 16.3335 23.9999 16.7868 23.9999 17.3335C23.9999 17.8802 23.5599 18.3335 22.9999 18.3335Z" fill="#FFC600"/>
</svg>
