<svg width="24" height="24" viewBox="0 0 24 24" fill="none" xmlns="http://www.w3.org/2000/svg">
<rect x="6" y="11" width="4" height="2" fill="black"/>
<path d="M17.0909 8.36377H6.90909C6.13755 8.36377 5.39761 8.67026 4.85205 9.21582C4.30649 9.76138 4 10.5013 4 11.2729V14.9092C4.00209 15.5525 4.21736 16.177 4.61214 16.685C5.00691 17.1929 5.55893 17.5557 6.18182 17.7165V16.0001C6.18182 15.5179 6.37338 15.0555 6.71435 14.7145C7.05533 14.3735 7.51779 14.182 8 14.182H16C16.2388 14.182 16.4752 14.229 16.6958 14.3204C16.9164 14.4117 17.1168 14.5457 17.2856 14.7145C17.4545 14.8833 17.5884 15.0838 17.6798 15.3043C17.7712 15.5249 17.8182 15.7614 17.8182 16.0001V17.7165C18.4411 17.5557 18.9931 17.1929 19.3879 16.685C19.7826 16.177 19.9979 15.5525 20 14.9092V11.2729C20 10.5013 19.6935 9.76138 19.1479 9.21582C18.6024 8.67026 17.8624 8.36377 17.0909 8.36377ZM9.09091 12.7274H7.63636C7.44348 12.7274 7.25849 12.6508 7.1221 12.5144C6.98571 12.378 6.90909 12.193 6.90909 12.0001C6.90909 11.8072 6.98571 11.6223 7.1221 11.4859C7.25849 11.3495 7.44348 11.2729 7.63636 11.2729H9.09091C9.28379 11.2729 9.46878 11.3495 9.60517 11.4859C9.74156 11.6223 9.81818 11.8072 9.81818 12.0001C9.81818 12.193 9.74156 12.378 9.60517 12.5144C9.46878 12.6508 9.28379 12.7274 9.09091 12.7274Z" fill="#FFC600"/>
<path d="M15.6367 15.6362H8.36399C8.17111 15.6362 7.98612 15.7129 7.84973 15.8492C7.71334 15.9856 7.63672 16.1706 7.63672 16.3635V17.818C7.63672 18.3967 7.86659 18.9517 8.27576 19.3608C8.68493 19.77 9.23988 19.9999 9.81854 19.9999H14.1822C14.7608 19.9999 15.3158 19.77 15.725 19.3608C16.1341 18.9517 16.364 18.3967 16.364 17.818V16.3635C16.364 16.1706 16.2874 15.9856 16.151 15.8492C16.0146 15.7129 15.8296 15.6362 15.6367 15.6362Z" fill="black"/>
<path d="M14.1822 4H9.81854C9.23988 4 8.68493 4.22987 8.27576 4.63904C7.86659 5.04821 7.63672 5.60316 7.63672 6.18182V6.90909H16.364V6.18182C16.364 5.60316 16.1341 5.04821 15.725 4.63904C15.3158 4.22987 14.7608 4 14.1822 4Z" fill="#FFC600"/>
</svg>
