<svg width="24" height="24" viewBox="0 0 24 24" fill="none" xmlns="http://www.w3.org/2000/svg">
<path d="M18 5C19.1046 5 20 5.89543 20 7V11.6006C19.2498 11.217 18.4004 11 17.5 11C14.4624 11 12 13.4624 12 16.5C12 17.4005 12.2179 18.2497 12.6016 19H4C2.89543 19 2 18.1046 2 17V7C2 5.89543 2.89543 5 4 5H18Z" fill="#FFC600"/>
<rect x="4" y="7" width="5" height="1" rx="0.5" fill="white"/>
<path d="M4 9.5C4 9.22386 4.22386 9 4.5 9H10.5C10.7761 9 11 9.22386 11 9.5C11 9.77614 10.7761 10 10.5 10H4.5C4.22386 10 4 9.77614 4 9.5Z" fill="white"/>
<circle cx="17.5" cy="16.5" r="4.5" fill="black"/>
<path d="M18.0953 17.1105C18.0953 17.0402 18.0811 17.0025 18.0716 16.9839C18.0619 16.9652 18.0487 16.9495 18.0294 16.9356C18.0084 16.9205 17.9799 16.9073 17.9468 16.8978C17.9131 16.8882 17.8846 16.8855 17.8703 16.8855H17.1953C17.0108 16.8855 16.7442 16.8339 16.5106 16.6658C16.2541 16.4811 16.0703 16.1772 16.0703 15.7605C16.0703 15.3438 16.2541 15.0399 16.5106 14.8552C16.7442 14.6871 17.0108 14.6355 17.1953 14.6355H18.3432C18.5915 14.6357 18.7932 14.8371 18.7932 15.0855C18.7932 15.3339 18.5915 15.5353 18.3432 15.5355H17.1953C17.181 15.5355 17.1525 15.5382 17.1188 15.5478C17.0857 15.5573 17.0572 15.5705 17.0362 15.5856C17.0169 15.5995 17.0037 15.6152 16.994 15.6339C16.9845 15.6525 16.9703 15.6902 16.9703 15.7605C16.9703 15.8308 16.9845 15.8685 16.994 15.8871C17.0037 15.9058 17.0169 15.9215 17.0362 15.9354C17.0572 15.9505 17.0857 15.9637 17.1188 15.9732C17.1525 15.9828 17.181 15.9855 17.1953 15.9855H17.8703C18.0548 15.9855 18.3215 16.0371 18.555 16.2052C18.8115 16.3899 18.9953 16.6938 18.9953 17.1105C18.9953 17.5272 18.8115 17.8311 18.555 18.0158C18.3215 18.1839 18.0548 18.2355 17.8703 18.2355H16.6557C16.4071 18.2355 16.2057 18.034 16.2057 17.7855C16.2057 17.537 16.4071 17.3355 16.6557 17.3355H17.8703C17.8846 17.3355 17.9131 17.3328 17.9468 17.3232C17.9799 17.3137 18.0084 17.3005 18.0294 17.2854C18.0487 17.2715 18.0619 17.2558 18.0716 17.2371C18.0811 17.2185 18.0953 17.1808 18.0953 17.1105Z" fill="#FFC600"/>
<path d="M17.0859 15.0857V14.4107C17.0859 14.1622 17.2874 13.9607 17.5359 13.9607C17.7845 13.9607 17.9859 14.1622 17.9859 14.4107V15.0857C17.9859 15.3342 17.7845 15.5357 17.5359 15.5357C17.2874 15.5357 17.0859 15.3342 17.0859 15.0857Z" fill="#FFC600"/>
<path d="M17.0859 18.4602V17.7852C17.0859 17.5367 17.2874 17.3352 17.5359 17.3352C17.7845 17.3352 17.9859 17.5367 17.9859 17.7852V18.4602C17.9859 18.7087 17.7845 18.9102 17.5359 18.9102C17.2874 18.9102 17.0859 18.7087 17.0859 18.4602Z" fill="#FFC600"/>
</svg>
