<svg width="24" height="24" viewBox="0 0 24 24" fill="none" xmlns="http://www.w3.org/2000/svg">
<path d="M14.0305 18.8302C13.8905 18.6002 13.6405 18.4502 13.3805 18.4502H10.6105C10.3405 18.4502 10.0905 18.6002 9.96047 18.8302C9.82047 19.0602 9.82047 19.3502 9.96047 19.5802C10.1605 19.9302 10.4605 20.2302 10.8205 20.4402C11.1705 20.6402 11.5805 20.7502 11.9905 20.7502C12.4005 20.7502 12.8105 20.6402 13.1705 20.4402C13.5205 20.2302 13.8205 19.9302 14.0205 19.5802C14.1605 19.3502 14.1605 19.0602 14.0305 18.8302Z" fill="black"/>
<path d="M12.2599 17.67C14.1599 17.67 18.7299 17.5 19.8899 15.95C20.8599 14.65 19.9699 13.6 19.2499 12.76C18.4499 11.82 17.5399 10.75 17.5399 8.8C17.5399 7.32 16.9699 5.93 15.9199 4.88C14.8699 3.83 13.4699 3.25 11.9899 3.25C10.5099 3.25 9.10986 3.83 8.06986 4.88C7.01986 5.92 6.43986 7.32 6.43986 8.8C6.43986 10.7273 5.57132 11.7762 4.80497 12.7018L4.78986 12.72C4.07986 13.57 3.19986 14.63 4.18986 15.95C5.41986 17.59 11.1299 17.67 12.2599 17.67Z" fill="#FFC600"/>
</svg>
