<svg width="24" height="24" viewBox="0 0 24 24" fill="none" xmlns="http://www.w3.org/2000/svg">
<path d="M18.515 6.22286H18.155L15.1134 3.18125C14.8705 2.93828 14.4745 2.93828 14.2225 3.18125C13.9796 3.42422 13.9796 3.82017 14.2225 4.07214L16.3733 6.22286H7.62638L9.77711 4.07214C10.0201 3.82917 10.0201 3.43322 9.77711 3.18125C9.53414 2.93828 9.13819 2.93828 8.88622 3.18125L5.85361 6.22286H5.49366C4.68376 6.22286 3.00098 6.22286 3.00098 8.52657C3.00098 9.39945 3.18095 9.97538 3.55891 10.3533C3.77488 10.5783 4.03584 10.6953 4.31481 10.7583C4.57578 10.8213 4.85474 10.8303 5.1247 10.8303H18.8749C19.1539 10.8303 19.4149 10.8123 19.6668 10.7583C20.4227 10.5783 20.9987 10.0384 20.9987 8.52657C20.9987 6.22286 19.3159 6.22286 18.515 6.22286Z" fill="#FFC600"/>
<path d="M18.8846 10.8303H5.12533C4.85536 10.8303 4.5764 10.8213 4.31543 10.7583L5.44928 17.6694C5.70125 19.2172 6.37617 20.999 9.37278 20.999H14.4211C17.4537 20.999 17.9937 19.4782 18.3176 17.7774L19.6765 10.7583C19.4245 10.8123 19.1545 10.8303 18.8846 10.8303ZM10.7496 16.6435C10.7496 16.9945 10.4706 17.2735 10.1197 17.2735C9.76873 17.2735 9.48977 16.9945 9.48977 16.6435V13.6739C9.48977 13.323 9.76873 13.044 10.1197 13.044C10.4706 13.044 10.7496 13.323 10.7496 13.6739V16.6435ZM14.6011 16.6435C14.6011 16.9945 14.3221 17.2735 13.9712 17.2735C13.6202 17.2735 13.3413 16.9945 13.3413 16.6435V13.6739C13.3413 13.323 13.6202 13.044 13.9712 13.044C14.3221 13.044 14.6011 13.323 14.6011 13.6739V16.6435Z" fill="black"/>
</svg>
