<svg width="24" height="24" viewBox="0 0 24 24" fill="none" xmlns="http://www.w3.org/2000/svg">
<path d="M8.02027 4.31H6.52027V4C6.52027 3.59 6.85027 3.25 7.27027 3.25C7.69027 3.25 8.02027 3.59 8.02027 4V4.31ZM15.4803 4C15.4803 3.59 15.1503 3.25 14.7303 3.25C14.3103 3.25 13.9803 3.59 13.9803 4V4.31H15.4803V4ZM15.6703 4.31H15.4803V6.82C15.4803 7.23 15.1503 7.57 14.7303 7.57C14.3103 7.57 13.9803 7.23 13.9803 6.82V4.31H8.02027V6.82C8.02027 7.23 7.68027 7.57 7.27027 7.57C6.86027 7.57 6.52027 7.23 6.52027 6.82V4.31H6.33027C4.37027 4.31 2.78027 5.9 2.78027 7.86V9.08H19.2203V7.86C19.2203 5.9 17.6303 4.31 15.6703 4.31Z" fill="#FFC600"/>
<path d="M6.33027 20.7501C4.37027 20.7501 2.78027 19.1601 2.78027 17.2001V10.5801H19.2203V17.2001C19.2203 19.1601 17.6303 20.7501 15.6703 20.7501H6.33027Z" fill="#FFC600"/>
<path d="M17.5 22C19.9853 22 22 19.9853 22 17.5C22 15.0147 19.9853 13 17.5 13C15.0147 13 13 15.0147 13 17.5C13 19.9853 15.0147 22 17.5 22Z" fill="black"/>
<path d="M18.1553 18.2998C18.1553 18.2217 18.1395 18.1798 18.1289 18.1592C18.1181 18.1383 18.1035 18.1209 18.082 18.1055C18.0588 18.0887 18.027 18.074 17.9902 18.0635C17.9529 18.0528 17.9211 18.0498 17.9053 18.0498H17.1553C16.9503 18.0498 16.654 17.9924 16.3945 17.8057C16.1095 17.6005 15.9053 17.2628 15.9053 16.7998C15.9053 16.3368 16.1095 15.9991 16.3945 15.7939C16.654 15.6072 16.9503 15.5498 17.1553 15.5498H18.4307C18.7066 15.55 18.9307 15.7738 18.9307 16.0498C18.9307 16.3258 18.7066 16.5496 18.4307 16.5498H17.1553C17.1394 16.5498 17.1077 16.5528 17.0703 16.5635C17.0335 16.574 17.0018 16.5887 16.9785 16.6055C16.9571 16.6209 16.9424 16.6383 16.9316 16.6592C16.9211 16.6798 16.9053 16.7217 16.9053 16.7998C16.9053 16.878 16.9211 16.9198 16.9316 16.9404C16.9424 16.9613 16.9571 16.9787 16.9785 16.9941C17.0018 17.0109 17.0335 17.0256 17.0703 17.0361C17.1077 17.0468 17.1394 17.0498 17.1553 17.0498H17.9053C18.1102 17.0498 18.4065 17.1072 18.666 17.2939C18.951 17.4991 19.1553 17.8368 19.1553 18.2998C19.1553 18.7628 18.951 19.1005 18.666 19.3057C18.4065 19.4924 18.1102 19.5498 17.9053 19.5498H16.5557C16.2795 19.5498 16.0557 19.3259 16.0557 19.0498C16.0557 18.7737 16.2795 18.5498 16.5557 18.5498H17.9053C17.9211 18.5498 17.9529 18.5468 17.9902 18.5361C18.027 18.5256 18.0588 18.5109 18.082 18.4941C18.1035 18.4787 18.1181 18.4613 18.1289 18.4404C18.1395 18.4198 18.1553 18.378 18.1553 18.2998Z" fill="#FFC600"/>
<path d="M17.0332 16.0498V15.2998C17.0332 15.0237 17.2571 14.7998 17.5332 14.7998C17.8093 14.7998 18.0332 15.0237 18.0332 15.2998V16.0498C18.0332 16.3259 17.8093 16.5498 17.5332 16.5498C17.2571 16.5498 17.0332 16.3259 17.0332 16.0498Z" fill="#FFC600"/>
<path d="M17.0332 19.7998V19.0498C17.0332 18.7737 17.2571 18.5498 17.5332 18.5498C17.8093 18.5498 18.0332 18.7737 18.0332 19.0498V19.7998C18.0332 20.0759 17.8093 20.2998 17.5332 20.2998C17.2571 20.2998 17.0332 20.0759 17.0332 19.7998Z" fill="#FFC600"/>
</svg>
