<svg width="24" height="24" viewBox="0 0 24 24" fill="none" xmlns="http://www.w3.org/2000/svg">
<path d="M20 9.62942V9.37228C20 7.24314 18.272 5.51514 16.1429 5.51514H5.85714C3.728 5.51514 2 7.24314 2 9.37228V9.62942H20Z" fill="black"/>
<path d="M13.2266 10.6045C11.8627 11.796 11 13.5467 11 15.5C11 16.7191 11.337 17.859 11.9209 18.834H5.85742C3.72833 18.834 2.00008 17.1056 2 14.9766V10.6045H13.2266Z" fill="#FFC600"/>
<path d="M17.4697 11C18.091 11 18.5947 11.5037 18.5947 12.125C18.5947 12.5424 19.0467 12.8031 19.4082 12.5947C19.9463 12.2841 20.6347 12.4688 20.9453 13.0068L21.2266 13.4932C21.5372 14.0312 21.3525 14.7196 20.8145 15.0303C20.4532 15.2391 20.4532 15.7609 20.8145 15.9697C21.3525 16.2804 21.5372 16.9688 21.2266 17.5068L20.9453 17.9932C20.6347 18.5312 19.9463 18.7159 19.4082 18.4053C19.0467 18.1968 18.5947 18.4576 18.5947 18.875C18.5947 19.4963 18.091 20 17.4697 20H16.9072C16.2861 19.9998 15.7822 19.4962 15.7822 18.875C15.7822 18.4576 15.3303 18.1966 14.9688 18.4053C14.4307 18.7157 13.7432 18.5312 13.4326 17.9932L13.1514 17.5068C12.8408 16.9689 13.0247 16.2805 13.5625 15.9697C13.924 15.761 13.924 15.239 13.5625 15.0303C13.0247 14.7195 12.8408 14.0311 13.1514 13.4932L13.4326 13.0068C13.7432 12.4688 14.4307 12.2843 14.9688 12.5947C15.3303 12.8034 15.7822 12.5424 15.7822 12.125C15.7822 11.5038 16.2861 11.0002 16.9072 11H17.4697ZM17.2188 14.375C16.4422 14.3751 15.8125 15.0047 15.8125 15.7812C15.8125 16.5578 16.4422 17.1874 17.2188 17.1875C17.9954 17.1875 18.625 16.5579 18.625 15.7812C18.625 15.0046 17.9954 14.375 17.2188 14.375Z" fill="#FFC600"/>
</svg>
