<svg width="24" height="24" viewBox="0 0 24 24" fill="none" xmlns="http://www.w3.org/2000/svg">
<path d="M3 10.605H21V14.9764C21 17.1056 19.272 18.8336 17.1429 18.8336H6.85714C4.728 18.8336 3 17.1056 3 14.9764V10.605ZM13.0491 14.6576C13.0491 15.0793 13.3989 15.429 13.8206 15.429H16.392C16.8137 15.429 17.1634 15.0793 17.1634 14.6576C17.1634 14.2358 16.8137 13.8861 16.392 13.8861H13.8206C13.3989 13.8861 13.0491 14.2256 13.0491 14.6576Z" fill="#FFC600"/>
<path d="M21 9.62942V9.37228C21 7.24314 19.272 5.51514 17.1429 5.51514H6.85714C4.728 5.51514 3 7.24314 3 9.37228V9.62942H21Z" fill="black"/>
</svg>
