<svg width="24" height="24" viewBox="0 0 24 24" fill="none" xmlns="http://www.w3.org/2000/svg">
<path d="M12.2031 3.75H6.57812C4.6375 3.75 3.0625 5.325 3.0625 7.26562V16.6406C3.0625 18.5813 4.6375 20.1562 6.57812 20.1562H12.2031C14.1438 20.1562 15.7188 18.5813 15.7188 16.6406V7.26562C15.7188 5.325 14.1438 3.75 12.2031 3.75ZM9.4 16.9219C8.88438 16.9219 8.45312 16.5 8.45312 15.9844C8.45312 15.4687 8.875 15.0469 9.39062 15.0469H9.4C9.91563 15.0469 10.3375 15.4687 10.3375 15.9844C10.3375 16.5 9.91563 16.9219 9.4 16.9219Z" fill="#FFC600"/>
<rect x="11" y="8" width="9" height="6" rx="1" fill="black"/>
<path d="M16.1358 11.4639C16.1358 11.3999 16.1229 11.3657 16.1142 11.3488C16.1054 11.3317 16.0934 11.3175 16.0759 11.3049C16.0569 11.2911 16.0309 11.2791 16.0008 11.2705C15.9702 11.2618 15.9443 11.2593 15.9313 11.2593H15.3176C15.1499 11.2593 14.9075 11.2124 14.6952 11.0596C14.462 10.8917 14.2949 10.6154 14.2949 10.2366C14.2949 9.85781 14.462 9.58151 14.6952 9.41362C14.9075 9.26082 15.1499 9.21387 15.3176 9.21387H16.3611C16.5869 9.21404 16.7702 9.39713 16.7702 9.62296C16.7702 9.84878 16.5869 10.0319 16.3611 10.032H15.3176C15.3047 10.032 15.2787 10.0345 15.2481 10.0432C15.218 10.0518 15.1921 10.0639 15.173 10.0776C15.1555 10.0902 15.1435 10.1045 15.1347 10.1215C15.126 10.1384 15.1131 10.1726 15.1131 10.2366C15.1131 10.3005 15.126 10.3348 15.1347 10.3516C15.1435 10.3687 15.1555 10.383 15.173 10.3956C15.1921 10.4093 15.218 10.4213 15.2481 10.4299C15.2787 10.4387 15.3047 10.4411 15.3176 10.4411H15.9313C16.099 10.4411 16.3414 10.4881 16.5537 10.6409C16.7869 10.8088 16.954 11.0851 16.954 11.4639C16.954 11.8426 16.7869 12.1189 16.5537 12.2868C16.3414 12.4396 16.099 12.4866 15.9313 12.4866H14.8271C14.6011 12.4866 14.418 12.3034 14.418 12.0775C14.418 11.8516 14.6011 11.6684 14.8271 11.6684H15.9313C15.9443 11.6684 15.9702 11.6659 16.0008 11.6572C16.0309 11.6486 16.0569 11.6366 16.0759 11.6229C16.0934 11.6102 16.1054 11.596 16.1142 11.5789C16.1229 11.5621 16.1358 11.5278 16.1358 11.4639Z" fill="#FFC600"/>
<path d="M15.2178 9.62282V9.00919C15.2178 8.78325 15.4009 8.6001 15.6269 8.6001C15.8528 8.6001 16.036 8.78325 16.036 9.00919V9.62282C16.036 9.84875 15.8528 10.0319 15.6269 10.0319C15.4009 10.0319 15.2178 9.84875 15.2178 9.62282Z" fill="#FFC600"/>
<path d="M15.2178 12.6907V12.0771C15.2178 11.8511 15.4009 11.668 15.6269 11.668C15.8528 11.668 16.036 11.8511 16.036 12.0771V12.6907C16.036 12.9166 15.8528 13.0998 15.6269 13.0998C15.4009 13.0998 15.2178 12.9166 15.2178 12.6907Z" fill="#FFC600"/>
</svg>
