<svg width="40" height="40" viewBox="0 0 40 40" fill="none" xmlns="http://www.w3.org/2000/svg">
<path d="M18.9375 9H11.4375C8.85 9 6.75 11.1 6.75 13.6875V26.1875C6.75 28.775 8.85 30.875 11.4375 30.875H18.9375C21.525 30.875 23.625 28.775 23.625 26.1875V13.6875C23.625 11.1 21.525 9 18.9375 9ZM15.2 26.5625C14.5125 26.5625 13.9375 26 13.9375 25.3125C13.9375 24.625 14.5 24.0625 15.1875 24.0625H15.2C15.8875 24.0625 16.45 24.625 16.45 25.3125C16.45 26 15.8875 26.5625 15.2 26.5625Z" fill="#FFC600"/>
<ellipse cx="22.75" cy="18" rx="5" ry="4" fill="white"/>
<path fill-rule="evenodd" clip-rule="evenodd" d="M16.75 14.3889C16.75 13.6215 17.3722 13 18.1389 13H30.9167C31.6833 13 32.3056 13.6222 32.3056 14.3889V21.6111C32.3056 22.3785 31.6833 23 30.9167 23H18.1389C17.9565 23 17.7759 22.9641 17.6074 22.8943C17.4389 22.8245 17.2858 22.7222 17.1568 22.5932C17.0278 22.4642 16.9255 22.3111 16.8557 22.1426C16.7859 21.9741 16.75 21.7935 16.75 21.6111V14.3889ZM21.75 18C21.75 17.2633 22.0427 16.5567 22.5636 16.0358C23.0845 15.5149 23.7911 15.2222 24.5278 15.2222C25.2645 15.2222 25.971 15.5149 26.492 16.0358C27.0129 16.5567 27.3056 17.2633 27.3056 18C27.3056 18.7367 27.0129 19.4433 26.492 19.9642C25.971 20.4851 25.2645 20.7778 24.5278 20.7778C23.7911 20.7778 23.0845 20.4851 22.5636 19.9642C22.0427 19.4433 21.75 18.7367 21.75 18ZM29.5278 17.4444C29.3804 17.4444 29.2391 17.503 29.1349 17.6072C29.0308 17.7113 28.9722 17.8527 28.9722 18V18.0059C28.9722 18.3126 29.2211 18.5615 29.5278 18.5615H29.5337C29.681 18.5615 29.8224 18.5029 29.9265 18.3988C30.0307 18.2946 30.0893 18.1533 30.0893 18.0059V18C30.0893 17.8527 30.0307 17.7113 29.9265 17.6072C29.8224 17.503 29.681 17.4444 29.5337 17.4444H29.5278ZM18.9722 18C18.9722 17.8527 19.0308 17.7113 19.1349 17.6072C19.2391 17.503 19.3804 17.4444 19.5278 17.4444H19.5337C19.681 17.4444 19.8224 17.503 19.9265 17.6072C20.0307 17.7113 20.0893 17.8527 20.0893 18V18.0059C20.0893 18.1533 20.0307 18.2946 19.9265 18.3988C19.8224 18.5029 19.681 18.5615 19.5337 18.5615H19.5278C19.3804 18.5615 19.2391 18.5029 19.1349 18.3988C19.0308 18.2946 18.9722 18.1533 18.9722 18.0059V18Z" fill="black"/>
<path d="M24.5 14C23.5717 14 22.6815 14.3687 22.0251 15.0251C21.3687 15.6815 21 16.5717 21 17.5C21 18.4283 21.3687 19.3185 22.0251 19.9749C22.6815 20.6313 23.5717 21 24.5 21C25.4283 21 26.3185 20.6313 26.9749 19.9749C27.6313 19.3185 28 18.4283 28 17.5C28 16.5717 27.6313 15.6815 26.9749 15.0251C26.3185 14.3687 25.4283 14 24.5 14Z" fill="black"/>
<path d="M23.6188 18.1175L24.935 18.7763C24.975 18.7963 25 18.8375 25 18.8825C25 18.9475 24.9462 19 24.8813 19H23.5C23.2238 19 23 19.2238 23 19.5C23 19.7762 23.2238 20 23.5 20H24V20.5C24 20.7763 24.2238 21 24.5 21C24.7763 21 25 20.7763 25 20.5V19.9887C25.56 19.9287 26 19.4588 26 18.8825C26 18.4563 25.7637 18.0725 25.3812 17.8825L24.065 17.2237C24.025 17.2037 24 17.1625 24 17.1175C24 17.0525 24.0538 17 24.1187 17H25.5C25.7762 17 26 16.7762 26 16.5C26 16.2237 25.7762 16 25.5 16H25V15.5C25 15.2238 24.7762 15 24.5 15C24.2237 15 24 15.2238 24 15.5V16.0113C23.44 16.0713 23 16.5412 23 17.1175C23 17.5437 23.2363 17.9275 23.6188 18.1175Z" fill="white"/>
</svg>
