<svg width="24" height="24" viewBox="0 0 24 24" fill="none" xmlns="http://www.w3.org/2000/svg">
<rect x="3" y="3" width="18" height="18" rx="4" fill="#FFC600"/>
<path d="M8.55002 7L10.2397 7C10.473 7 10.6621 7.18912 10.6621 7.42242C10.6621 7.65571 10.473 7.84484 10.2397 7.84484L8.55002 7.84484C8.1612 7.84484 7.84599 8.16004 7.84599 8.54886L7.84599 10.2385C7.84599 10.4718 7.65687 10.661 7.42357 10.661C7.19028 10.661 7.00116 10.4718 7.00116 10.2385L7.00116 8.54886C7.00116 7.69345 7.69461 7 8.55002 7ZM8.55002 16.0116L10.2397 16.0116C10.473 16.0116 10.6621 16.2007 10.6621 16.434C10.6621 16.6673 10.473 16.8564 10.2397 16.8564L8.55002 16.8564C7.69461 16.8564 7.00116 16.163 7.00116 15.3075L7.00116 13.6179C7.00116 13.3846 7.19028 13.1955 7.42357 13.1955C7.65687 13.1955 7.84599 13.3846 7.84599 13.6179L7.84599 15.3075C7.84599 15.6964 8.1612 16.0116 8.55002 16.0116Z" fill="black"/>
<path d="M15.4521 7L13.7624 7C13.5291 7 13.34 7.18912 13.34 7.42242C13.34 7.65571 13.5291 7.84484 13.7624 7.84484L15.4521 7.84484C15.8409 7.84484 16.1561 8.16004 16.1561 8.54886L16.1561 10.2385C16.1561 10.4718 16.3453 10.661 16.5786 10.661C16.8119 10.661 17.001 10.4718 17.001 10.2385L17.001 8.54886C17.001 7.69345 16.3075 7 15.4521 7Z" fill="white"/>
<path d="M15.4521 16.0116L13.7624 16.0116C13.5291 16.0116 13.34 16.2007 13.34 16.434C13.34 16.6673 13.5291 16.8564 13.7624 16.8564L15.4521 16.8564C16.3075 16.8564 17.001 16.163 17.001 15.3075L17.001 13.6179C17.001 13.3846 16.8119 13.1955 16.5786 13.1955C16.3453 13.1955 16.1561 13.3846 16.1561 13.6179L16.1561 15.3075C16.1561 15.6964 15.8409 16.0116 15.4521 16.0116Z" fill="white"/>
<path d="M12.5 6.92308L12.5 17.0769C12.5 17.3106 12.2761 17.5 12 17.5C11.7239 17.5 11.5 17.3106 11.5 17.0769L11.5 6.92308C11.5 6.68942 11.7239 6.5 12 6.5C12.2761 6.5 12.5 6.68942 12.5 6.92308Z" fill="black"/>
</svg>
