<svg width="24" height="24" viewBox="0 0 24 24" fill="none" xmlns="http://www.w3.org/2000/svg">
<circle cx="12" cy="12" r="8" fill="#FFC600"/>
<mask id="mask0_33495_7674" style="mask-type:alpha" maskUnits="userSpaceOnUse" x="4" y="4" width="16" height="16">
<circle cx="12" cy="12" r="8" fill="#FFC600"/>
</mask>
<g mask="url(#mask0_33495_7674)">
<path d="M18.7011 20.8669C18.3034 21.5705 17.5545 22 16.7407 22H7.24417C6.43044 22 5.68144 21.5614 5.28383 20.8669C5.05265 20.4557 4.96018 20.0171 5.01567 19.6059C5.0619 19.1947 5.23759 18.8018 5.54274 18.5003C6.44893 17.5957 8.48325 16.0697 11.9046 16.0697H12.0988C15.5201 16.0697 17.5545 17.5957 18.4606 18.5003C18.7658 18.8018 18.9415 19.1947 18.9877 19.6151C19.034 20.0354 18.9507 20.474 18.7196 20.8761L18.7011 20.8669ZM11.9971 14.8766C14.1886 14.8766 15.9825 13.1131 15.9825 10.9383C15.9825 8.76356 14.1978 7 11.9971 7C9.79631 7 8.01166 8.76356 8.01166 10.9383C8.01166 13.1131 9.79631 14.8766 11.9971 14.8766Z" fill="black"/>
</g>
</svg>
