<svg width="24" height="24" viewBox="0 0 24 24" fill="none" xmlns="http://www.w3.org/2000/svg">
<circle cx="8" cy="8" r="8" transform="matrix(-1 0 0 1 19 3)" fill="#FFC600"/>
<mask id="mask0_33501_7742" style="mask-type:alpha" maskUnits="userSpaceOnUse" x="3" y="3" width="16" height="16">
<circle cx="11" cy="11" r="8" fill="#FFC600"/>
</mask>
<g mask="url(#mask0_33501_7742)">
<path d="M17.7011 19.8669C17.3034 20.5705 16.5545 21 15.7407 21H6.24417C5.43044 21 4.68144 20.5614 4.28383 19.8669C4.05265 19.4557 3.96018 19.0171 4.01567 18.6059C4.0619 18.1947 4.23759 17.8018 4.54274 17.5003C5.44893 16.5957 7.48325 15.0697 10.9046 15.0697H11.0988C14.5201 15.0697 16.5545 16.5957 17.4606 17.5003C17.7658 17.8018 17.9415 18.1947 17.9877 18.6151C18.034 19.0354 17.9507 19.474 17.7196 19.8761L17.7011 19.8669ZM10.9971 13.8766C13.1886 13.8766 14.9825 12.1131 14.9825 9.93832C14.9825 7.76356 13.1978 6 10.9971 6C8.79631 6 7.01166 7.76356 7.01166 9.93832C7.01166 12.1131 8.79631 13.8766 10.9971 13.8766Z" fill="black"/>
</g>
<path d="M17 12.5C19.4853 12.5 21.5 14.5147 21.5 17C21.5 19.4853 19.4853 21.5 17 21.5C14.5147 21.5 12.5 19.4853 12.5 17C12.5 14.5147 14.5147 12.5 17 12.5Z" fill="#FFC600" stroke="white"/>
<path d="M18.1309 15.8687L16.9995 17M16.9995 17L15.8682 18.1314M16.9995 17L18.1309 18.1314M16.9995 17L15.8682 15.8687" stroke="black" stroke-width="1.5" stroke-linecap="round"/>
</svg>
