<svg width="40" height="40" viewBox="0 0 40 40" fill="none" xmlns="http://www.w3.org/2000/svg">
<g clip-path="url(#clip0_382_9054)">
<path d="M20 10.25C14.9534 10.25 11 12.5563 11 15.5V24.5C11 27.4438 15.9875 29.5391 20.0565 29.5391C24.1255 29.5391 29 27.4438 29 24.5V15.5C29 12.5563 25.0466 10.25 20 10.25Z" fill="black"/>
<path d="M25.4741 22.5238C26.7612 21.8216 27.5 20.9019 27.5 20V18.44C25.9006 19.8425 23.1659 20.75 20 20.75C16.8341 20.75 14.0994 19.8463 12.5 18.44V20C12.5 20.9019 13.2387 21.8216 14.5259 22.5238C15.9753 23.3141 17.9197 23.75 20 23.75C22.0803 23.75 24.0247 23.3141 25.4741 22.5238Z" fill="#FFC600"/>
<path d="M20 28.25C22.0803 28.25 24.0247 27.8141 25.4741 27.0238C26.7612 26.3216 27.5 25.4019 27.5 24.5V22.94C25.9006 24.3425 23.1659 25.25 20 25.25C16.8341 25.25 14.0994 24.3463 12.5 22.94V24.5C12.5 25.4019 13.2387 26.3216 14.5259 27.0238C15.9753 27.8141 17.9197 28.25 20 28.25Z" fill="#FFC600"/>
</g>
<defs>
<clipPath id="clip0_382_9054">
<rect width="24" height="24" fill="white" transform="translate(8 8)"/>
</clipPath>
</defs>
</svg>
