<svg width="24" height="24" viewBox="0 0 24 24" fill="none" xmlns="http://www.w3.org/2000/svg">
<circle cx="12.0498" cy="12.05" r="8.25" stroke="black" stroke-width="1.5"/>
<path d="M11.2998 16.6504V7.65039C11.2998 7.29141 11.5912 7 11.9502 7C12.3092 7 12.6006 7.29141 12.6006 7.65039V16.6504C12.6006 17.0094 12.3092 17.3008 11.9502 17.3008C11.5912 17.3008 11.2998 17.0094 11.2998 16.6504Z" fill="black"/>
<path d="M7.65039 11.3L16.6504 11.3C17.0094 11.3 17.3008 11.5915 17.3008 11.9504C17.3008 12.3094 17.0094 12.6008 16.6504 12.6008L7.65039 12.6008C7.29141 12.6008 7 12.3094 7 11.9504C7 11.5915 7.29141 11.3 7.65039 11.3Z" fill="black"/>
</svg>
