<svg width="24" height="24" viewBox="0 0 24 24" fill="none" xmlns="http://www.w3.org/2000/svg">
<path d="M15.1145 4.50667L12.773 8.49096C12.3809 9.15811 11.4122 9.14623 11.0366 8.46966L8.82463 4.48538C8.4546 3.81886 8.93658 3 9.69893 3H14.2524C15.0256 3 15.5063 3.84004 15.1145 4.50667Z" stroke="black" stroke-width="1.5" stroke-linecap="round"/>
<rect x="7" y="7" width="10" height="14" rx="1.25" fill="#FFC600"/>
<rect x="8" y="17.125" width="8" height="1.25" rx="0.625" fill="white"/>
<mask id="mask0_33524_14444" style="mask-type:alpha" maskUnits="userSpaceOnUse" x="9" y="10" width="6" height="6">
<circle cx="12" cy="13" r="3" fill="#FFC600"/>
</mask>
<g mask="url(#mask0_33524_14444)">
<path d="M14.5129 16.3251C14.3638 16.5889 14.0829 16.75 13.7778 16.75H10.2166C9.91142 16.75 9.63054 16.5855 9.48143 16.3251C9.39474 16.1709 9.36007 16.0064 9.38087 15.8522C9.39821 15.698 9.4641 15.5507 9.57853 15.4376C9.91835 15.0984 10.6812 14.5261 11.9642 14.5261H12.037C13.3201 14.5261 14.0829 15.0984 14.4227 15.4376C14.5372 15.5507 14.6031 15.698 14.6204 15.8557C14.6377 16.0133 14.6065 16.1778 14.5198 16.3285L14.5129 16.3251ZM11.9989 14.0787C12.8207 14.0787 13.4934 13.4174 13.4934 12.6019C13.4934 11.7863 12.8242 11.125 11.9989 11.125C11.1736 11.125 10.5044 11.7863 10.5044 12.6019C10.5044 13.4174 11.1736 14.0787 11.9989 14.0787Z" fill="black"/>
</g>
<rect x="10" y="8" width="4" height="1" rx="0.5" fill="black"/>
</svg>
