<svg width="24" height="24" viewBox="0 0 24 24" fill="none" xmlns="http://www.w3.org/2000/svg">
<path d="M20 11.625C20.0032 12.8672 19.713 14.0926 19.1529 15.2015C18.4889 16.5302 17.468 17.6477 16.2046 18.429C14.9413 19.2103 13.4854 19.6244 12 19.625C10.9775 19.6276 9.96645 19.4315 9.0224 19.0497C8.62628 18.8895 8.19625 18.8164 7.77496 18.8878L5.72923 19.1057C5.03226 19.1799 4.44455 18.5921 4.51894 17.8951L4.73722 15.85C4.80858 15.4288 4.73551 14.9987 4.57531 14.6026C4.19352 13.6586 3.99736 12.6475 4.00003 11.625C4.0006 10.1396 4.41472 8.68369 5.19599 7.42036C5.97727 6.15702 7.09484 5.13614 8.42354 4.47208C9.53235 3.91202 10.7578 3.62179 12 3.62503H12.4706C14.4323 3.73325 16.2852 4.56127 17.6745 5.95053C19.0637 7.3398 19.8917 9.19268 20 11.1544V11.625Z" fill="#FFC600"/>
<path d="M11.0771 12.8216C11.0771 12.138 11.3068 11.7771 12.0943 11.1481C12.6576 10.6997 12.9201 10.4208 12.9201 9.92314C12.9201 9.35439 12.4334 8.94971 11.7717 8.94971C11.1865 8.94971 10.7982 9.19033 10.5248 9.7208C10.3771 9.97236 10.2568 10.0653 10.0381 10.0653C9.74277 10.0653 9.57324 9.85752 9.57324 9.58408C9.57324 9.20674 9.79746 8.79111 10.1529 8.48486C10.5412 8.15127 11.1045 7.96533 11.8264 7.96533C13.2045 7.96533 14.1561 8.71455 14.1561 9.88486C14.1561 10.6669 13.7623 11.1317 13.035 11.695C12.4443 12.1599 12.2857 12.3513 12.1928 12.8653C12.0998 13.1825 11.9576 13.3739 11.6186 13.3739C11.274 13.3739 11.0771 13.1442 11.0771 12.8216ZM10.8912 14.9817C10.8912 14.5771 11.2248 14.2817 11.6295 14.2817C12.0342 14.2817 12.3678 14.5771 12.3678 14.9817C12.3678 15.3864 12.0342 15.6872 11.6295 15.6872C11.2248 15.6872 10.8912 15.3864 10.8912 14.9817Z" fill="black"/>
</svg>
