<svg width="24" height="24" viewBox="0 0 24 24" fill="none" xmlns="http://www.w3.org/2000/svg">
<path d="M13.8799 5.19043C14.815 4.80402 15.8518 4.71689 16.833 4.92773C16.3177 5.46642 16 6.19568 16 7C16 8.65685 17.3431 10 19 10C19.648 10 20.2459 9.79167 20.7363 9.44238C20.7439 9.55433 20.75 9.66705 20.75 9.78027C20.75 10.4401 20.62 11.0698 20.3701 11.6797C20.1201 12.2797 19.76 12.83 19.29 13.29L14.3701 18.21C13.7301 18.8499 12.8902 19.2002 11.9902 19.2002C11.0902 19.2002 10.2403 18.8499 9.61035 18.21L4.69043 13.29C3.75049 12.3501 3.2403 11.1102 3.24023 9.78027C3.24023 8.45034 3.76052 7.21049 4.69043 6.27051C5.63042 5.33052 6.87021 4.82032 8.2002 4.82031C9.5302 4.82031 10.77 5.34051 11.71 6.27051L11.9902 6.5498L12.2705 6.27051C12.7304 5.81062 13.2701 5.45042 13.8799 5.19043Z" fill="#FFC600"/>
<path fill-rule="evenodd" clip-rule="evenodd" d="M18.0391 6.1334C18.5008 5.9706 18.859 5.60009 19.0062 5.13315L19.3088 4.1729C19.3412 4.06999 19.4367 4 19.5446 4C19.6525 4 19.7479 4.06999 19.7803 4.1729L20.0829 5.13315C20.2301 5.60009 20.5883 5.9706 21.05 6.1334L21.9083 6.436C22.0166 6.47421 22.0891 6.57661 22.0891 6.69151C22.0891 6.80641 22.0166 6.90881 21.9083 6.94702L21.05 7.24962C20.5883 7.41242 20.2301 7.78293 20.0829 8.24987L19.7803 9.21012C19.7479 9.31303 19.6525 9.38302 19.5446 9.38302C19.4367 9.38302 19.3412 9.31303 19.3088 9.21012L19.0062 8.24987C18.859 7.78293 18.5008 7.41242 18.0391 7.24962L17.1808 6.94702C17.0725 6.90881 17 6.80641 17 6.69151C17 6.57661 17.0725 6.47421 17.1808 6.436L18.0391 6.1334Z" fill="black"/>
</svg>
