<svg width="24" height="24" viewBox="0 0 24 24" fill="none" xmlns="http://www.w3.org/2000/svg">
<path d="M12 6V3" stroke="black" stroke-width="1.5" stroke-linecap="round"/>
<path d="M7 4L8 6" stroke="black" stroke-width="1.5" stroke-linecap="round"/>
<path d="M16 6L17 4" stroke="black" stroke-width="1.5" stroke-linecap="round"/>
<path d="M15.5 14.3278V20C15.5 20.5523 15.0523 21 14.5 21H10C9.44772 21 9 20.5523 9 20V14.4829C9 13.9916 8.81912 13.5174 8.49188 13.1509L7.25406 11.7645C7.09044 11.5813 7 11.3442 7 11.0985V8C7 7.44772 7.44772 7 8 7H16C16.5523 7 17 7.44772 17 8V11.1761C17 11.3742 16.9411 11.5679 16.8309 11.7325L15.8382 13.215C15.6177 13.5442 15.5 13.9315 15.5 14.3278Z" fill="#FFC600"/>
<path d="M10.25 15.5V13C10.25 12.7239 10.4739 12.5 10.75 12.5C11.0261 12.5 11.25 12.7239 11.25 13V15.5C11.25 16.0523 11.6977 16.5 12.25 16.5C12.8023 16.5 13.25 16.0523 13.25 15.5V13C13.25 12.7239 13.4739 12.5 13.75 12.5C14.0261 12.5 14.25 12.7239 14.25 13V15.5C14.25 16.6046 13.3546 17.5 12.25 17.5C11.1454 17.5 10.25 16.6046 10.25 15.5Z" fill="white"/>
<circle cx="12.25" cy="12.5" r="2" fill="black"/>
</svg>
