<svg width="24" height="24" viewBox="0 0 24 24" fill="none" xmlns="http://www.w3.org/2000/svg">
<path d="M15.5 14.3278V20C15.5 20.5523 15.0523 21 14.5 21H10C9.44772 21 9 20.5523 9 20V14.4829C9 13.9916 8.81912 13.5174 8.49188 13.1509L7.25406 11.7645C7.09044 11.5813 7 11.3442 7 11.0985V8C7 7.44772 7.44772 7 8 7H16C16.5523 7 17 7.44772 17 8V11.1761C17 11.3742 16.9411 11.5679 16.8309 11.7325L15.8382 13.215C15.6177 13.5442 15.5 13.9315 15.5 14.3278Z" fill="#FFC600"/>
<path d="M14.25 12.5V15C14.25 15.2761 14.0261 15.5 13.75 15.5C13.4739 15.5 13.25 15.2761 13.25 15V12.5C13.25 11.9477 12.8023 11.5 12.25 11.5C11.6977 11.5 11.25 11.9477 11.25 12.5V15C11.25 15.2761 11.0261 15.5 10.75 15.5C10.4739 15.5 10.25 15.2761 10.25 15V12.5C10.25 11.3954 11.1454 10.5 12.25 10.5C13.3546 10.5 14.25 11.3954 14.25 12.5Z" fill="white"/>
<circle cx="12.25" cy="15.5" r="2" transform="rotate(-180 12.25 15.5)" fill="black"/>
</svg>
