<svg width="80" height="24" viewBox="0 0 80 24" fill="none" xmlns="http://www.w3.org/2000/svg">
<path d="M9.58637 8.15346L15.3039 8.14296C15.4537 8.13614 15.587 8.22118 15.6417 8.35872L17.2115 13.0152C17.2508 13.222 17.2556 13.3417 17.0697 13.4682H7.92889C7.73452 13.3412 7.74673 13.1858 7.78709 12.9758L9.41696 8.26108L9.58637 8.15346Z" fill="#FFC600"/>
<path d="M4.89646 14.1668L10.136 14.1558C10.4345 14.1815 10.485 14.2345 10.5922 14.4907C11.1934 15.9238 11.5402 17.5749 12.1239 19.028C12.1695 19.207 12.1621 19.429 11.9661 19.5046L3.3744 19.543C3.14498 19.5493 2.94052 19.333 3.01593 19.1072L4.60862 14.393C4.66014 14.2665 4.76157 14.1909 4.89646 14.1668Z" fill="#FFC600"/>
<path d="M14.7549 14.1668L19.9944 14.1558C20.1824 14.1563 20.3428 14.2387 20.4018 14.4214L22.0003 19.2427L21.7916 19.5109L13.2333 19.5424C12.8823 19.5298 12.817 19.3408 12.8754 19.028C13.4596 17.5754 13.8053 15.9228 14.407 14.4907C14.4888 14.2954 14.518 14.2062 14.7554 14.1668H14.7549Z" fill="#FFC600"/>
<path d="M19.2975 7.86716C19.3359 7.86716 19.3826 7.88555 19.4154 7.90577C19.6576 8.05608 19.7283 8.83889 20.1433 9.07516C20.3693 9.20387 21.2146 9.40106 21.0543 9.7357C20.9771 9.89612 20.1757 10.0965 19.9709 10.3103C19.7796 10.5107 19.5517 11.3735 19.3313 11.3965C19.0766 11.4231 18.8977 10.7566 18.7914 10.5576C18.6916 10.371 18.6343 10.2896 18.4467 10.1779C18.2877 10.0832 17.6198 9.85567 17.569 9.74351C17.4151 9.4029 17.9845 9.30453 18.2206 9.1887C18.6385 8.98323 18.6532 8.9653 18.8608 8.55206C18.9481 8.37785 19.0817 7.86624 19.298 7.8667L19.2975 7.86716Z" fill="black"/>
<path d="M5.23862 7.86719C5.45492 7.86673 5.58849 8.37834 5.67584 8.55255C5.86302 8.92534 5.86672 8.96211 6.24663 9.15471C6.3839 9.22412 6.94452 9.41764 6.97872 9.5275C6.99813 9.59047 6.9949 9.68332 6.96717 9.744C6.91679 9.8557 6.19995 10.109 6.03819 10.1959C5.69109 10.3825 5.63378 10.9727 5.42349 11.2705C5.08657 11.7477 4.8259 10.7631 4.70897 10.5466C4.66321 10.4615 4.60128 10.3402 4.53103 10.2763C4.29948 10.0667 3.76798 9.98486 3.54844 9.80835C3.14034 9.48061 4.09751 9.22688 4.29994 9.12023C4.85132 8.82835 4.74733 8.36776 5.04774 7.97153C5.08934 7.91683 5.16883 7.86765 5.23909 7.86719H5.23862Z" fill="black"/>
<path d="M10.5483 5.71776C10.4817 5.64881 10.4868 5.48792 10.5547 5.41484C10.6772 5.28429 11.2369 5.12479 11.4287 5.01125C11.8313 4.77176 11.8516 4.20224 12.1007 3.89059C12.1432 3.83773 12.1848 3.80739 12.2542 3.80049C12.2939 3.79682 12.329 3.80831 12.3642 3.82485C12.544 3.91081 12.7353 4.73315 13.0292 4.95333C13.2677 5.13214 13.728 5.21672 13.942 5.38726C14.3663 5.72511 13.2982 6.00597 13.0972 6.12042C12.7265 6.33095 12.6845 6.86002 12.4705 7.18317C12.1317 7.69524 11.8516 6.65961 11.7338 6.4477C11.6395 6.27763 11.5637 6.19397 11.3922 6.09882C11.2207 6.00367 10.6384 5.81199 10.5473 5.71776H10.5483Z" fill="black"/>
<path d="M44.162 17.5V7.07H45.422L49.328 12.628H48.684L52.562 7.07H53.822V17.5H52.436V8.806L52.926 8.96L49.048 14.42H48.936L45.1 8.96L45.534 8.806V17.5H44.162ZM56.1386 17.5V7.07H57.5106V17.5H56.1386ZM64.646 17.668C63.9086 17.668 63.2273 17.5373 62.602 17.276C61.9766 17.0053 61.4353 16.6273 60.978 16.142C60.5206 15.6567 60.1613 15.0873 59.9 14.434C59.648 13.7807 59.522 13.0667 59.522 12.292C59.522 11.508 59.648 10.7893 59.9 10.136C60.152 9.48267 60.5066 8.91333 60.964 8.428C61.4213 7.94267 61.9626 7.56933 62.588 7.308C63.2133 7.03733 63.8946 6.902 64.632 6.902C65.3506 6.902 65.9946 7.028 66.564 7.28C67.1426 7.532 67.628 7.85867 68.02 8.26C68.4213 8.66133 68.706 9.09067 68.874 9.548L67.642 10.15C67.3993 9.54333 67.0213 9.06267 66.508 8.708C65.9946 8.35333 65.3693 8.176 64.632 8.176C63.904 8.176 63.2553 8.34867 62.686 8.694C62.126 9.03933 61.6873 9.52 61.37 10.136C61.0526 10.752 60.894 11.4707 60.894 12.292C60.894 13.104 61.0526 13.818 61.37 14.434C61.6966 15.05 62.14 15.5307 62.7 15.876C63.2693 16.2213 63.918 16.394 64.646 16.394C65.2806 16.394 65.8546 16.2587 66.368 15.988C66.8813 15.7173 67.2873 15.344 67.586 14.868C67.8846 14.392 68.034 13.8413 68.034 13.216V12.572L68.664 13.16H64.632V11.97H69.42V12.894C69.42 13.622 69.294 14.28 69.042 14.868C68.79 15.456 68.4446 15.96 68.006 16.38C67.5673 16.7907 67.0586 17.108 66.48 17.332C65.9013 17.556 65.29 17.668 64.646 17.668ZM70.2243 17.5L73.9623 7.07H75.5863L79.3243 17.5H77.8543L77.0003 15.05H72.5483L71.6943 17.5H70.2243ZM72.9823 13.79H76.5663L74.5783 8.064H74.9703L72.9823 13.79Z" fill="#6E7375"/>
</svg>
