<svg width="24" height="24" viewBox="0 0 24 24" fill="none" xmlns="http://www.w3.org/2000/svg">
<path d="M15.7496 17.9004L16.3096 18.6604C14.8996 19.6304 13.1996 20.2004 11.3496 20.2004C10.8896 20.2004 10.4396 20.1604 9.99964 20.1004L9.35964 18.7904L9.01964 18.1104C8.90964 17.8904 8.79964 17.5004 8.86964 17.1204C8.91964 16.7904 9.09964 16.4104 9.68964 16.1204C10.2196 15.8504 10.6496 15.5904 10.9996 15.3704C11.3696 15.1404 11.6196 14.9804 11.8396 14.8904C12.0396 14.8004 12.1696 14.7804 12.2896 14.7904C12.4196 14.8004 12.6196 14.8604 12.9296 15.0704C14.0196 15.8004 15.2596 17.2504 15.7496 17.9004Z" fill="#FFC600"/>
<path d="M3.73629 9.94344L2.86914 9.45376C3.82811 5.57709 7.33751 2.7002 11.5202 2.7002C12.7546 2.7002 13.9278 2.95524 14.999 3.40412L14.846 4.36308C14.6114 5.79133 14.1523 6.47484 13.7952 6.75029C13.4688 7.00533 13.1525 6.99513 12.8873 6.86251C12.3466 6.59726 11.4896 6.2198 10.4898 6.48505C9.47988 6.76049 8.58212 7.62764 7.77618 9.23952C7.3069 10.1781 6.60298 10.4841 5.86846 10.5045C5.08292 10.5351 4.24638 10.2393 3.73629 9.94344Z" fill="#FFC600"/>
<path d="M18.0096 15.1201L19.0096 15.6801C18.5996 16.4301 18.0696 17.1101 17.4696 17.7101L16.9496 17.0001C16.4396 16.3201 15.0796 14.7001 13.7696 13.8301C13.3296 13.5401 12.8996 13.3501 12.4496 13.3001C11.9896 13.2501 11.5896 13.3501 11.2296 13.5101C10.8896 13.6701 10.5496 13.8901 10.2096 14.0901C9.85961 14.3101 9.47961 14.5501 9.00961 14.7801C7.99961 15.2901 7.50961 16.0801 7.37961 16.8801C7.25961 17.6401 7.45961 18.3401 7.67961 18.7901L8.00961 19.4601L8.05961 19.5601C4.85961 18.2601 2.59961 15.1201 2.59961 11.4501C2.59961 11.2701 2.60961 11.0801 2.61961 10.9001L2.97961 11.1001C3.63961 11.4801 4.72961 11.8901 5.85961 11.8501C7.04961 11.8101 8.27961 11.2701 9.01961 9.79014C9.72961 8.37014 10.3496 7.97014 10.7296 7.86014C11.1296 7.75014 11.5396 7.88014 12.0096 8.12014C12.7496 8.49014 13.6896 8.48014 14.4996 7.85014C15.2696 7.25014 15.8196 6.16014 16.0896 4.57014L16.1596 4.14014C17.4596 5.00014 18.5196 6.19014 19.2096 7.60014L18.6696 7.72014C17.9496 7.90014 16.8896 8.28014 16.0296 8.85014C15.2296 9.39014 14.2996 10.3301 14.6196 11.6301C14.8696 12.6301 15.4896 13.3901 16.1396 13.9301C16.7896 14.4801 17.4996 14.8601 18.0096 15.1201Z" fill="#FFC600"/>
<path d="M20.0993 11.45C20.0993 12.45 19.9293 13.41 19.6193 14.3L18.6893 13.78C18.1993 13.54 17.6093 13.22 17.1093 12.79C16.6093 12.36 16.2293 11.87 16.0793 11.27C15.9993 10.97 16.1593 10.57 16.8693 10.1C17.5293 9.65002 18.4193 9.33002 19.0293 9.18002L19.7593 9.02002C19.9793 9.79002 20.0993 10.61 20.0993 11.45Z" fill="#FFC600"/>
<path d="M16.8496 21.4502C19.3349 21.4502 21.3496 19.4355 21.3496 16.9502C21.3496 14.4649 19.3349 12.4502 16.8496 12.4502C14.3643 12.4502 12.3496 14.4649 12.3496 16.9502C12.3496 19.4355 14.3643 21.4502 16.8496 21.4502Z" fill="black"/>
<path d="M17.5049 17.75C17.5049 17.6719 17.4891 17.63 17.4785 17.6094C17.4678 17.5885 17.4531 17.5711 17.4316 17.5557C17.4084 17.5389 17.3766 17.5242 17.3398 17.5137C17.3025 17.503 17.2707 17.5 17.2549 17.5H16.5049C16.2999 17.5 16.0036 17.4426 15.7441 17.2559C15.4591 17.0507 15.2549 16.713 15.2549 16.25C15.2549 15.787 15.4591 15.4493 15.7441 15.2441C16.0036 15.0574 16.2999 15 16.5049 15H17.7803C18.0562 15.0002 18.2803 15.224 18.2803 15.5C18.2803 15.776 18.0562 15.9998 17.7803 16H16.5049C16.489 16 16.4573 16.003 16.4199 16.0137C16.3831 16.0242 16.3514 16.0389 16.3281 16.0557C16.3067 16.0711 16.292 16.0885 16.2812 16.1094C16.2707 16.13 16.2549 16.1719 16.2549 16.25C16.2549 16.3281 16.2707 16.37 16.2812 16.3906C16.292 16.4115 16.3067 16.4289 16.3281 16.4443C16.3514 16.4611 16.3831 16.4758 16.4199 16.4863C16.4573 16.497 16.489 16.5 16.5049 16.5H17.2549C17.4599 16.5 17.7562 16.5574 18.0156 16.7441C18.3006 16.9493 18.5049 17.287 18.5049 17.75C18.5049 18.213 18.3006 18.5507 18.0156 18.7559C17.7562 18.9426 17.4599 19 17.2549 19H15.9053C15.6291 19 15.4053 18.7761 15.4053 18.5C15.4053 18.2239 15.6291 18 15.9053 18H17.2549C17.2707 18 17.3025 17.997 17.3398 17.9863C17.3766 17.9758 17.4084 17.9611 17.4316 17.9443C17.4531 17.9289 17.4678 17.9115 17.4785 17.8906C17.4891 17.87 17.5049 17.8281 17.5049 17.75Z" fill="#FFC600"/>
<path d="M16.3828 15.5V14.75C16.3828 14.4739 16.6067 14.25 16.8828 14.25C17.159 14.25 17.3828 14.4739 17.3828 14.75V15.5C17.3828 15.7761 17.159 16 16.8828 16C16.6067 16 16.3828 15.7761 16.3828 15.5Z" fill="#FFC600"/>
<path d="M16.3828 19.25V18.5C16.3828 18.2239 16.6067 18 16.8828 18C17.159 18 17.3828 18.2239 17.3828 18.5V19.25C17.3828 19.5261 17.159 19.75 16.8828 19.75C16.6067 19.75 16.3828 19.5261 16.3828 19.25Z" fill="#FFC600"/>
</svg>
