<svg width="24" height="24" viewBox="0 0 24 24" fill="none" xmlns="http://www.w3.org/2000/svg">
<rect x="3" y="6" width="18" height="13" fill="black"/>
<path d="M20.4697 14.5303C20.6162 14.6767 20.8081 14.75 21 14.75V18.75C21 19.9926 19.9926 21 18.75 21H5.25C4.00736 21 3 19.9926 3 18.75V18.125C3.19191 18.125 3.38383 18.0517 3.53027 17.9053L7.5 13.9355L9.25195 15.6875L8.09473 16.8447C7.80183 17.1376 7.80183 17.6124 8.09473 17.9053C8.38762 18.1982 8.86238 18.1982 9.15527 17.9053L16.5 10.5605L20.4697 14.5303ZM18.75 3C19.9926 3 21 4.00736 21 5.25V12.9395L17.0303 8.96973C16.7557 8.69512 16.3209 8.67766 16.0264 8.91797L15.9697 8.96973L10.3125 14.627L8.03027 12.3447C7.75567 12.0701 7.32095 12.0527 7.02637 12.293L6.96973 12.3447L3 16.3145V5.25C3 4.00736 4.00736 3 5.25 3H18.75Z" fill="#FFC600"/>
<circle cx="8.14148" cy="8.07019" r="2.02819" fill="white"/>
</svg>
