<svg width="24" height="24" viewBox="0 0 24 24" fill="none" xmlns="http://www.w3.org/2000/svg">
<path d="M19.875 7.5H4.125C3.50368 7.5 3 8.00368 3 8.625V10.875C3 11.4963 3.50368 12 4.125 12H19.875C20.4963 12 21 11.4963 21 10.875V8.625C21 8.00368 20.4963 7.5 19.875 7.5Z" fill="#FFC600"/>
<path d="M4.125 12H19.875V19.875C19.875 20.4937 19.3687 21 18.75 21H5.25C4.63125 21 4.125 20.4937 4.125 19.875V12Z" fill="#FFC600"/>
<path d="M12 5.25C12 4.00736 13.0074 3 14.25 3C15.4926 3 16.5 4.00736 16.5 5.25C16.5 6.49264 15.4926 7.5 14.25 7.5H12V5.25Z" fill="black"/>
<path d="M12 5.25C12 4.00736 10.9926 3 9.75 3C8.50736 3 7.5 4.00736 7.5 5.25C7.5 6.49264 8.50736 7.5 9.75 7.5H12V5.25Z" fill="black"/>
<path d="M6 11.5H18C18.2761 11.5 18.5 11.7239 18.5 12C18.5 12.2761 18.2761 12.5 18 12.5H6C5.72386 12.5 5.5 12.2761 5.5 12C5.5 11.7239 5.72386 11.5 6 11.5Z" fill="black"/>
<path d="M11.5 15L11.5 10C11.5 9.72386 11.7239 9.5 12 9.5C12.2761 9.5 12.5 9.72386 12.5 10L12.5 15C12.5 15.2761 12.2761 15.5 12 15.5C11.7239 15.5 11.5 15.2761 11.5 15Z" fill="black"/>
</svg>
