<svg width="24" height="24" viewBox="0 0 24 24" fill="none" xmlns="http://www.w3.org/2000/svg">
<path d="M10.2557 3.51496C15.8073 3.29543 19.3868 9.47864 16.4408 14.2122C13.8042 18.4486 7.69064 18.6399 4.79907 14.5693C1.56592 10.0183 4.72361 3.7337 10.2557 3.51496ZM13.5604 7.89813C13.4348 7.91921 13.2724 8.0266 13.1802 8.11369C12.1825 9.05865 11.2284 10.1933 10.2625 11.1876C10.2037 11.2481 9.85733 11.6076 9.82356 11.6163C9.79854 11.6231 9.77709 11.6211 9.75564 11.6056C9.19203 11.147 8.64231 10.667 8.07115 10.2184C7.92498 10.1034 7.69699 9.89146 7.53692 9.82862C6.8895 9.57409 6.35527 10.3763 6.86487 10.8897C7.74704 11.493 8.57002 12.4054 9.44742 12.9868C9.99237 13.348 10.2505 13.0238 10.6199 12.6496C11.8238 11.4306 12.9677 10.1476 14.1708 8.92701C14.5394 8.45612 14.1454 7.8007 13.5604 7.89853V7.89813Z" fill="#FFC600"/>
<path d="M16.5 21C18.9853 21 21 18.9853 21 16.5C21 14.0147 18.9853 12 16.5 12C14.0147 12 12 14.0147 12 16.5C12 18.9853 14.0147 21 16.5 21Z" fill="black"/>
<path d="M17.1553 17.2998C17.1553 17.2217 17.1395 17.1798 17.1289 17.1592C17.1181 17.1383 17.1035 17.1209 17.082 17.1055C17.0588 17.0887 17.027 17.074 16.9902 17.0635C16.9529 17.0528 16.9211 17.0498 16.9053 17.0498H16.1553C15.9503 17.0498 15.654 16.9924 15.3945 16.8057C15.1095 16.6005 14.9053 16.2628 14.9053 15.7998C14.9053 15.3368 15.1095 14.9991 15.3945 14.7939C15.654 14.6072 15.9503 14.5498 16.1553 14.5498H17.4307C17.7066 14.55 17.9307 14.7738 17.9307 15.0498C17.9307 15.3258 17.7066 15.5496 17.4307 15.5498H16.1553C16.1394 15.5498 16.1077 15.5528 16.0703 15.5635C16.0335 15.574 16.0018 15.5887 15.9785 15.6055C15.9571 15.6209 15.9424 15.6383 15.9316 15.6592C15.9211 15.6798 15.9053 15.7217 15.9053 15.7998C15.9053 15.878 15.9211 15.9198 15.9316 15.9404C15.9424 15.9613 15.9571 15.9787 15.9785 15.9941C16.0018 16.0109 16.0335 16.0256 16.0703 16.0361C16.1077 16.0468 16.1394 16.0498 16.1553 16.0498H16.9053C17.1102 16.0498 17.4065 16.1072 17.666 16.2939C17.951 16.4991 18.1553 16.8368 18.1553 17.2998C18.1553 17.7628 17.951 18.1005 17.666 18.3057C17.4065 18.4924 17.1102 18.5498 16.9053 18.5498H15.5557C15.2795 18.5498 15.0557 18.3259 15.0557 18.0498C15.0557 17.7737 15.2795 17.5498 15.5557 17.5498H16.9053C16.9211 17.5498 16.9529 17.5468 16.9902 17.5361C17.027 17.5256 17.0588 17.5109 17.082 17.4941C17.1035 17.4787 17.1181 17.4613 17.1289 17.4404C17.1395 17.4198 17.1553 17.378 17.1553 17.2998Z" fill="#FFC600"/>
<path d="M16.0332 15.0498V14.2998C16.0332 14.0237 16.2571 13.7998 16.5332 13.7998C16.8093 13.7998 17.0332 14.0237 17.0332 14.2998V15.0498C17.0332 15.3259 16.8093 15.5498 16.5332 15.5498C16.2571 15.5498 16.0332 15.3259 16.0332 15.0498Z" fill="#FFC600"/>
<path d="M16.0332 18.7998V18.0498C16.0332 17.7737 16.2571 17.5498 16.5332 17.5498C16.8093 17.5498 17.0332 17.7737 17.0332 18.0498V18.7998C17.0332 19.0759 16.8093 19.2998 16.5332 19.2998C16.2571 19.2998 16.0332 19.0759 16.0332 18.7998Z" fill="#FFC600"/>
</svg>
