<svg width="24" height="24" viewBox="0 0 24 24" fill="none" xmlns="http://www.w3.org/2000/svg">
<path d="M15.5425 8.04346H15.5464L17.5044 13.9585C17.5056 13.9654 17.5072 13.9718 17.5083 13.978H6.48193C6.48472 13.9589 6.48711 13.9369 6.4917 13.9116L8.47998 8.05518L15.5425 8.04346Z" fill="#FFD02E" stroke="#FFD02E" stroke-width="0.914286"/>
<path d="M9.10645 15.7925C9.11987 15.8179 9.13959 15.8567 9.16699 15.9233C9.53652 16.8203 9.8305 17.7909 10.1279 18.7886C10.4185 19.7633 10.7137 20.7657 11.083 21.7095C11.0855 21.7204 11.0862 21.7313 11.0879 21.7417L0.470703 21.7905H0.467773L2.45801 15.7896L8.9873 15.7759C9.04523 15.7813 9.08225 15.7877 9.10645 15.7925Z" fill="#FFD02E" stroke="#FFD02E" stroke-width="0.914286"/>
<path d="M21.4646 15.7759C21.5114 15.776 21.5344 15.7853 21.5408 15.7886C21.5416 15.7903 21.5431 15.7933 21.5447 15.7983L21.5457 15.8022L23.4822 21.7485L12.9421 21.7886C12.9292 21.7881 12.918 21.7856 12.908 21.7847C12.9093 21.7625 12.9126 21.7354 12.9177 21.7026C13.2862 20.7609 13.5811 19.7602 13.8708 18.7876C14.1681 17.7899 14.4612 16.8202 14.8308 15.9243V15.9233C14.8577 15.858 14.8727 15.8219 14.8865 15.7925C14.8895 15.7918 14.8926 15.7903 14.8962 15.7896L21.4646 15.7759Z" fill="#FFD02E" stroke="#FFD02E" stroke-width="0.914286"/>
<path d="M20.5859 7.23106C20.6343 7.23106 20.6933 7.25471 20.7347 7.28072C21.0406 7.47403 21.13 8.48081 21.6542 8.78467C21.9397 8.9502 23.0074 9.20382 22.8049 9.6342C22.7074 9.84052 21.6951 10.0983 21.4365 10.3732C21.1948 10.6309 20.907 11.7406 20.6285 11.7701C20.3068 11.8044 20.0809 10.9472 19.9466 10.6912C19.8205 10.4512 19.7481 10.3466 19.5111 10.2029C19.3103 10.0811 18.4667 9.78849 18.4025 9.64424C18.2081 9.20618 18.9273 9.07967 19.2256 8.93069C19.7534 8.66644 19.7721 8.64338 20.0342 8.11191C20.1445 7.88786 20.3132 7.22988 20.5865 7.23047L20.5859 7.23106Z" fill="black"/>
<path d="M2.82668 7.23096C3.0999 7.23037 3.26862 7.88835 3.37895 8.1124C3.61539 8.59185 3.62006 8.63914 4.09994 8.88684C4.27332 8.97611 4.98147 9.225 5.02467 9.36629C5.04919 9.44728 5.0451 9.5667 5.01007 9.64473C4.94644 9.78839 4.04097 10.1141 3.83665 10.2259C3.39822 10.4659 3.32583 11.2249 3.0602 11.608C2.63462 12.2217 2.30536 10.9554 2.15766 10.6769C2.09986 10.5676 2.02163 10.4115 1.9329 10.3293C1.64041 10.0597 0.969052 9.95451 0.691751 9.7275C0.176261 9.30599 1.3853 8.97966 1.641 8.84251C2.33746 8.46711 2.20611 7.87475 2.58558 7.36515C2.63812 7.2948 2.73853 7.23155 2.82727 7.23096H2.82668Z" fill="black"/>
<path d="M9.53386 4.46668C9.44979 4.37801 9.45621 4.1711 9.54203 4.0771C9.69674 3.9092 10.4037 3.70407 10.646 3.55804C11.1545 3.25004 11.1802 2.51757 11.4948 2.11676C11.5485 2.04877 11.6011 2.00975 11.6886 2.00088C11.7388 1.99616 11.7832 2.01093 11.8276 2.03222C12.0547 2.14277 12.2964 3.20038 12.6677 3.48356C12.9689 3.71352 13.5504 3.8223 13.8207 4.04163C14.3566 4.47614 13.0074 4.83735 12.7535 4.98456C12.2853 5.25531 12.2322 5.93576 11.9619 6.35136C11.5339 7.00993 11.1802 5.67801 11.0313 5.40547C10.9122 5.18674 10.8165 5.07914 10.5999 4.95677C10.3833 4.8344 9.6477 4.58788 9.53269 4.46668H9.53386Z" fill="black"/>
</svg>
