<svg width="24" height="24" viewBox="0 0 24 24" fill="none" xmlns="http://www.w3.org/2000/svg">
<path d="M5.17059 20.3336C4.37299 20.2374 3.70797 19.4802 3.64634 18.6928C3.58383 17.8947 3.5825 16.472 3.65166 15.6771C3.73457 14.727 4.32777 13.9977 5.11162 13.5242C5.65739 12.4592 6.01916 11.1349 6.6004 10.1059C6.92405 9.53266 7.56381 9.0729 8.2315 9.02014C9.04948 8.95541 9.94993 9.07201 10.7768 9.02014L11.229 10.4149H8.3982C8.20977 10.4149 7.94199 10.6286 7.84534 10.79L6.79237 13.2679H13.5296C14.3471 13.8509 15.4883 14.7434 16.5435 14.6627C17.1278 14.6179 17.7317 14.2114 18.2362 13.9374C18.7332 14.2553 19.1216 15.0227 19.1739 15.6079C19.2657 16.6378 19.1132 17.8061 19.1659 18.8502C19.0741 19.5724 18.3688 20.2489 17.6514 20.335H17.1881C16.6277 20.217 16.109 19.8978 15.8456 19.3742C15.8044 19.2922 15.6648 18.9264 15.6648 18.8586V18.2117H7.19006C7.24149 18.9486 6.98434 19.6979 6.32641 20.0836C6.10518 20.213 5.87951 20.2707 5.63389 20.335C5.48581 20.3225 5.31468 20.3522 5.17059 20.335V20.3336ZM6.28739 15.3978C5.58734 15.5401 5.57492 16.7101 6.41109 16.785C6.77597 16.8178 7.68129 16.8289 8.03154 16.7806C8.76618 16.68 8.78569 15.4612 7.96947 15.3889C7.65469 15.361 6.56272 15.3415 6.28695 15.3978H6.28739ZM14.7625 15.3978C14.0625 15.5401 14.0501 16.7101 14.8862 16.785C15.2511 16.8178 16.1564 16.8289 16.5067 16.7806C17.2413 16.68 17.2608 15.4612 16.4446 15.3889C16.1298 15.361 15.0379 15.3415 14.7621 15.3978H14.7625Z" fill="#FFC600"/>
<path d="M16.6366 13.3309L17.4685 12.7388C18.532 11.9812 19.3553 10.9243 19.8373 9.69763C20.3192 8.47096 20.439 7.12786 20.1819 5.83295C20.1692 5.76914 20.1422 5.70916 20.1031 5.65765C20.064 5.60614 20.0137 5.56449 19.9562 5.53591L16.0652 3.6001L12.1746 5.53591C12.1171 5.56443 12.0667 5.60606 12.0275 5.65757C11.9883 5.70908 11.9612 5.76909 11.9485 5.83295C11.6914 7.12791 11.8113 8.47105 12.2933 9.69772C12.7754 10.9244 13.5987 11.9813 14.6624 12.7388L15.4943 13.3309C15.6617 13.4501 15.8611 13.514 16.0654 13.514C16.2698 13.514 16.4691 13.4501 16.6366 13.3309Z" fill="black"/>
<path d="M16.6667 9.02825C16.6667 8.92888 16.6466 8.86811 16.6277 8.83148C16.6086 8.7945 16.5824 8.76533 16.5485 8.74095C16.4714 8.68546 16.3648 8.66237 16.3008 8.66237H15.4747C15.2634 8.66235 14.9566 8.60317 14.6895 8.4109C14.3989 8.20164 14.1885 7.85659 14.1885 7.3761C14.1885 6.89572 14.399 6.5512 14.6895 6.34194C14.9567 6.1496 15.2634 6.08986 15.4747 6.08984H16.8792C17.1334 6.08984 17.3394 6.29582 17.3394 6.55003C17.3394 6.80424 17.1334 7.01022 16.8792 7.01022H15.4747C15.4107 7.01024 15.3047 7.03343 15.2277 7.0888C15.1938 7.11321 15.1669 7.1423 15.1478 7.17933C15.1289 7.216 15.1089 7.27675 15.1089 7.3761C15.1089 7.47539 15.129 7.53619 15.1478 7.57288C15.1669 7.60991 15.1938 7.639 15.2277 7.66341C15.3047 7.71883 15.4107 7.74197 15.4747 7.74199H16.3008C16.5121 7.74199 16.8189 7.80181 17.086 7.99409C17.3766 8.20331 17.5876 8.5479 17.5877 9.02825C17.5877 9.50873 17.3767 9.85379 17.086 10.063C16.8189 10.2553 16.5121 10.3151 16.3008 10.3151H14.814C14.5599 10.3151 14.354 10.109 14.3538 9.85496C14.3538 9.60075 14.5598 9.39414 14.814 9.39414H16.3008C16.3648 9.39414 16.4714 9.37164 16.5485 9.31618C16.5823 9.29182 16.6086 9.26259 16.6277 9.22566C16.6466 9.18899 16.6667 9.12777 16.6667 9.02825Z" fill="#FFC600"/>
<path d="M15.4307 6.55042V5.72435C15.4307 5.47014 15.6366 5.26416 15.8909 5.26416C16.1451 5.26416 16.351 5.47014 16.351 5.72435V6.55042C16.351 6.80463 16.1451 7.01061 15.8909 7.01061C15.6366 7.01061 15.4307 6.80463 15.4307 6.55042Z" fill="#FFC600"/>
<path d="M15.4307 10.6818V9.8557C15.4307 9.60149 15.6366 9.39551 15.8909 9.39551C16.1451 9.39551 16.351 9.60149 16.351 9.8557V10.6818C16.351 10.936 16.1451 11.142 15.8909 11.142C15.6366 11.142 15.4307 10.936 15.4307 10.6818Z" fill="#FFC600"/>
</svg>
