<svg width="24" height="24" viewBox="0 0 24 24" fill="none" xmlns="http://www.w3.org/2000/svg">
<path d="M11.5 4C12.0016 4 12.4894 4.1689 12.8906 4.48047L18.7637 9.04004C19.1475 9.33811 19.4592 9.72462 19.6738 10.1689C19.8883 10.6131 19.9999 11.103 20 11.5996V11.627L16.5 10L11.4639 12.3428C11.3894 12.3772 11.3242 12.428 11.2734 12.4902C11.2227 12.5526 11.1874 12.6258 11.1709 12.7031C10.8383 14.2704 10.9932 15.8962 11.6172 17.3809C12.028 18.3582 12.6314 19.2455 13.3877 20H6.09082C5.27109 20 4.48491 19.6626 3.90527 19.0625C3.3257 18.4624 3 17.6484 3 16.7998V11.5996C3.00006 11.103 3.11166 10.6131 3.32617 10.1689C3.54076 9.72462 3.85247 9.33811 4.23633 9.04004L10.1094 4.48047C10.5106 4.1689 10.9984 4 11.5 4Z" fill="#FFC600"/>
<circle cx="7.32495" cy="11.4998" r="2.32495" fill="black"/>
<path d="M17.1051 20.8153L17.9862 20.2181C19.1127 19.4539 19.9846 18.3878 20.495 17.1505C21.0055 15.9132 21.1324 14.5584 20.8601 13.2522C20.8466 13.1879 20.8181 13.1274 20.7766 13.0754C20.7352 13.0235 20.6819 12.9815 20.621 12.9526L16.5 11L12.3794 12.9526C12.3184 12.9814 12.2651 13.0234 12.2236 13.0753C12.182 13.1273 12.1534 13.1878 12.1399 13.2522C11.8676 14.5585 11.9946 15.9133 12.5051 17.1506C13.0157 18.3879 13.8877 19.454 15.0142 20.2181L15.8953 20.8153C16.0727 20.9355 16.2838 21 16.5002 21C16.7166 21 16.9278 20.9355 17.1051 20.8153Z" fill="black"/>
<path d="M17.23 16.3822C17.23 16.2921 17.2114 16.2362 17.194 16.2025C17.1765 16.1685 17.1522 16.1417 17.1213 16.1194C17.051 16.0687 16.9536 16.0475 16.8952 16.0475H16.1521C15.9629 16.0474 15.6882 15.9943 15.449 15.8221C15.1889 15.6348 15 15.3259 15 14.8953C15 14.4648 15.1889 14.1566 15.449 13.9693C15.6883 13.797 15.9628 13.7432 16.1521 13.7432H17.4154C17.6413 13.7432 17.8244 13.9263 17.8244 14.1522C17.8244 14.3782 17.6413 14.5613 17.4154 14.5613H16.1521C16.0937 14.5614 15.9971 14.5826 15.9268 14.6332C15.8959 14.6556 15.8717 14.6823 15.8541 14.7163C15.8367 14.7501 15.8182 14.8053 15.8182 14.8953C15.8182 14.9856 15.8367 15.0413 15.8541 15.0751C15.8717 15.109 15.8959 15.1359 15.9268 15.1582C15.9971 15.2088 16.0938 15.2293 16.1521 15.2293H16.8952C17.0845 15.2293 17.3598 15.2831 17.5991 15.4554C17.8592 15.6427 18.0482 15.9517 18.0482 16.3822C18.048 16.8126 17.8592 17.121 17.5991 17.3083C17.3598 17.4806 17.0845 17.5344 16.8952 17.5344H15.5577C15.3319 17.5344 15.1487 17.3511 15.1486 17.1253C15.1486 16.8994 15.3318 16.7162 15.5577 16.7162H16.8952C16.9536 16.7162 17.051 16.695 17.1213 16.6443C17.1522 16.622 17.1765 16.5952 17.194 16.5612C17.2114 16.5275 17.2299 16.4721 17.23 16.3822Z" fill="#FFC600"/>
<path d="M16.1152 14.1521V13.4091C16.1152 13.1832 16.2984 13 16.5243 13C16.7503 13 16.9334 13.1832 16.9334 13.4091V14.1521C16.9334 14.3781 16.7503 14.5612 16.5243 14.5612C16.2984 14.5612 16.1152 14.3781 16.1152 14.1521Z" fill="#FFC600"/>
<path d="M16.1152 17.868V17.1249C16.1152 16.899 16.2984 16.7158 16.5243 16.7158C16.7503 16.7158 16.9334 16.899 16.9334 17.1249V17.868C16.9334 18.0939 16.7503 18.2771 16.5243 18.2771C16.2984 18.2771 16.1152 18.0939 16.1152 17.868Z" fill="#FFC600"/>
</svg>
