<svg width="24" height="24" viewBox="0 0 24 24" fill="none" xmlns="http://www.w3.org/2000/svg">
<path d="M19.7038 8.35641L13.6238 3.79641C13.2084 3.48483 12.7031 3.31641 12.1838 3.31641C11.6645 3.31641 11.1592 3.48483 10.7438 3.79641L4.66379 8.35641C4.26636 8.65448 3.94379 9.04099 3.72162 9.48532C3.49945 9.92966 3.38379 10.4196 3.38379 10.9164V16.1164C3.38379 16.9651 3.72093 17.779 4.32105 18.3791C4.92116 18.9793 5.7351 19.3164 6.58379 19.3164H17.7838C18.6325 19.3164 19.4464 18.9793 20.0465 18.3791C20.6467 17.779 20.9838 16.9651 20.9838 16.1164V10.9164C20.9838 10.4196 20.8681 9.92966 20.646 9.48532C20.4238 9.04099 20.1012 8.65448 19.7038 8.35641Z" fill="#FFC600"/>
<circle cx="7.70874" cy="11.8157" r="2.32495" fill="black"/>
</svg>
