<svg width="24" height="24" viewBox="0 0 24 24" fill="none" xmlns="http://www.w3.org/2000/svg">
<path d="M13.25 5C13.25 4.86193 13.1381 4.75 13 4.75H9C8.86193 4.75 8.75 4.86193 8.75 5V7C8.75 7.13807 8.86193 7.25 9 7.25H13C13.1381 7.25 13.25 7.13807 13.25 7V5ZM14.75 7C14.75 7.9665 13.9665 8.75 13 8.75H9C8.0335 8.75 7.25 7.9665 7.25 7V5C7.25 4.0335 8.0335 3.25 9 3.25H13C13.9665 3.25 14.75 4.0335 14.75 5V7Z" fill="#FFC600"/>
<path d="M16.5 6C17.6046 6 18.5 6.89543 18.5 8V10.6309L16.2139 9.54785C16.1122 9.49978 15.9983 9.48761 15.8906 9.51172L15.7861 9.54785L11.666 11.5C11.5693 11.5456 11.4814 11.6082 11.4053 11.6836L11.333 11.7627C11.2432 11.8751 11.1802 12.0076 11.1504 12.1494C10.8576 13.5539 10.9944 15.0113 11.543 16.3408C11.7883 16.9355 12.1121 17.4922 12.502 18H5.5C4.39543 18 3.5 17.1046 3.5 16V8C3.5 6.89543 4.39543 6 5.5 6H16.5Z" fill="#FFC600"/>
<path fill-rule="evenodd" clip-rule="evenodd" d="M7.38604 8C7.17068 8 6.99609 8.17458 6.99609 8.38994V9.49582H5.88994C5.67458 9.49582 5.49999 9.6704 5.49999 9.88576L5.49999 10.1142C5.49999 10.3296 5.67458 10.5042 5.88994 10.5042H6.99609V11.6101C6.99609 11.8254 7.17068 12 7.38604 12H7.61452C7.82989 12 8.00447 11.8254 8.00447 11.6101V10.5042H9.11005C9.32541 10.5042 9.49999 10.3296 9.49999 10.1142V9.88576C9.49999 9.6704 9.32541 9.49582 9.11005 9.49582H8.00447V8.38994C8.00447 8.17458 7.82989 8 7.61452 8H7.38604Z" fill="white"/>
<path d="M16.6051 19.8153L17.4862 19.2181C18.6127 18.4539 19.4846 17.3878 19.995 16.1505C20.5055 14.9132 20.6324 13.5584 20.3601 12.2522C20.3466 12.1879 20.3181 12.1274 20.2766 12.0754C20.2352 12.0235 20.1819 11.9815 20.121 11.9526L16 10L11.8794 11.9526C11.8184 11.9814 11.7651 12.0234 11.7236 12.0753C11.682 12.1273 11.6534 12.1878 11.6399 12.2522C11.3676 13.5585 11.4946 14.9133 12.0051 16.1506C12.5157 17.3879 13.3877 18.454 14.5142 19.2181L15.3953 19.8153C15.5727 19.9355 15.7838 20 16.0002 20C16.2166 20 16.4278 19.9355 16.6051 19.8153Z" fill="black"/>
<path d="M16.73 15.3822C16.73 15.2921 16.7114 15.2362 16.694 15.2025C16.6765 15.1685 16.6522 15.1417 16.6213 15.1194C16.551 15.0687 16.4536 15.0475 16.3952 15.0475H15.6521C15.4629 15.0474 15.1882 14.9943 14.949 14.8221C14.6889 14.6348 14.5 14.3259 14.5 13.8953C14.5 13.4648 14.6889 13.1566 14.949 12.9693C15.1883 12.797 15.4628 12.7432 15.6521 12.7432H16.9154C17.1413 12.7432 17.3244 12.9263 17.3244 13.1522C17.3244 13.3782 17.1413 13.5613 16.9154 13.5613H15.6521C15.5937 13.5614 15.4971 13.5826 15.4268 13.6332C15.3959 13.6556 15.3717 13.6823 15.3541 13.7163C15.3367 13.7501 15.3182 13.8053 15.3182 13.8953C15.3182 13.9856 15.3367 14.0413 15.3541 14.0751C15.3717 14.109 15.3959 14.1359 15.4268 14.1582C15.4971 14.2088 15.5938 14.2293 15.6521 14.2293H16.3952C16.5845 14.2293 16.8598 14.2831 17.0991 14.4554C17.3592 14.6427 17.5482 14.9517 17.5482 15.3822C17.548 15.8126 17.3592 16.121 17.0991 16.3083C16.8598 16.4806 16.5845 16.5344 16.3952 16.5344H15.0577C14.8319 16.5344 14.6487 16.3511 14.6486 16.1253C14.6486 15.8994 14.8318 15.7162 15.0577 15.7162H16.3952C16.4536 15.7162 16.551 15.695 16.6213 15.6443C16.6522 15.622 16.6765 15.5952 16.694 15.5612C16.7114 15.5275 16.7299 15.4721 16.73 15.3822Z" fill="#FFC600"/>
<path d="M15.6152 13.1521V12.4091C15.6152 12.1832 15.7984 12 16.0243 12C16.2503 12 16.4334 12.1832 16.4334 12.4091V13.1521C16.4334 13.3781 16.2503 13.5612 16.0243 13.5612C15.7984 13.5612 15.6152 13.3781 15.6152 13.1521Z" fill="#FFC600"/>
<path d="M15.6152 16.868V16.1249C15.6152 15.899 15.7984 15.7158 16.0243 15.7158C16.2503 15.7158 16.4334 15.899 16.4334 16.1249V16.868C16.4334 17.0939 16.2503 17.2771 16.0243 17.2771C15.7984 17.2771 15.6152 17.0939 15.6152 16.868Z" fill="#FFC600"/>
</svg>
