<svg width="24" height="24" viewBox="0 0 24 24" fill="none" xmlns="http://www.w3.org/2000/svg">
<path d="M18.2 5.79C16.68 4.27 14.66 3.37 12.47 3.25H11.98C10.63 3.25 9.29 3.57 8.09 4.18C6.63 4.9 5.41 6.02 4.56 7.4C3.7 8.78 3.25 10.37 3.25 12C3.25 13.12 3.46 14.22 3.88 15.26C4 15.56 4.04 15.85 3.99 16.15L3.77 18.19C3.71 18.75 3.91 19.3 4.3 19.69C4.7 20.09 5.25 20.28 5.81 20.23L7.9 20C8.15 19.96 8.44 20 8.74 20.12C9.77 20.54 10.86 20.75 11.98 20.75H12C13.63 20.75 15.22 20.3 16.6 19.44C17.98 18.59 19.1 17.37 19.82 15.91C20.43 14.71 20.75 13.35 20.75 12V11.49C20.63 9.34 19.73 7.32 18.2 5.79Z" fill="#FFC600"/>
<circle cx="8" cy="12" r="1.5" fill="white"/>
<path d="M17 10.5C17.2761 10.5 17.5 10.7239 17.5 11C17.5 11.2761 17.2761 11.5 17 11.5H11C10.7239 11.5 10.5 11.2761 10.5 11C10.5 10.7239 10.7239 10.5 11 10.5H17Z" fill="black"/>
<path d="M15 12.5C15.2761 12.5 15.5 12.7239 15.5 13C15.5 13.2761 15.2761 13.5 15 13.5H11C10.7239 13.5 10.5 13.2761 10.5 13C10.5 12.7239 10.7239 12.5 11 12.5H15Z" fill="black"/>
</svg>
