<svg width="24" height="24" viewBox="0 0 24 24" fill="none" xmlns="http://www.w3.org/2000/svg">
<path d="M17.9915 8.56859H5.63867C5.91318 7.37906 6.46219 5 11.6778 5C16.8934 5 17.8085 7.37906 17.9915 8.56859Z" fill="#FFC600"/>
<path d="M11.6769 13.5098C8.82202 13.5098 6.27826 12.5948 5.36324 12.1372C5.36324 11.8627 5.30834 11.9725 5.08873 14.6078C4.86912 17.2431 7.37629 18.6339 8.65732 18.9999L8.93183 17.3529H11.9514H14.6965L14.971 18.9999C17.8258 18.1215 18.5396 15.7058 18.5396 14.6078L18.265 12.1372C17.2585 12.5948 14.5318 13.5098 11.6769 13.5098Z" fill="#FFC600"/>
<path d="M5.00285 8.75559C5.23191 6.23753 7.34322 4.30957 9.87168 4.30957H14.1283C16.6568 4.30957 18.7681 6.23753 18.9971 8.75559L19.515 14.4481C19.7754 17.3112 17.5211 19.7799 14.6462 19.7799H9.35385C6.47889 19.7799 4.22457 17.3112 4.48502 14.4481L5.00285 8.75559Z" fill="#FFC600"/>
<path d="M17.0075 7.53076C17.3451 7.53076 17.6185 7.80416 17.6185 8.14167C17.6185 8.47918 17.3451 8.75258 17.0075 8.75258H6.50251C6.165 8.75258 5.8916 8.47918 5.8916 8.14167C5.8916 7.80416 6.165 7.53076 6.50251 7.53076H17.0075Z" fill="black"/>
<path d="M17.5428 11.6666C17.8466 11.5197 18.2122 11.6466 18.3592 11.9503C18.5061 12.2542 18.3782 12.6198 18.0744 12.7667C12.5118 15.4561 7.33801 13.9006 5.38874 12.7417C5.09869 12.5692 5.00331 12.1947 5.17569 11.9047C5.34815 11.6146 5.72261 11.5192 6.0127 11.6916C7.68377 12.6852 12.4213 14.1429 17.5428 11.6666Z" fill="black"/>
<path d="M11.1436 13.5641V8.13874C11.1436 7.80123 11.417 7.52783 11.7545 7.52783C12.092 7.52783 12.3654 7.80123 12.3654 8.13874V13.5641C12.3652 13.9015 12.0919 14.175 11.7545 14.175C11.417 14.175 11.1437 13.9015 11.1436 13.5641Z" fill="black"/>
<path d="M15.8213 18.7786L15.8213 19.7798L14.5995 19.7798L14.5995 18.7786C14.5995 18.61 14.4626 18.4733 14.294 18.4732L9.21542 18.4732C9.04678 18.4733 8.90997 18.61 8.90997 18.7786L8.90997 19.7798L7.68815 19.7798L7.68815 18.7786C7.68815 17.9349 8.37175 17.2504 9.21542 17.2503L14.294 17.2503C15.1376 17.2504 15.8213 17.935 15.8213 18.7786Z" fill="black"/>
</svg>
