<svg width="24" height="24" viewBox="0 0 24 24" fill="none" xmlns="http://www.w3.org/2000/svg">
<path d="M8.95605 3C10.3353 3.07613 11.6384 3.65799 12.6152 4.63477C13.592 5.61155 14.1739 6.91467 14.25 8.29395V8.625C14.2501 8.6566 14.2475 8.68816 14.2471 8.71973C11.4234 9.1948 9.19624 11.4225 8.7207 14.2461C8.68881 14.2466 8.65693 14.25 8.625 14.25C7.90608 14.2519 7.19503 14.1142 6.53125 13.8457C6.25276 13.7331 5.95048 13.6813 5.6543 13.7314L4.21582 13.8848C3.72593 13.9369 3.31323 13.524 3.36523 13.0342L3.51855 11.5957C3.56871 11.2995 3.51693 10.9972 3.4043 10.7188C3.13585 10.055 2.99813 9.34392 3 8.625C3.00041 7.5807 3.2916 6.55716 3.84082 5.66895C4.39015 4.78066 5.17611 4.06262 6.11035 3.5957C6.88998 3.20191 7.75157 2.99773 8.625 3H8.95605Z" fill="#FFC600"/>
<path d="M9.75002 15.375C9.74774 16.2484 9.95181 17.1101 10.3456 17.8897C10.8125 18.8239 11.5303 19.6097 12.4186 20.1591C13.3069 20.7084 14.3306 20.9996 15.375 21C16.0939 21.0019 16.8048 20.8639 17.4686 20.5955C17.7471 20.4828 18.0495 20.4315 18.3457 20.4816L19.7841 20.6349C20.2742 20.687 20.6874 20.2737 20.6351 19.7837L20.4816 18.3457C20.4315 18.0495 20.4828 17.7471 20.5955 17.4686C20.8639 16.8048 21.0019 16.0939 21 15.375C20.9996 14.3306 20.7084 13.3069 20.1591 12.4186C19.6097 11.5303 18.8239 10.8125 17.8897 10.3456C17.1101 9.95181 16.2484 9.74774 15.375 9.75002H15.0441C13.6648 9.82612 12.362 10.4083 11.3851 11.3851C10.4083 12.362 9.82612 13.6648 9.75002 15.0441V15.375Z" fill="#FFC600"/>
<path d="M6.81483 10.8197C6.63459 10.8197 6.51562 10.7151 6.51562 10.5493C6.51562 10.4772 6.53365 10.4087 6.56249 10.3222L8.0441 6.1802C8.13422 5.92786 8.26039 5.8125 8.4911 5.8125C8.72182 5.8125 8.84799 5.92786 8.93811 6.1802L10.4197 10.3222C10.4486 10.4015 10.4666 10.4772 10.4666 10.5457C10.4666 10.7151 10.3476 10.8197 10.1638 10.8197C9.99074 10.8197 9.89341 10.7368 9.82491 10.5241L9.41035 9.29482H7.56825L7.15369 10.5241C7.0852 10.7404 6.98787 10.8197 6.81483 10.8197ZM7.73768 8.78653H9.24092L8.50192 6.59476H8.47668L7.73768 8.78653Z" fill="black"/>
<path d="M14.4928 14.4119H17.9427V14.9041H14.4928V14.4119ZM15.9481 12.25H16.4004V18.25H15.9481V12.25ZM13.0317 12.8354H14.5276V16.5671H13.0317V16.1014H14.116V13.301H13.0317V12.8354ZM12.7998 12.8354H13.2057V17.0992H12.7998V12.8354Z" fill="black"/>
</svg>
