<svg width="24" height="24" viewBox="0 0 24 24" fill="none" xmlns="http://www.w3.org/2000/svg">
<circle cx="12" cy="7.5" r="3.5" fill="black"/>
<path d="M12.5411 8.06395C12.5411 8.00001 12.5282 7.96576 12.5195 7.9489C12.5107 7.93183 12.4987 7.91759 12.4812 7.90495C12.4621 7.89124 12.4362 7.8792 12.4061 7.8706C12.3755 7.86189 12.3495 7.85941 12.3366 7.85941H11.7229C11.5552 7.85941 11.3128 7.81246 11.1005 7.65966C10.8673 7.49177 10.7002 7.21547 10.7002 6.83669C10.7002 6.4579 10.8673 6.1816 11.1005 6.01372C11.3128 5.86091 11.5552 5.81396 11.7229 5.81396H12.7664C12.9922 5.81414 13.1755 5.99723 13.1755 6.22305C13.1755 6.44888 12.9922 6.63197 12.7664 6.63214H11.7229C11.7099 6.63214 11.684 6.63462 11.6534 6.64333C11.6233 6.65193 11.5973 6.66398 11.5783 6.67769C11.5608 6.69032 11.5487 6.70457 11.5399 6.72163C11.5313 6.73849 11.5184 6.77275 11.5184 6.83669C11.5184 6.90063 11.5313 6.93488 11.5399 6.95174C11.5487 6.96881 11.5608 6.98305 11.5783 6.99569C11.5973 7.0094 11.6233 7.02144 11.6534 7.03005C11.684 7.03875 11.7099 7.04123 11.7229 7.04123H12.3366C12.5043 7.04123 12.7467 7.08818 12.959 7.24098C13.1922 7.40887 13.3593 7.68517 13.3593 8.06395C13.3593 8.44274 13.1922 8.71904 12.959 8.88693C12.7467 9.03973 12.5043 9.08668 12.3366 9.08668H11.2323C11.0064 9.08668 10.8232 8.90352 10.8232 8.67759C10.8232 8.45165 11.0064 8.2685 11.2323 8.2685H12.3366C12.3495 8.2685 12.3755 8.26602 12.4061 8.25731C12.4362 8.24871 12.4621 8.23667 12.4812 8.22295C12.4987 8.21032 12.5107 8.19607 12.5195 8.17901C12.5282 8.16215 12.5411 8.12789 12.5411 8.06395Z" fill="white"/>
<path d="M11.623 6.22292V5.60928C11.623 5.38335 11.8062 5.2002 12.0321 5.2002C12.2581 5.2002 12.4412 5.38335 12.4412 5.60928V6.22292C12.4412 6.44885 12.2581 6.63201 12.0321 6.63201C11.8062 6.63201 11.623 6.44885 11.623 6.22292Z" fill="white"/>
<path d="M11.623 9.29079V8.67716C11.623 8.45122 11.8062 8.26807 12.0321 8.26807C12.2581 8.26807 12.4412 8.45122 12.4412 8.67716V9.29079C12.4412 9.51672 12.2581 9.69988 12.0321 9.69988C11.8062 9.69988 11.623 9.51672 11.623 9.29079Z" fill="white"/>
<path d="M19.6437 12.8394C19.4739 12.6024 19.2544 12.4051 19.0006 12.2614C18.7467 12.1177 18.4645 12.0311 18.1737 12.0075C17.8893 11.9827 17.603 12.0198 17.3344 12.1164C17.0659 12.213 16.8215 12.3666 16.6182 12.5668L15.319 13.7574C15.5085 15.3007 14.2187 16.6774 12.6746 16.6674H10.0055C9.1327 16.6641 9.13337 15.3374 10.0055 15.3341H12.6746C14.4289 15.3021 14.4276 12.6988 12.6746 12.6674H10.0642C8.10376 12.6674 6.26074 13.4308 4.86146 14.8274L4.18283 15.5414C4.0655 15.6654 4.00008 15.8295 4 16.0001V19.3333C4 19.5102 4.0703 19.6797 4.19544 19.8047C4.32058 19.9298 4.49031 20 4.66728 20H11.5536C13.3859 20 15.1415 19.3207 16.4968 18.088L19.3781 15.4647C20.0921 14.7494 20.2069 13.6214 19.6437 12.8394Z" fill="#FFC600"/>
</svg>
