<svg width="24" height="24" viewBox="0 0 24 24" fill="none" xmlns="http://www.w3.org/2000/svg">
<path d="M17.7578 3.07227C19.6045 3.42645 21 5.04999 21 7V11.8037C20.1174 11.293 19.093 11 18 11C14.6863 11 12 13.6863 12 17C12 18.5371 12.5788 19.9384 13.5293 21H7C5.04999 21 3.42645 19.6045 3.07227 17.7578L17.7578 3.07227ZM3 16.1689V13.8311L13.8311 3H16.1689L3 16.1689ZM7.16895 8L3 12.1689V7C3 6.10737 3.29191 5.28269 3.78613 4.61719L7.16895 8ZM8 7.16895L4.61719 3.78613C5.28269 3.29191 6.10737 3 7 3H12.1689L8 7.16895Z" fill="#FFC600"/>
<path d="M22 16.9375C22 19.75 18 22 18 22C18 22 14 19.75 14 16.9375C14 14.7629 15.7909 13 18 13C20.2091 13 22 14.7629 22 16.9375Z" fill="#D9D9D9"/>
<path d="M22 16.9375C22 19.75 18 22 18 22C18 22 14 19.75 14 16.9375C14 14.7629 15.7909 13 18 13C20.2091 13 22 14.7629 22 16.9375Z" fill="black"/>
<circle cx="18" cy="17" r="1" fill="white"/>
</svg>
