<svg width="24" height="24" viewBox="0 0 24 24" fill="none" xmlns="http://www.w3.org/2000/svg">
<path d="M13.1914 7.02436C13.4843 6.73146 13.96 6.73146 14.2529 7.02436L18.6973 11.4687C18.9899 11.7615 18.9899 12.2364 18.6973 12.5292L14.2529 16.9736C13.96 17.2665 13.4843 17.2665 13.1914 16.9736C12.8989 16.6807 12.8988 16.2058 13.1914 15.913L16.3564 12.749H11.5C11.0858 12.749 10.75 12.4132 10.75 11.999C10.7501 11.5848 11.0858 11.249 11.5 11.249H16.3564L13.1914 8.0849C12.8988 7.79207 12.8988 7.31719 13.1914 7.02436Z" fill="black"/>
<path d="M12 20H7C5.89543 20 5 19.1046 5 18V6C5 4.89543 5.89543 4 7 4H12V20ZM6.75 11.25C6.33579 11.25 6 11.5858 6 12C6 12.4142 6.33579 12.75 6.75 12.75H9.75C10.1642 12.75 10.5 12.4142 10.5 12C10.5 11.5858 10.1642 11.25 9.75 11.25H6.75Z" fill="black"/>
</svg>
