<svg width="24" height="24" viewBox="0 0 24 24" fill="none" xmlns="http://www.w3.org/2000/svg">
<path d="M21 13.7437L3 13.7437L3 9.37222C3 7.24308 4.728 5.51508 6.85714 5.51508L17.1429 5.51508C19.272 5.51508 21 7.24308 21 9.37222L21 13.7437ZM10.9509 9.69108C10.9509 9.26937 10.6011 8.91965 10.1794 8.91965L7.608 8.91965C7.18628 8.91965 6.83657 9.26937 6.83657 9.69108C6.83657 10.1128 7.18628 10.4625 7.608 10.4625L10.1794 10.4625C10.6011 10.4625 10.9509 10.1231 10.9509 9.69108Z" fill="#FFC600"/>
<path d="M3 14.7192L3 14.9764C3 17.1055 4.728 18.8335 6.85714 18.8335L17.1429 18.8335C19.272 18.8335 21 17.1055 21 14.9764L21 14.7192L3 14.7192Z" fill="black"/>
</svg>
