<svg width="24" height="24" viewBox="0 0 24 24" fill="none" xmlns="http://www.w3.org/2000/svg">
<path d="M20.5586 9.22104L22.4186 11.341C22.7486 11.721 22.7486 12.281 22.4086 12.641L20.5486 14.761L20.8086 17.571C20.8586 18.071 20.5286 18.531 20.0386 18.641L17.2786 19.271L15.8386 21.701C15.5886 22.131 15.0486 22.311 14.5886 22.111L11.9986 21.001L9.40855 22.131C8.93855 22.331 8.40855 22.151 8.14855 21.721L6.70855 19.301L3.94855 18.671C3.46855 18.561 3.12855 18.101 3.17855 17.601L3.43855 14.781L1.57855 12.661C1.24855 12.281 1.24855 11.721 1.57855 11.341L3.43855 9.21104L3.17855 6.41104C3.12855 5.90104 3.46855 5.45104 3.95855 5.34104L6.70855 4.72104L8.15855 2.30104C8.40855 1.87104 8.94855 1.69104 9.40855 1.89104L11.9986 3.00104L14.5986 1.87104C15.0586 1.67104 15.5886 1.85104 15.8486 2.28104L17.2886 4.71104L20.0486 5.34104C20.5286 5.45104 20.8686 5.91104 20.8186 6.41104L20.5586 9.22104Z" fill="#FFC600"/>
<path d="M14.1465 16.6152C14.1465 16.6205 14.1474 16.6258 14.1475 16.6309C13.4949 16.8683 12.7734 17.001 12.0146 17.001C11.2479 17.001 10.5197 16.8653 9.86133 16.623V12.7422L11.3008 14.5771C11.4741 14.7917 11.6904 14.9258 11.9932 14.9258C12.296 14.9258 12.5125 14.7918 12.6855 14.5771L14.1465 12.7148V16.6152ZM12 7.00098C14.7613 7.00103 16.9998 9.17223 17 11.8506C17 13.1731 16.4532 14.6973 15.5684 15.5723V9.91797C15.5683 9.49274 15.2225 9.15649 14.7842 9.15625H14.6104C14.2943 9.15625 14.0694 9.28464 13.9062 9.54199L12 12.5498L10.1035 9.55176C9.96094 9.3243 9.72614 9.15637 9.38965 9.15625H9.21582C8.77746 9.15633 8.43072 9.49264 8.43066 9.91797V15.5723C7.54606 14.6973 7 13.1728 7 11.8506C7.00019 9.17219 9.23887 7.00098 12 7.00098Z" fill="black"/>
</svg>
