<svg width="24" height="24" viewBox="0 0 24 24" fill="none" xmlns="http://www.w3.org/2000/svg">
<path d="M13.1113 3C14.1855 3 15.1748 3.44976 15.8945 4.26562C16.6076 5.07299 16.9999 6.17716 17 7.37402C17 8.00268 16.8843 8.60425 16.6465 9.20117L16.25 9L11.4424 11.4404C11.3713 11.4763 11.3092 11.5289 11.2607 11.5938C11.2123 11.6587 11.1788 11.7349 11.1631 11.8154C10.9443 12.9403 10.9457 14.0943 11.1631 15.209C10.9513 15.3995 10.7331 15.5962 10.5117 15.7988C10.37 15.9281 10.1882 16 10 16C9.81175 16 9.62998 15.9281 9.48828 15.7988C8.90315 15.264 8.33808 14.7611 7.88184 14.3545C6.46348 13.0925 5.23885 12.0021 4.3877 10.9287C3.44133 9.73601 3 8.6068 3 7.37402C3.00006 6.17716 3.39294 5.07245 4.10547 4.26562C4.82518 3.44978 5.81403 3.00003 6.88867 3C7.69078 3 8.42614 3.26548 9.07324 3.78809C9.40008 4.05204 9.69812 4.37723 9.95898 4.75391L10 4.81445L10.041 4.75391C10.3019 4.37723 10.6004 4.05204 10.9268 3.78809C11.5738 3.26557 12.3089 3.00009 13.1113 3Z" fill="#FFC600"/>
<path d="M16.8052 20.3059L17.6863 19.6789C18.8128 18.8765 19.6846 17.7571 20.1951 16.4579C20.7056 15.1588 20.8324 13.7363 20.5601 12.3648C20.5467 12.2972 20.5181 12.2337 20.4767 12.1792C20.4352 12.1246 20.382 12.0805 20.3211 12.0502L16.2001 10L12.0796 12.0502C12.0186 12.0804 11.9653 12.1245 11.9237 12.1791C11.8822 12.2336 11.8536 12.2972 11.8401 12.3648C11.5678 13.7363 11.6948 15.1588 12.2053 16.458C12.7159 17.7572 13.5879 18.8765 14.7144 19.6789L15.5955 20.3059C15.7728 20.4321 15.984 20.4998 16.2004 20.4998C16.4168 20.4998 16.6279 20.4321 16.8052 20.3059Z" fill="black"/>
<path d="M16.9302 15.7821C16.9302 15.692 16.9116 15.6361 16.8942 15.6024C16.8767 15.5684 16.8524 15.5416 16.8215 15.5193C16.7512 15.4686 16.6538 15.4474 16.5954 15.4474H15.8523C15.6631 15.4473 15.3884 15.3942 15.1492 15.222C14.8891 15.0347 14.7002 14.7258 14.7002 14.2952C14.7002 13.8647 14.8891 13.5565 15.1492 13.3692C15.3885 13.1969 15.663 13.1431 15.8523 13.1431H17.1156C17.3415 13.1431 17.5246 13.3262 17.5246 13.5522C17.5246 13.7781 17.3415 13.9612 17.1156 13.9612H15.8523C15.7939 13.9613 15.6973 13.9825 15.627 14.0331C15.596 14.0555 15.5719 14.0822 15.5543 14.1162C15.5369 14.15 15.5184 14.2052 15.5184 14.2952C15.5184 14.3855 15.5369 14.4412 15.5543 14.475C15.5719 14.5089 15.596 14.5358 15.627 14.5581C15.6973 14.6087 15.7939 14.6292 15.8523 14.6292H16.5954C16.7847 14.6292 17.06 14.683 17.2993 14.8553C17.5594 15.0426 17.7484 15.3516 17.7484 15.7821C17.7482 16.2125 17.5593 16.5209 17.2993 16.7082C17.06 16.8805 16.7847 16.9343 16.5954 16.9343H15.2579C15.0321 16.9343 14.8489 16.751 14.8488 16.5252C14.8488 16.2993 15.032 16.1161 15.2579 16.1161H16.5954C16.6538 16.1161 16.7512 16.0949 16.8215 16.0442C16.8524 16.0219 16.8767 15.9951 16.8942 15.9611C16.9116 15.9274 16.9301 15.8721 16.9302 15.7821Z" fill="#FFC600"/>
<path d="M15.8154 13.5521V12.809C15.8154 12.5831 15.9986 12.3999 16.2245 12.3999C16.4504 12.3999 16.6336 12.5831 16.6336 12.809V13.5521C16.6336 13.778 16.4504 13.9611 16.2245 13.9611C15.9986 13.9611 15.8154 13.778 15.8154 13.5521Z" fill="#FFC600"/>
<path d="M15.8154 17.2679V16.5248C15.8154 16.2989 15.9986 16.1157 16.2245 16.1157C16.4504 16.1157 16.6336 16.2989 16.6336 16.5248V17.2679C16.6336 17.4938 16.4504 17.677 16.2245 17.677C15.9986 17.677 15.8154 17.4938 15.8154 17.2679Z" fill="#FFC600"/>
</svg>
