<svg width="24" height="24" viewBox="0 0 24 24" fill="none" xmlns="http://www.w3.org/2000/svg">
<path d="M9.5 3H14.5C14.8978 3 15.2794 3.15804 15.5607 3.43934C15.842 3.72064 16 4.10218 16 4.5C16 5.42826 15.6313 6.3185 14.9749 6.97487C14.3185 7.63125 13.4283 8 12.5 8H11.5C10.5717 8 9.6815 7.63125 9.02513 6.97487C8.36875 6.3185 8 5.42826 8 4.5C8 4.10218 8.15804 3.72064 8.43934 3.43934C8.72064 3.15804 9.10218 3 9.5 3Z" fill="#FFC600"/>
<path d="M4 17V16C4 13.8783 4.84285 11.8434 6.34315 10.3431C7.84344 8.84285 9.87827 8 12 8C14.1217 8 16.1566 8.84285 17.6569 10.3431C19.1571 11.8434 20 13.8783 20 16V17C20 18.0609 19.5786 19.0783 18.8284 19.8284C18.0783 20.5786 17.0609 21 16 21H8C6.93913 21 5.92172 20.5786 5.17157 19.8284C4.42143 19.0783 4 18.0609 4 17Z" fill="#FFC600"/>
<path d="M13.0762 15.7847C13.0762 15.6778 13.0546 15.6206 13.0401 15.5924C13.0254 15.5639 13.0053 15.5401 12.976 15.519C12.9442 15.4961 12.9008 15.4759 12.8505 15.4616C12.7994 15.447 12.7561 15.4429 12.7344 15.4429H11.709C11.4287 15.4429 11.0236 15.3644 10.6689 15.1091C10.2793 14.8285 10 14.3668 10 13.7339C10 13.1009 10.2793 12.6392 10.6689 12.3587C11.0236 12.1034 11.4287 12.0249 11.709 12.0249H13.4527C13.83 12.0252 14.1363 12.3311 14.1363 12.7085C14.1363 13.0859 13.83 13.3918 13.4527 13.3921H11.709C11.6873 13.3921 11.6439 13.3962 11.5928 13.4108C11.5425 13.4252 11.4991 13.4453 11.4673 13.4682C11.438 13.4893 11.4179 13.5131 11.4032 13.5416C11.3888 13.5698 11.3672 13.627 11.3672 13.7339C11.3672 13.8407 11.3888 13.898 11.4032 13.9261C11.4179 13.9547 11.438 13.9785 11.4673 13.9996C11.4991 14.0225 11.5425 14.0426 11.5928 14.057C11.6439 14.0715 11.6873 14.0757 11.709 14.0757H12.7344C13.0146 14.0757 13.4197 14.1541 13.7745 14.4095C14.1641 14.69 14.4434 15.1517 14.4434 15.7847C14.4434 16.4176 14.1641 16.8793 13.7745 17.1599C13.4197 17.4152 13.0146 17.4937 12.7344 17.4937H10.8892C10.5117 17.4937 10.2056 17.1876 10.2056 16.8101C10.2056 16.4325 10.5117 16.1265 10.8892 16.1265H12.7344C12.7561 16.1265 12.7994 16.1223 12.8505 16.1078C12.9008 16.0934 12.9442 16.0733 12.976 16.0504C13.0053 16.0293 13.0254 16.0054 13.0401 15.9769C13.0546 15.9488 13.0762 15.8915 13.0762 15.7847Z" fill="black"/>
<path d="M11.542 12.709V11.6836C11.542 11.3061 11.848 11 12.2256 11C12.6031 11 12.9092 11.3061 12.9092 11.6836V12.709C12.9092 13.0865 12.6031 13.3926 12.2256 13.3926C11.848 13.3926 11.542 13.0865 11.542 12.709Z" fill="black"/>
<path d="M11.542 17.8354V16.8101C11.542 16.4325 11.848 16.1265 12.2256 16.1265C12.6031 16.1265 12.9092 16.4325 12.9092 16.8101V17.8354C12.9092 18.213 12.6031 18.519 12.2256 18.519C11.848 18.519 11.542 18.213 11.542 17.8354Z" fill="black"/>
</svg>
