<svg width="24" height="24" viewBox="0 0 24 24" fill="none" xmlns="http://www.w3.org/2000/svg">
<path d="M17 9C17 11.7614 14.7614 14 12 14C9.23858 14 7 11.7614 7 9C7 6.23858 9.23858 4 12 4C14.7614 4 17 6.23858 17 9Z" fill="#FFC600"/>
<path d="M13 13L13 19L11 19L11 13L13 13Z" fill="black"/>
<path d="M13 13L13 19L11 19L11 13L13 13Z" fill="#FFC600"/>
<path d="M17 9C17 11.7614 14.7614 14 12 14C9.23858 14 7 11.7614 7 9C7 6.23858 9.23858 4 12 4C14.7614 4 17 6.23858 17 9Z" fill="#FFC600"/>
<path d="M12.6504 9.7002C12.6504 9.62205 12.6346 9.58018 12.624 9.55957C12.6133 9.53872 12.5986 9.5213 12.5771 9.50586C12.5539 9.4891 12.5221 9.47438 12.4854 9.46387C12.448 9.45322 12.4163 9.4502 12.4004 9.4502H11.6504C11.4454 9.4502 11.1491 9.39281 10.8896 9.20605C10.6047 9.00086 10.4004 8.66316 10.4004 8.2002C10.4004 7.73724 10.6047 7.39953 10.8896 7.19434C11.1491 7.00758 11.4454 6.9502 11.6504 6.9502H12.9258C13.2017 6.95041 13.4258 7.17418 13.4258 7.4502C13.4258 7.72621 13.2017 7.94998 12.9258 7.9502H11.6504C11.6345 7.9502 11.6028 7.95322 11.5654 7.96387C11.5286 7.97438 11.4969 7.9891 11.4736 8.00586C11.4522 8.0213 11.4375 8.03872 11.4268 8.05957C11.4162 8.08018 11.4004 8.12205 11.4004 8.2002C11.4004 8.27834 11.4162 8.32021 11.4268 8.34082C11.4375 8.36168 11.4522 8.37909 11.4736 8.39453C11.4969 8.41129 11.5286 8.42601 11.5654 8.43652C11.6028 8.44717 11.6345 8.4502 11.6504 8.4502H12.4004C12.6054 8.4502 12.9017 8.50758 13.1611 8.69434C13.4461 8.89953 13.6504 9.23724 13.6504 9.7002C13.6504 10.1632 13.4461 10.5009 13.1611 10.7061C12.9017 10.8928 12.6054 10.9502 12.4004 10.9502H11.0508C10.7746 10.9502 10.5508 10.7263 10.5508 10.4502C10.5508 10.1741 10.7746 9.9502 11.0508 9.9502H12.4004C12.4163 9.9502 12.448 9.94717 12.4854 9.93652C12.5221 9.92601 12.5539 9.91129 12.5771 9.89453C12.5986 9.87909 12.6133 9.86168 12.624 9.84082C12.6346 9.82021 12.6504 9.77834 12.6504 9.7002Z" fill="#FFC600"/>
<path d="M12.6504 9.7002C12.6504 9.62205 12.6346 9.58018 12.624 9.55957C12.6133 9.53872 12.5986 9.5213 12.5771 9.50586C12.5539 9.4891 12.5221 9.47438 12.4854 9.46387C12.448 9.45322 12.4163 9.4502 12.4004 9.4502H11.6504C11.4454 9.4502 11.1491 9.39281 10.8896 9.20605C10.6047 9.00086 10.4004 8.66316 10.4004 8.2002C10.4004 7.73724 10.6047 7.39953 10.8896 7.19434C11.1491 7.00758 11.4454 6.9502 11.6504 6.9502H12.9258C13.2017 6.95041 13.4258 7.17418 13.4258 7.4502C13.4258 7.72621 13.2017 7.94998 12.9258 7.9502H11.6504C11.6345 7.9502 11.6028 7.95322 11.5654 7.96387C11.5286 7.97438 11.4969 7.9891 11.4736 8.00586C11.4522 8.0213 11.4375 8.03872 11.4268 8.05957C11.4162 8.08018 11.4004 8.12205 11.4004 8.2002C11.4004 8.27834 11.4162 8.32021 11.4268 8.34082C11.4375 8.36168 11.4522 8.37909 11.4736 8.39453C11.4969 8.41129 11.5286 8.42601 11.5654 8.43652C11.6028 8.44717 11.6345 8.4502 11.6504 8.4502H12.4004C12.6054 8.4502 12.9017 8.50758 13.1611 8.69434C13.4461 8.89953 13.6504 9.23724 13.6504 9.7002C13.6504 10.1632 13.4461 10.5009 13.1611 10.7061C12.9017 10.8928 12.6054 10.9502 12.4004 10.9502H11.0508C10.7746 10.9502 10.5508 10.7263 10.5508 10.4502C10.5508 10.1741 10.7746 9.9502 11.0508 9.9502H12.4004C12.4163 9.9502 12.448 9.94717 12.4854 9.93652C12.5221 9.92601 12.5539 9.91129 12.5771 9.89453C12.5986 9.87909 12.6133 9.86168 12.624 9.84082C12.6346 9.82021 12.6504 9.77834 12.6504 9.7002Z" fill="white"/>
<path d="M11.5283 7.4502V6.7002C11.5283 6.42405 11.7522 6.2002 12.0283 6.2002C12.3045 6.2002 12.5283 6.42405 12.5283 6.7002V7.4502C12.5283 7.72634 12.3045 7.9502 12.0283 7.9502C11.7522 7.9502 11.5283 7.72634 11.5283 7.4502Z" fill="#FFC600"/>
<path d="M11.5283 7.4502V6.7002C11.5283 6.42405 11.7522 6.2002 12.0283 6.2002C12.3045 6.2002 12.5283 6.42405 12.5283 6.7002V7.4502C12.5283 7.72634 12.3045 7.9502 12.0283 7.9502C11.7522 7.9502 11.5283 7.72634 11.5283 7.4502Z" fill="white"/>
<path d="M11.5283 11.2002V10.4502C11.5283 10.1741 11.7522 9.9502 12.0283 9.9502C12.3045 9.9502 12.5283 10.1741 12.5283 10.4502V11.2002C12.5283 11.4763 12.3045 11.7002 12.0283 11.7002C11.7522 11.7002 11.5283 11.4763 11.5283 11.2002Z" fill="#FFC600"/>
<path d="M11.5283 11.2002V10.4502C11.5283 10.1741 11.7522 9.9502 12.0283 9.9502C12.3045 9.9502 12.5283 10.1741 12.5283 10.4502V11.2002C12.5283 11.4763 12.3045 11.7002 12.0283 11.7002C11.7522 11.7002 11.5283 11.4763 11.5283 11.2002Z" fill="white"/>
<path d="M12 19C12 17.3431 13.3431 16 15 16H16C17.1046 16 18 16.8954 18 18C18 19.1046 17.1046 20 16 20H12V19Z" fill="black"/>
<path d="M12 19C12 17.3431 10.6569 16 9 16H8C6.89543 16 6 16.8954 6 18C6 19.1046 6.89543 20 8 20H12V19Z" fill="black"/>
</svg>
