<svg width="24" height="24" viewBox="0 0 24 24" fill="none" xmlns="http://www.w3.org/2000/svg">
<path d="M18.7348 14.4556L19.9823 7.67048C20.1362 6.83304 19.2574 6.18119 18.4875 6.56184L17.5247 7.03792C16.7205 7.43558 15.7491 7.2797 15.1133 6.65095L12.7386 4.30253C12.3307 3.89916 11.6693 3.89916 11.2614 4.30253L8.88668 6.65095C8.25087 7.2797 7.27955 7.43558 6.47531 7.03792L5.51248 6.56184C4.74264 6.18119 3.86375 6.83304 4.01772 7.67048L5.26521 14.4556C5.53611 15.929 6.83379 17 8.34816 17H15.6518C17.1662 17 18.4639 15.929 18.7348 14.4556Z" fill="#FFC600"/>
<path d="M17.2174 18C17.6496 18 18 18.4477 18 19C18 19.5523 17.6496 20 17.2174 20H6.78261C6.35039 20 6 19.5523 6 19C6 18.4477 6.35039 18 6.78261 18H17.2174Z" fill="black"/>
<circle cx="12" cy="11" r="1" fill="white"/>
</svg>
