<svg width="24" height="24" viewBox="0 0 24 24" fill="none" xmlns="http://www.w3.org/2000/svg">
<g clip-path="url(#clip0_33252_8107)">
<path d="M12 18.81C14.0803 18.81 16.0247 18.3741 17.4741 17.5837C18.7612 16.8816 19.5 15.9619 19.5 15.06V13.5C17.9006 14.9025 15.1659 15.81 12 15.81C8.83406 15.81 6.09938 14.9062 4.5 13.5V15.06C4.5 15.9619 5.23875 16.8816 6.52594 17.5837C7.97531 18.3741 9.91969 18.81 12 18.81Z" fill="black"/>
<path d="M17.4741 13.8337C18.7612 13.1316 19.5 12.2119 19.5 11.31V9.75C17.9006 11.1525 15.1659 12.06 12 12.06C8.83406 12.06 6.09938 11.1562 4.5 9.75V11.31C4.5 12.2119 5.23875 13.1316 6.52594 13.8337C7.97531 14.6241 9.91969 15.06 12 15.06C14.0803 15.06 16.0247 14.6241 17.4741 13.8337Z" fill="#FFC600"/>
<ellipse cx="12" cy="7.5" rx="7.5" ry="3.75" fill="#FFC600"/>
</g>
<defs>
<clipPath id="clip0_33252_8107">
<rect width="24" height="24" fill="white"/>
</clipPath>
</defs>
</svg>
