<svg width="24" height="24" viewBox="0 0 24 24" fill="none" xmlns="http://www.w3.org/2000/svg">
<path d="M15 20.0085C16.6569 20.0085 18 18.6654 18 17.0085L18 4.93C18 4.17497 17.1144 3.76764 16.5411 4.25901L15.8579 4.8446C15.111 5.4848 13.9848 5.39029 13.355 4.63457C12.6498 3.78836 11.3502 3.78836 10.645 4.63457C10.0152 5.39029 8.88896 5.4848 8.14206 4.8446L7.45888 4.25901C6.88562 3.76764 6 4.17497 6 4.93L6 17.0085C6 18.6654 7.34315 20.0085 9 20.0085L15 20.0085Z" fill="#FFC600"/>
<path d="M14.5 10.5C14.7761 10.5 15 10.7239 15 11C15 11.2761 14.7761 11.5 14.5 11.5H8.5C8.22386 11.5 8 11.2761 8 11C8 10.7239 8.22386 10.5 8.5 10.5H14.5Z" fill="black"/>
<path d="M14.5 12C14.7761 12 15 12.2239 15 12.5C15 12.7761 14.7761 13 14.5 13H8.5C8.22386 13 8 12.7761 8 12.5C8 12.2239 8.22386 12 8.5 12H14.5Z" fill="black"/>
<circle cx="9" cy="8" r="1" fill="white"/>
</svg>
