<svg width="40" height="40" viewBox="0 0 40 40" fill="none" xmlns="http://www.w3.org/2000/svg">
<g clip-path="url(#clip0_382_9034)">
<path d="M32.9999 20C33.0009 22.8539 32.0627 25.6288 30.3301 27.8967C28.5976 30.1645 26.1669 31.7991 23.4131 32.5484C20.6593 33.2977 17.7354 33.12 15.0927 32.0427C12.4499 30.9655 10.2351 29.0484 8.78988 26.5875C8.72251 26.4738 8.67834 26.3479 8.65992 26.2171C8.64149 26.0862 8.64918 25.953 8.68254 25.8252C8.7159 25.6973 8.77426 25.5774 8.85427 25.4722C8.93427 25.367 9.03432 25.2788 9.14863 25.2125L18.9999 19.4788V8C18.9999 7.73478 19.1052 7.48043 19.2928 7.29289C19.4803 7.10536 19.7347 7 19.9999 7C22.2685 7.00116 24.4973 7.59567 26.4651 8.72451C28.4329 9.85335 30.0712 11.4773 31.2174 13.435C31.2311 13.455 31.2436 13.475 31.2561 13.4963C31.2686 13.5175 31.2811 13.5425 31.2924 13.565C32.414 15.524 33.0028 17.7427 32.9999 20Z" fill="black"/>
<path d="M16.4999 18.5535C16.652 18.4657 16.7782 18.3395 16.866 18.1874C16.9538 18.0353 17 17.8628 16.9999 17.6873V8.68727C16.999 8.52784 16.96 8.37093 16.8862 8.22964C16.8123 8.08834 16.7058 7.96675 16.5754 7.87501C16.445 7.78327 16.2945 7.72404 16.1366 7.70225C15.9787 7.68047 15.8178 7.69676 15.6674 7.74977C12.7487 8.78279 10.2941 10.8231 8.74496 13.5039C7.19583 16.1846 6.65376 19.3301 7.21619 22.3748C7.24534 22.5322 7.31188 22.6804 7.4102 22.8067C7.50852 22.9331 7.63575 23.034 7.78119 23.101C7.91226 23.1623 8.05525 23.1939 8.19994 23.1935C8.37546 23.1936 8.5479 23.1475 8.69994 23.0598L16.4999 18.5535Z" fill="#FFC600"/>
</g>
<defs>
<clipPath id="clip0_382_9034">
<rect width="32" height="32" fill="white" transform="translate(4 4)"/>
</clipPath>
</defs>
</svg>
