<svg width="40" height="40" viewBox="0 0 40 40" fill="none" xmlns="http://www.w3.org/2000/svg">
<g clip-path="url(#clip0_382_3197)">
<path d="M32.4261 20.9147C33.0061 20.3647 32.9061 19.4147 32.2261 19.0047L31.0161 18.2647C30.5061 17.9547 30.2961 17.3147 30.5261 16.7647L31.0661 15.4647C31.3761 14.7247 30.8961 13.9047 30.1061 13.7947L28.7061 13.6147C28.1161 13.5347 27.6661 13.0447 27.6561 12.4447L27.6261 11.0347C27.6061 10.2347 26.8361 9.67474 26.0661 9.90474L24.7161 10.3047C24.1461 10.4747 23.5361 10.2047 23.2761 9.66474L22.6661 8.38474C22.3261 7.66474 21.386 7.46474 20.786 7.98474L19.7161 8.90474C19.2661 9.29474 18.5961 9.29474 18.1361 8.90474L17.0661 7.98474C16.4561 7.46474 15.5261 7.66474 15.1861 8.38474L14.5761 9.66474C14.3161 10.2047 13.706 10.4747 13.1361 10.3047L11.7861 9.90474C11.0261 9.67474 10.2461 10.2347 10.2261 11.0347L10.1961 12.4447C10.186 13.0447 9.73605 13.5347 9.14605 13.6147L7.74605 13.7947C6.95605 13.8947 6.47605 14.7247 6.78605 15.4647L7.32605 16.7647C7.55605 17.3147 7.34605 17.9547 6.83605 18.2647L5.62605 19.0047C4.94605 19.4247 4.84605 20.3647 5.42605 20.9147L6.45605 21.8847C6.88605 22.2947 6.95605 22.9647 6.61605 23.4547L5.81605 24.6147C5.36605 25.2747 5.65605 26.1747 6.40605 26.4447L7.73605 26.9147C8.29605 27.1147 8.63605 27.6947 8.52605 28.2747L8.26605 29.6647C8.11605 30.4447 8.75605 31.1547 9.55605 31.0947L10.9661 30.9847C11.5661 30.9347 12.1061 31.3347 12.2361 31.9147L12.5661 33.2847C12.7461 34.0647 13.6261 34.4447 14.3261 34.0647L15.5661 33.3847C16.0861 33.0947 16.7461 33.2347 17.1061 33.7147L17.9661 34.8347C18.446 35.4647 19.4061 35.4647 19.8861 34.8347L20.746 33.7147C21.1061 33.2447 21.7661 33.1047 22.2861 33.3847L23.5261 34.0647C24.2261 34.4447 25.0961 34.0647 25.2861 33.2847L25.6161 31.9147C25.7561 31.3347 26.2961 30.9447 26.8861 30.9847L28.2961 31.0947C29.0961 31.1547 29.7261 30.4447 29.5861 29.6647L29.3261 28.2747C29.2161 27.6847 29.5461 27.1047 30.1161 26.9147L31.4461 26.4447C32.1961 26.1747 32.496 25.2747 32.0361 24.6147L31.2361 23.4547C30.8961 22.9647 30.9661 22.2947 31.3961 21.8847L32.4261 20.9147Z" fill="#FFC600"/>
<path d="M21.4352 17.4058C21.8476 17.4196 22.1721 17.6063 22.3548 18.0027C22.5409 18.4065 22.5087 18.8075 22.2556 19.1771C22.2112 19.2418 22.1564 19.2991 22.1025 19.3564C20.2982 21.2729 18.4948 23.1902 16.6888 25.1039C16.2364 25.5835 15.6658 25.6306 15.229 25.2379C14.7514 24.8091 14.7123 24.1115 15.1508 23.6153C15.4248 23.3039 15.7162 23.0091 16.0007 22.7079C17.5361 21.077 19.0725 19.4479 20.6053 17.8142C20.8376 17.5665 21.0925 17.3928 21.4352 17.4067V17.4058Z" fill="black"/>
<path d="M15.8928 17C16.654 17.0028 17.283 17.6653 17.2882 18.4711C17.2934 19.2796 16.6296 19.9782 15.8728 19.9615C15.1098 19.9449 14.4965 19.2768 14.5 18.4655C14.5035 17.6552 15.1281 16.9972 15.8928 17Z" fill="black"/>
<path d="M22.8473 24.4137C22.8377 25.2204 22.2044 25.8746 21.4406 25.8663C20.6811 25.858 20.0548 25.1843 20.0591 24.3804C20.0635 23.5839 20.7063 22.9038 21.4554 22.9038C22.2261 22.9038 22.8568 23.5885 22.8473 24.4128V24.4137Z" fill="black"/>
</g>
<defs>
<clipPath id="clip0_382_3197">
<rect width="27.75" height="27.61" fill="white" transform="translate(5.05615 7.69482)"/>
</clipPath>
</defs>
</svg>
