<svg width="24" height="24" viewBox="0 0 24 24" fill="none" xmlns="http://www.w3.org/2000/svg">
<path d="M12.2459 3.01057C13.2583 3.13971 13.5105 4.04321 14.1252 4.62785C14.2215 4.71942 14.4126 4.80301 14.545 4.79878C14.924 4.78751 15.5467 4.47664 15.9632 4.42452C17.0907 4.28317 17.9012 4.97582 18.0102 6.08453C18.0463 6.45034 17.9698 7.26556 18.1708 7.5398C18.3389 7.76896 19.2668 8.01972 19.5809 8.16812C20.5657 8.63348 20.9212 9.64029 20.407 10.6217C20.2144 10.9894 19.8059 11.4243 19.6664 11.7784C19.6002 11.9465 19.6091 12.0883 19.6791 12.2508C20.0876 13.1998 21.0184 13.6286 20.5131 14.9077C20.1144 15.9173 19.1907 15.8765 18.3901 16.2991C18.1745 16.4128 18.0792 16.5565 18.0501 16.8021C17.9266 17.8422 18.1989 18.9284 16.9803 19.4567C16.0069 19.8788 15.4246 19.2801 14.5737 19.2115C14.4248 19.1998 14.2327 19.2764 14.1252 19.3787C13.3959 20.0728 13.201 21.0571 11.9101 20.9974C10.7488 20.9439 10.553 20.0244 9.87444 19.3787C9.76691 19.2764 9.57484 19.1998 9.42598 19.2115C8.57555 19.2796 7.99278 19.8788 7.01932 19.4567C5.79602 18.926 6.07308 17.8446 5.94958 16.8021C5.92657 16.6091 5.83547 16.4161 5.66172 16.317C4.8559 15.8587 3.88055 15.9544 3.47576 14.8833C2.99678 13.6149 3.91577 13.1909 4.32056 12.2508C4.39053 12.0883 4.39945 11.9465 4.33324 11.7784C3.96508 10.8453 3.01415 10.4536 3.45651 9.17399C3.84345 8.05447 4.83758 8.15778 5.66172 7.68913C5.72558 7.65297 5.78616 7.59944 5.82796 7.53933C6.03129 7.24724 5.95522 6.43015 5.98903 6.04931C6.08576 4.96126 6.95357 4.28833 8.03599 4.42405C8.45298 4.47617 9.0752 4.78704 9.45416 4.79831C9.58658 4.80207 9.77771 4.71895 9.87397 4.62738C10.4802 4.05166 10.7535 3.13078 11.7538 3.01057C11.8674 2.99695 12.1332 2.99601 12.2459 3.01057ZM9.4612 8.85231C7.99278 9.03029 8.2149 11.2942 9.69647 11.1961C11.256 11.0927 11.0987 8.65368 9.4612 8.85231ZM14.3802 8.85044C14.3041 8.86593 14.1726 8.94952 14.1078 8.99977L8.59011 14.5161C8.16371 15.0866 8.7878 15.7586 9.38043 15.3764L14.9869 9.77319C15.3034 9.3205 14.9259 8.73773 14.3797 8.85044H14.3802ZM13.6777 13.1716C12.4633 13.3609 12.461 15.32 13.7434 15.4778C15.5448 15.6995 15.5467 12.8805 13.6777 13.1716Z" fill="#FFC600"/>
<path d="M14.3798 8.85011C14.9259 8.73741 15.3034 9.32017 14.9869 9.77286L9.38046 15.3761C8.78736 15.7583 8.16327 15.0863 8.59013 14.5158L14.1079 8.99944C14.1727 8.94966 14.3041 8.86608 14.3802 8.85011H14.3798Z" fill="black"/>
<path d="M9.46106 8.85232C11.0985 8.65368 11.2558 11.0928 9.69632 11.1961C8.21475 11.2942 7.99264 9.0303 9.46106 8.85232Z" fill="black"/>
<path d="M13.677 13.1715C15.546 12.8804 15.5441 15.6993 13.7428 15.4777C12.4603 15.3199 12.4627 13.3608 13.677 13.1715Z" fill="black"/>
</svg>
