<svg width="24" height="24" viewBox="0 0 24 24" fill="none" xmlns="http://www.w3.org/2000/svg">
<path d="M15 4C16.6569 4 18 5.34315 18 7L18 19.0785C18 19.8336 17.1144 20.2409 16.5411 19.7495L15.8579 19.1639C15.111 18.5237 13.9848 18.6183 13.355 19.374C12.6498 20.2202 11.3502 20.2202 10.645 19.374C10.0152 18.6183 8.88896 18.5237 8.14206 19.1639L7.45888 19.7495C6.88562 20.2409 6 19.8336 6 19.0785L6 7C6 5.34315 7.34315 4 9 4L15 4Z" fill="#FFC600"/>
<path d="M13 8C13.2761 8 13.5 8.22386 13.5 8.5C13.5 8.77614 13.2761 9 13 9H9C8.72386 9 8.5 8.77614 8.5 8.5C8.5 8.22386 8.72386 8 9 8H13Z" fill="white"/>
<path d="M15 10.5C15.2761 10.5 15.5 10.7239 15.5 11C15.5 11.2761 15.2761 11.5 15 11.5H9C8.72386 11.5 8.5 11.2761 8.5 11C8.5 10.7239 8.72386 10.5 9 10.5H15Z" fill="black"/>
<path d="M15 12.5C15.2761 12.5 15.5 12.7239 15.5 13C15.5 13.2761 15.2761 13.5 15 13.5H9C8.72386 13.5 8.5 13.2761 8.5 13C8.5 12.7239 8.72386 12.5 9 12.5H15Z" fill="black"/>
</svg>
