<svg width="24" height="24" viewBox="0 0 24 24" fill="none" xmlns="http://www.w3.org/2000/svg">
<path d="M12 21C16.9706 21 21 16.9706 21 12C21 7.02944 16.9706 3 12 3C7.02944 3 3 7.02944 3 12C3 16.9706 7.02944 21 12 21Z" fill="#FFC600"/>
<path d="M16.6162 6.0011V8.30859H14.3087" stroke="black" stroke-linecap="round" stroke-linejoin="round"/>
<path d="M6.10343 13.1035C5.52933 10.0503 7.39776 7.02332 10.4483 6.206C12.7831 5.5804 15.1653 6.42189 16.6162 8.16544" stroke="black" stroke-linecap="round" stroke-linejoin="round"/>
<path d="M17.8966 10.8951C18.4708 13.9483 16.6023 16.9752 13.5518 17.7926C11.2172 18.4182 8.83509 17.5768 7.38413 15.8335" stroke="white" stroke-linecap="round" stroke-linejoin="round"/>
<path d="M7.38387 17.9976V15.6901H9.69141" stroke="white" stroke-linecap="round" stroke-linejoin="round"/>
<path d="M12.8549 12.8179C12.8549 12.7326 12.8377 12.6869 12.8262 12.6644C12.8144 12.6417 12.7984 12.6227 12.775 12.6059C12.7496 12.5876 12.715 12.5715 12.6749 12.56C12.6341 12.5484 12.5995 12.5451 12.5822 12.5451H11.764C11.5404 12.5451 11.2172 12.4825 10.9341 12.2788C10.6232 12.0549 10.4004 11.6865 10.4004 11.1815C10.4004 10.6765 10.6232 10.3081 10.9341 10.0842C11.2172 9.88047 11.5404 9.81787 11.764 9.81787H13.1553C13.4564 9.8181 13.7008 10.0622 13.7008 10.3633C13.7008 10.6644 13.4564 10.9085 13.1553 10.9088H11.764C11.7467 10.9088 11.7121 10.9121 11.6713 10.9237C11.6312 10.9352 11.5966 10.9512 11.5712 10.9695C11.5478 10.9863 11.5318 11.0053 11.5201 11.0281C11.5085 11.0506 11.4913 11.0962 11.4913 11.1815C11.4913 11.2668 11.5085 11.3124 11.5201 11.3349C11.5318 11.3577 11.5478 11.3767 11.5712 11.3935C11.5966 11.4118 11.6312 11.4278 11.6713 11.4393C11.7121 11.4509 11.7467 11.4542 11.764 11.4542H12.5822C12.8058 11.4542 13.129 11.5168 13.4121 11.7206C13.723 11.9444 13.9458 12.3128 13.9458 12.8179C13.9458 13.3229 13.723 13.6913 13.4121 13.9152C13.129 14.1189 12.8058 14.1815 12.5822 14.1815H11.1099C10.8087 14.1815 10.5645 13.9373 10.5645 13.636C10.5645 13.3348 10.8087 13.0906 11.1099 13.0906H12.5822C12.5995 13.0906 12.6341 13.0873 12.6749 13.0757C12.715 13.0642 12.7496 13.0481 12.775 13.0299C12.7984 13.013 12.8144 12.994 12.8262 12.9713C12.8377 12.9488 12.8549 12.9031 12.8549 12.8179Z" fill="black"/>
<path d="M11.6318 10.3631V9.54496C11.6318 9.24372 11.876 8.99951 12.1773 8.99951C12.4785 8.99951 12.7227 9.24372 12.7227 9.54496V10.3631C12.7227 10.6644 12.4785 10.9086 12.1773 10.9086C11.876 10.9086 11.6318 10.6644 11.6318 10.3631Z" fill="black"/>
<path d="M11.6318 14.454V13.6358C11.6318 13.3345 11.876 13.0903 12.1773 13.0903C12.4785 13.0903 12.7227 13.3345 12.7227 13.6358V14.454C12.7227 14.7552 12.4785 14.9994 12.1773 14.9994C11.876 14.9994 11.6318 14.7552 11.6318 14.454Z" fill="black"/>
</svg>
