<svg width="24" height="24" viewBox="0 0 24 24" fill="none" xmlns="http://www.w3.org/2000/svg">
<path d="M17.3143 3.99951L17.3143 7.99951M15.4001 7.0853L16.9608 8.64596C17.156 8.84122 17.4726 8.84122 17.6679 8.64596L19.2285 7.0853" stroke="black" stroke-linecap="round" stroke-linejoin="round"/>
<path d="M12 3C12.8059 3 13.5868 3.10697 14.3301 3.30566C13.5086 4.12095 13 5.25115 13 6.5C13 8.98528 15.0147 11 17.5 11C18.7489 11 19.8781 10.4905 20.6934 9.66895C20.8923 10.4126 21 11.1937 21 12C21 16.9706 16.9706 21 12 21C7.02944 21 3 16.9706 3 12C3 7.02944 7.02944 3 12 3Z" fill="#FFC600"/>
<path d="M12.4545 12.8183C12.4545 12.7331 12.4373 12.6874 12.4258 12.6649C12.414 12.6422 12.398 12.6232 12.3746 12.6063C12.3492 12.5881 12.3146 12.572 12.2745 12.5605C12.2337 12.5489 12.1991 12.5456 12.1818 12.5456H11.3636C11.14 12.5456 10.8168 12.483 10.5337 12.2793C10.2228 12.0554 10 11.687 10 11.182C10 10.6769 10.2228 10.3085 10.5337 10.0847C10.8168 9.88096 11.14 9.81836 11.3636 9.81836H12.755C13.056 9.81859 13.3004 10.0627 13.3004 10.3638C13.3004 10.6649 13.056 10.909 12.755 10.9093H11.3636C11.3463 10.9093 11.3117 10.9126 11.2709 10.9242C11.2308 10.9356 11.1962 10.9517 11.1708 10.97C11.1474 10.9868 11.1314 11.0058 11.1197 11.0286C11.1081 11.0511 11.0909 11.0967 11.0909 11.182C11.0909 11.2672 11.1081 11.3129 11.1197 11.3354C11.1314 11.3581 11.1474 11.3771 11.1708 11.394C11.1962 11.4123 11.2308 11.4283 11.2709 11.4398C11.3117 11.4514 11.3463 11.4547 11.3636 11.4547H12.1818C12.4054 11.4547 12.7286 11.5173 13.0117 11.721C13.3226 11.9449 13.5454 12.3133 13.5454 12.8183C13.5454 13.3234 13.3226 13.6918 13.0117 13.9156C12.7286 14.1194 12.4054 14.182 12.1818 14.182H10.7095C10.4083 14.182 10.1641 13.9378 10.1641 13.6365C10.1641 13.3353 10.4083 13.0911 10.7095 13.0911H12.1818C12.1991 13.0911 12.2337 13.0878 12.2745 13.0762C12.3146 13.0647 12.3492 13.0486 12.3746 13.0303C12.398 13.0135 12.414 12.9945 12.4258 12.9718C12.4373 12.9493 12.4545 12.9036 12.4545 12.8183Z" fill="black"/>
<path d="M11.2314 10.3636V9.54545C11.2314 9.24421 11.4757 9 11.7769 9C12.0781 9 12.3223 9.24421 12.3223 9.54545V10.3636C12.3223 10.6649 12.0781 10.9091 11.7769 10.9091C11.4757 10.9091 11.2314 10.6649 11.2314 10.3636Z" fill="black"/>
<path d="M11.2314 14.4544V13.6363C11.2314 13.335 11.4757 13.0908 11.7769 13.0908C12.0781 13.0908 12.3223 13.335 12.3223 13.6363V14.4544C12.3223 14.7557 12.0781 14.9999 11.7769 14.9999C11.4757 14.9999 11.2314 14.7557 11.2314 14.4544Z" fill="black"/>
</svg>
