<svg width="24" height="24" viewBox="0 0 24 24" fill="none" xmlns="http://www.w3.org/2000/svg">
<path d="M10.5994 16.3151C10.5994 19.4714 13.158 22.03 16.3143 22.03C19.4706 22.03 22.0293 19.4714 22.0293 16.3151C22.0293 13.1588 19.4706 10.6001 16.3143 10.6001C13.158 10.6001 10.5994 13.1588 10.5994 16.3151Z" fill="#FFC600"/>
<path d="M13.5127 15.3628C14.0242 13.8705 15.5827 12.9901 17.0684 13.4438L17.2119 13.4917C18.2266 13.842 18.8963 14.6976 19.1074 15.6841L19.7773 15.6851C19.8975 15.6853 20.0096 15.7597 20.0537 15.8755C20.1015 15.9913 20.0733 16.1234 19.9893 16.2144L18.8223 17.4204C18.7942 17.4493 18.7576 17.4734 18.7256 17.4858C18.6895 17.5024 18.6534 17.5112 18.6094 17.5112C18.5693 17.5112 18.5292 17.5023 18.4932 17.4858C18.4572 17.4693 18.4245 17.4492 18.3965 17.4204L17.2295 16.2144C17.1735 16.1566 17.1408 16.0782 17.1406 15.9956C17.1406 15.9544 17.1491 15.9167 17.165 15.8755C17.2131 15.7596 17.3212 15.6852 17.4414 15.6851H18.0039C17.8165 15.145 17.409 14.7051 16.8496 14.5142L16.8379 14.5103L16.8389 14.5093C15.9038 14.1681 14.858 14.7021 14.5146 15.7036C14.1767 16.6905 14.6906 17.7873 15.6768 18.1294V18.1304C16.3483 18.3644 17.0707 18.1701 17.5371 17.6948C17.746 17.4822 18.0822 17.479 18.2881 17.688C18.4936 17.897 18.4916 18.2389 18.2832 18.4517C17.5302 19.2193 16.3797 19.5237 15.3184 19.1538V19.1519C13.7866 18.6197 12.9803 16.9173 13.5127 15.3628Z" fill="black"/>
<path d="M7.74902 2C10.9244 2 13.499 4.57465 13.499 7.75C13.4988 10.9251 10.9242 13.499 7.74902 13.499C4.57404 13.4988 2.00025 10.925 2 7.75C2 4.5748 4.57388 2.00025 7.74902 2ZM7.74512 4.11816C7.46755 4.11839 7.24232 4.3435 7.24219 4.62109V4.96094H7.15039C6.29641 4.96094 5.65442 5.68754 5.6543 6.51855C5.65469 7.34936 6.29659 8.0752 7.15039 8.0752H8.34082C8.58312 8.0752 8.8308 8.29319 8.83105 8.62598C8.83081 8.95878 8.58313 9.17676 8.34082 9.17676H6.55469C6.27693 9.17676 6.05091 9.40293 6.05078 9.68066C6.05127 9.95809 6.27715 10.1836 6.55469 10.1836H7.24219V10.5234C7.24245 10.8009 7.46763 11.0261 7.74512 11.0264C8.0228 11.0264 8.24876 10.8011 8.24902 10.5234V10.1836H8.34082C9.19472 10.1836 9.83666 9.45689 9.83691 8.62598C9.83665 7.79507 9.19471 7.06934 8.34082 7.06934H7.15039C6.90815 7.06934 6.66054 6.8512 6.66016 6.51855C6.66028 6.18561 6.90802 5.96777 7.15039 5.96777H8.93652C9.2142 5.96777 9.43919 5.74149 9.43945 5.46387C9.4391 5.18633 9.21415 4.96094 8.93652 4.96094H8.24902V4.62109C8.24889 4.34336 8.02288 4.11816 7.74512 4.11816Z" fill="black"/>
</svg>
