<svg width="32" height="31" viewBox="0 0 32 31" fill="none" xmlns="http://www.w3.org/2000/svg">
<path d="M13.4736 4.56738C14.0869 4.56738 14.6841 4.76585 15.1748 5.13379L23.793 11.5977C24.2859 11.9674 24.6864 12.4469 24.9619 12.998C25.2375 13.5492 25.3809 14.1573 25.3809 14.7734V22.1436C25.3809 23.1961 24.9629 24.2059 24.2188 24.9502C23.4744 25.6945 22.4647 26.1133 21.4121 26.1133H5.53613C4.48349 26.1133 3.47382 25.6945 2.72949 24.9502C1.98526 24.2059 1.56738 23.1961 1.56738 22.1436V14.7734C1.56738 14.1573 1.71077 13.5492 1.98633 12.998C2.26186 12.447 2.66145 11.9673 3.1543 11.5977L11.7734 5.13379C12.264 4.766 12.8605 4.56746 13.4736 4.56738Z" fill="#FFD02E" stroke="#FFD02E" stroke-width="1.134"/>
<circle cx="6.36233" cy="15.3399" r="2.61233" fill="black"/>
<circle cx="23.2261" cy="20.3936" r="7" fill="black"/>
<path d="M23.6111 15.8931C23.7325 15.8931 23.8476 15.9231 23.9509 15.9858L23.95 15.9868C24.0508 16.0464 24.1328 16.1269 24.1921 16.228C24.2522 16.3305 24.283 16.4433 24.283 16.562V19.4263H27.1443C27.2655 19.4263 27.3809 19.4565 27.4841 19.519C27.5815 19.5782 27.6613 19.658 27.7205 19.7554C27.7832 19.8587 27.8132 19.9738 27.8132 20.0952C27.8132 20.2152 27.7821 20.3287 27.7214 20.4321L27.7205 20.4351C27.6613 20.5325 27.5815 20.6113 27.4841 20.6704C27.3808 20.7331 27.2657 20.7632 27.1443 20.7632H24.283V23.6245C24.283 23.7459 24.2529 23.861 24.1902 23.9644C24.1305 24.0627 24.0492 24.1411 23.95 24.1997L23.9509 24.2007C23.8476 24.2634 23.7325 24.2935 23.6111 24.2935C23.4925 24.2934 23.3805 24.2617 23.2781 24.2017C23.1778 24.1429 23.096 24.0634 23.0359 23.9644L23.033 23.9604C22.9743 23.8577 22.946 23.7437 22.946 23.6245V20.7632H20.0818C19.9617 20.7632 19.8474 20.733 19.7439 20.6724L19.7419 20.6704C19.6445 20.6113 19.5648 20.5325 19.5056 20.4351L19.5046 20.4321C19.444 20.3287 19.4129 20.2152 19.4128 20.0952C19.4128 19.9738 19.4429 19.8587 19.5056 19.7554C19.5648 19.658 19.6445 19.5782 19.7419 19.519L19.824 19.478C19.9051 19.4439 19.9918 19.4263 20.0818 19.4263H22.946V16.562C22.946 16.4458 22.9749 16.3347 23.031 16.2329L23.0339 16.228L23.0828 16.1558C23.1359 16.0868 23.2015 16.0297 23.2781 15.9849C23.3805 15.9248 23.4925 15.8931 23.6111 15.8931Z" fill="white" style="mix-blend-mode:plus-darker"/>
<path d="M23.6111 15.8931C23.7325 15.8931 23.8476 15.9231 23.9509 15.9858L23.95 15.9868C24.0508 16.0464 24.1328 16.1269 24.1921 16.228C24.2522 16.3305 24.283 16.4433 24.283 16.562V19.4263H27.1443C27.2655 19.4263 27.3809 19.4565 27.4841 19.519C27.5815 19.5782 27.6613 19.658 27.7205 19.7554C27.7832 19.8587 27.8132 19.9738 27.8132 20.0952C27.8132 20.2152 27.7821 20.3287 27.7214 20.4321L27.7205 20.4351C27.6613 20.5325 27.5815 20.6113 27.4841 20.6704C27.3808 20.7331 27.2657 20.7632 27.1443 20.7632H24.283V23.6245C24.283 23.7459 24.2529 23.861 24.1902 23.9644C24.1305 24.0627 24.0492 24.1411 23.95 24.1997L23.9509 24.2007C23.8476 24.2634 23.7325 24.2935 23.6111 24.2935C23.4925 24.2934 23.3805 24.2617 23.2781 24.2017C23.1778 24.1429 23.096 24.0634 23.0359 23.9644L23.033 23.9604C22.9743 23.8577 22.946 23.7437 22.946 23.6245V20.7632H20.0818C19.9617 20.7632 19.8474 20.733 19.7439 20.6724L19.7419 20.6704C19.6445 20.6113 19.5648 20.5325 19.5056 20.4351L19.5046 20.4321C19.444 20.3287 19.4129 20.2152 19.4128 20.0952C19.4128 19.9738 19.4429 19.8587 19.5056 19.7554C19.5648 19.658 19.6445 19.5782 19.7419 19.519L19.824 19.478C19.9051 19.4439 19.9918 19.4263 20.0818 19.4263H22.946V16.562C22.946 16.4458 22.9749 16.3347 23.031 16.2329L23.0339 16.228L23.0828 16.1558C23.1359 16.0868 23.2015 16.0297 23.2781 15.9849C23.3805 15.9248 23.4925 15.8931 23.6111 15.8931Z" stroke="white" stroke-width="0.4"/>
</svg>
