<svg width="24" height="24" viewBox="0 0 24 24" fill="none" xmlns="http://www.w3.org/2000/svg">
<rect x="3" y="3" width="18" height="18" rx="4" fill="#FFC600"/>
<path d="M7.0498 15.5395V13.8498C7.0498 13.6165 7.23893 13.4274 7.47222 13.4274C7.70552 13.4274 7.89464 13.6165 7.89464 13.8498V15.5395C7.89464 15.9283 8.20984 16.2435 8.59867 16.2435H10.2883C10.5216 16.2435 10.7108 16.4326 10.7108 16.6659C10.7108 16.8992 10.5216 17.0883 10.2883 17.0883H8.59867C7.74325 17.0883 7.0498 16.3949 7.0498 15.5395ZM16.0614 15.5395V13.8498C16.0614 13.6165 16.2505 13.4274 16.4838 13.4274C16.7171 13.4274 16.9062 13.6165 16.9062 13.8498V15.5395C16.9062 16.3949 16.2128 17.0883 15.3574 17.0883H13.6677C13.4344 17.0883 13.2453 16.8992 13.2453 16.6659C13.2453 16.4326 13.4344 16.2435 13.6677 16.2435H15.3574C15.7462 16.2435 16.0614 15.9283 16.0614 15.5395ZM7.0498 10.4705V8.7808C7.0498 7.92538 7.74325 7.23193 8.59867 7.23193H10.2883C10.5216 7.23193 10.7108 7.42106 10.7108 7.65435C10.7108 7.88765 10.5216 8.07677 10.2883 8.07677H8.59867C8.20984 8.07677 7.89464 8.39197 7.89464 8.7808V10.4705C7.89464 10.7038 7.70552 10.8929 7.47222 10.8929C7.23893 10.8929 7.0498 10.7038 7.0498 10.4705ZM16.0614 10.4705V8.7808C16.0614 8.39197 15.7462 8.07677 15.3574 8.07677H13.6677C13.4344 8.07677 13.2453 7.88765 13.2453 7.65435C13.2453 7.42106 13.4344 7.23193 13.6677 7.23193H15.3574C16.2128 7.23193 16.9062 7.92538 16.9062 8.7808V10.4705C16.9062 10.7038 16.7171 10.8929 16.4838 10.8929C16.2505 10.8929 16.0614 10.7038 16.0614 10.4705Z" fill="black"/>
<path d="M6.90929 11.7378L17.0473 11.7378C17.2806 11.7378 17.4697 11.9269 17.4697 12.1602C17.4697 12.3935 17.2806 12.5826 17.0473 12.5826L6.90929 12.5826C6.67599 12.5826 6.48687 12.3935 6.48687 12.1602C6.48687 11.9269 6.67599 11.7378 6.90929 11.7378Z" fill="white"/>
</svg>
