<svg width="24" height="24" viewBox="0 0 24 24" fill="none" xmlns="http://www.w3.org/2000/svg">
<path d="M11.8219 1.03007C11.9566 0.983114 12.1059 0.991212 12.2358 1.05394L20.7018 5.14483L20.8456 5.22531C20.9846 5.31321 21.1076 5.42398 21.2088 5.55337C21.3436 5.72578 21.4366 5.92619 21.4803 6.13925C22.06 8.97516 21.79 11.9174 20.7032 14.6041C19.6843 17.1229 17.9886 19.315 15.8038 20.9471L15.3608 21.2663L13.5504 22.5178C13.0965 22.8315 12.5556 23 12.001 23C11.4463 23 10.905 22.8317 10.451 22.5178L8.64128 21.2663C6.24193 19.6064 4.38518 17.2908 3.29817 14.6041C2.21119 11.9174 1.94083 8.97597 2.52039 6.13993C2.56423 5.9266 2.6574 5.72519 2.79261 5.55269C2.92761 5.38048 3.10083 5.2406 3.29956 5.14483L11.7649 1.05394L11.8219 1.03007Z" fill="#FFC600"/>
<rect x="8.40039" y="10.6001" width="7.2" height="5.4" rx="0.6" fill="black"/>
<path d="M12 7C13.3253 7.00021 14.3994 8.07504 14.3994 9.40039V10H13.2002V8.7998C13.2001 8.46852 12.9309 8.2002 12.5996 8.2002H11.4004C11.0691 8.2002 10.7999 8.46852 10.7998 8.7998V10H9.59961V9.40039C9.59961 8.07491 10.6745 7 12 7Z" fill="black"/>
<circle cx="11.9996" cy="12.6998" r="0.9" fill="white"/>
<path d="M11.7004 13H12.3004L12.6004 14.8H11.4004L11.7004 13Z" fill="white"/>
</svg>
