<svg width="24" height="24" viewBox="0 0 24 24" fill="none" xmlns="http://www.w3.org/2000/svg">
<path d="M15.1406 3.75H9.51562C7.575 3.75 6 5.325 6 7.26562V16.6406C6 18.5813 7.575 20.1562 9.51562 20.1562H15.1406C17.0813 20.1562 18.6562 18.5813 18.6562 16.6406V7.26562C18.6562 5.325 17.0813 3.75 15.1406 3.75ZM12.3375 16.9219C11.8219 16.9219 11.3906 16.5 11.3906 15.9844C11.3906 15.4687 11.8125 15.0469 12.3281 15.0469H12.3375C12.8531 15.0469 13.275 15.4687 13.275 15.9844C13.275 16.5 12.8531 16.9219 12.3375 16.9219Z" fill="#FFC600"/>
<rect x="5" y="7.2998" width="15" height="6" rx="1" fill="black"/>
<path d="M15.4355 11.576L14.9735 11.247L15.5475 10.484L14.6865 10.19L14.8615 9.651L15.7295 9.938V9H16.2965V9.938L17.1645 9.651L17.3395 10.19L16.4785 10.484L17.0455 11.247L16.5905 11.576L16.0095 10.813L15.4355 11.576Z" fill="#FFC600"/>
<path d="M11.9424 11.576L11.4804 11.247L12.0544 10.484L11.1934 10.19L11.3684 9.651L12.2364 9.938V9H12.8034V9.938L13.6714 9.651L13.8464 10.19L12.9854 10.484L13.5524 11.247L13.0974 11.576L12.5164 10.813L11.9424 11.576Z" fill="#FFC600"/>
<path d="M8.4492 11.576L7.9872 11.247L8.5612 10.484L7.7002 10.19L7.8752 9.651L8.7432 9.938V9H9.3102V9.938L10.1782 9.651L10.3532 10.19L9.4922 10.484L10.0592 11.247L9.6042 11.576L9.0232 10.813L8.4492 11.576Z" fill="#FFC600"/>
</svg>
