<svg width="24" height="24" viewBox="0 0 24 24" fill="none" xmlns="http://www.w3.org/2000/svg">
<path d="M20.8283 11.2V13.876C20.8283 11.8576 19.4857 10.1588 17.659 9.60163C18.134 8.42343 17.8967 7.30589 17.6592 6.52956C17.6409 6.44736 17.6135 6.37429 17.577 6.29209C19.2849 7.17802 20.8283 9.15409 20.8283 11.2Z" fill="white"/>
<path d="M7.30179 5.95752L5.70346 9.77524C4.11426 10.4602 3 12.0403 3 13.8761V11.2C3 8.60618 4.84493 6.44159 7.30179 5.95752Z" fill="white"/>
<path d="M17.6868 10.0398C17.2758 9.92107 16.8465 9.85714 16.399 9.85714H10.0879L12.7366 3.71042L12.764 3.64648C12.8918 3.69215 13.0288 3.75608 13.1658 3.80175L15.1843 4.65115C16.3077 5.11695 17.0931 5.60101 17.5772 6.18555C17.6594 6.29514 17.7325 6.39561 17.8055 6.51434C17.8877 6.64221 17.9517 6.77008 17.9882 6.90708C18.0247 6.98928 18.0521 7.06234 18.0704 7.14454C18.3079 7.92087 18.1617 8.86161 17.6868 10.0398Z" fill="black"/>
<path d="M12.1994 3.47323L12.172 3.53716L9.31089 9.68382H7.2409C6.61984 9.68382 6.0353 9.80255 5.4873 10.04L7.08563 6.2223L7.12217 6.1401L7.17697 5.99396C7.20437 5.93003 7.22263 5.87523 7.25003 5.82956C8.4465 3.06217 9.47764 2.43203 12.1994 3.47323Z" fill="black"/>
<path d="M20.8282 13.8765V15.6575C20.8282 15.8402 20.8191 16.0228 20.81 16.1964C20.6364 19.393 18.8554 21.0005 15.4761 21.0005H8.35212C8.12379 21.0005 7.91372 20.9822 7.70366 20.9548C4.79926 20.763 3.2466 19.2103 3.04567 16.306C3.01827 16.0868 3 15.8767 3 15.6575V13.8765C3 12.0407 4.11426 10.4606 5.70346 9.77563C6.25146 9.53817 6.83599 9.41943 7.45706 9.41943H16.3712C16.8187 9.41943 17.248 9.48337 17.659 9.6021C19.4856 10.1592 20.8282 11.858 20.8282 13.8765Z" fill="#FFC600"/>
<path d="M14.197 16.205H9.63031C9.25585 16.205 8.94531 15.8944 8.94531 15.52C8.94531 15.1455 9.25585 14.835 9.63031 14.835H14.197C14.5714 14.835 14.882 15.1455 14.882 15.52C14.882 15.8944 14.5714 16.205 14.197 16.205Z" fill="black"/>
</svg>
