<svg width="24" height="24" viewBox="0 0 24 24" fill="none" xmlns="http://www.w3.org/2000/svg">
<path d="M12.1029 7.21713C9.408 7.21713 7.21714 9.40799 7.21714 12.1028V14.4583C7.21714 14.664 7.13486 14.8594 6.99086 15.0034C6.84686 15.1474 6.64114 15.24 6.43543 15.24C4.50171 15.24 3 13.7383 3 11.8971V6.34285C3 4.50171 4.50171 3 6.34286 3H11.8971C13.7383 3 15.24 4.50171 15.24 6.34285V6.40456C15.24 6.61028 15.1577 6.80571 15.0137 6.94971C14.8697 7.09371 14.6331 7.21713 14.4274 7.21713H12.1029Z" fill="black"/>
<path d="M17.3571 8.35986H11.8028C9.96168 8.35986 8.45996 9.86158 8.45996 11.7027V17.257C8.45996 19.0981 9.96168 20.5998 11.8028 20.5998H17.3571C19.1982 20.5998 20.7 19.0981 20.7 17.257V11.7027C20.7 9.86158 19.1982 8.35986 17.3571 8.35986Z" fill="#FFC600"/>
<path d="M15.4692 18.3457C15.6783 18.5293 15.9968 18.5091 16.1807 18.3002L17.2347 17.1015C17.3332 16.9919 17.384 16.8525 17.384 16.7128C17.384 16.5731 17.3324 16.4344 17.234 16.3248L17.2347 16.3241L16.1807 15.1253C15.9968 14.9165 15.6783 14.8963 15.4692 15.0799C15.2601 15.2638 15.2391 15.583 15.423 15.7921L15.789 16.2081L12.7869 16.2081C12.5083 16.2081 12.2822 16.4343 12.2822 16.7128C12.2822 16.9913 12.5083 17.2174 12.7869 17.2174L15.789 17.2174L15.423 17.6334C15.239 17.8426 15.2601 18.1617 15.4692 18.3457Z" fill="black"/>
<path d="M14.1877 10.756C13.9786 10.5721 13.6594 10.5925 13.4755 10.8015L12.4215 12.0002L12.4222 12.0002C12.3235 12.1099 12.2722 12.2491 12.2722 12.3889C12.2722 12.5286 12.3238 12.6673 12.4222 12.7769L12.4215 12.7777L13.4755 13.9764C13.6594 14.1854 13.9786 14.2058 14.1877 14.0218C14.3968 13.8379 14.4171 13.5187 14.2332 13.3096L13.8672 12.8936L16.6663 12.8936C16.9448 12.8936 17.1709 12.6675 17.1709 12.3889C17.1709 12.1104 16.9448 11.8843 16.6663 11.8843L13.8672 11.8843L14.2332 11.4683C14.4171 11.2592 14.3968 10.94 14.1877 10.756Z" fill="white"/>
</svg>
