<svg width="24" height="24" viewBox="0 0 24 24" fill="none" xmlns="http://www.w3.org/2000/svg">
<path d="M12.5371 3.25C13.7237 3.25 14.6854 4.21186 14.6855 5.39844C14.6855 6.19563 15.5488 6.69411 16.2393 6.2959C17.2669 5.70258 18.5814 6.05445 19.1748 7.08203L19.7119 8.0127C20.3053 9.04041 19.9535 10.3549 18.9258 10.9482C18.2353 11.3469 18.2353 12.3435 18.9258 12.7422C19.9533 13.3356 20.3051 14.6491 19.7119 15.6768L19.1748 16.6074C18.5815 17.635 17.2679 17.9867 16.2402 17.3936C15.5497 16.9949 14.6855 17.4936 14.6855 18.291C14.6855 19.4777 13.7238 20.4395 12.5371 20.4395H11.4629C10.2762 20.4394 9.31448 19.4777 9.31445 18.291C9.31445 17.4938 8.45118 16.9952 7.76074 17.3936C6.73303 17.9869 5.41854 17.6351 4.8252 16.6074L4.28809 15.6768C3.69494 14.6491 4.04757 13.3355 5.0752 12.7422C5.76533 12.3435 5.76511 11.3471 5.0752 10.9482C4.04753 10.3549 3.69485 9.04039 4.28809 8.0127L4.8252 7.08203C5.41855 6.05433 6.73303 5.70255 7.76074 6.2959C8.45119 6.69436 9.31445 6.19566 9.31445 5.39844C9.3146 4.21187 10.2763 3.25001 11.4629 3.25H12.5371Z" fill="#FFC600"/>
<circle cx="12" cy="12" r="2" fill="black"/>
</svg>
