<svg width="24" height="24" viewBox="0 0 24 24" fill="none" xmlns="http://www.w3.org/2000/svg">
<rect x="2" y="2" width="18" height="18" rx="4" fill="#FFC600"/>
<path d="M6.0498 14.5395V12.8498C6.0498 12.6165 6.23893 12.4274 6.47222 12.4274C6.70552 12.4274 6.89464 12.6165 6.89464 12.8498V14.5395C6.89464 14.9283 7.20984 15.2435 7.59867 15.2435H9.28834C9.52163 15.2435 9.71076 15.4326 9.71076 15.6659C9.71076 15.8992 9.52163 16.0883 9.28834 16.0883H7.59867C6.74325 16.0883 6.0498 15.3949 6.0498 14.5395ZM15.0614 14.5395V12.8498C15.0614 12.6165 15.2505 12.4274 15.4838 12.4274C15.7171 12.4274 15.9062 12.6165 15.9062 12.8498V14.5395C15.9062 15.3949 15.2128 16.0883 14.3574 16.0883H12.6677C12.4344 16.0883 12.2453 15.8992 12.2453 15.6659C12.2453 15.4326 12.4344 15.2435 12.6677 15.2435H14.3574C14.7462 15.2435 15.0614 14.9283 15.0614 14.5395ZM6.0498 9.47047V7.7808C6.0498 6.92538 6.74325 6.23193 7.59867 6.23193H9.28834C9.52163 6.23193 9.71076 6.42106 9.71076 6.65435C9.71076 6.88765 9.52163 7.07677 9.28834 7.07677H7.59867C7.20984 7.07677 6.89464 7.39197 6.89464 7.7808V9.47047C6.89464 9.70376 6.70552 9.89289 6.47222 9.89289C6.23893 9.89289 6.0498 9.70376 6.0498 9.47047ZM15.0614 9.47047V7.7808C15.0614 7.39197 14.7462 7.07677 14.3574 7.07677H12.6677C12.4344 7.07677 12.2453 6.88765 12.2453 6.65435C12.2453 6.42106 12.4344 6.23193 12.6677 6.23193H14.3574C15.2128 6.23193 15.9062 6.92538 15.9062 7.7808V9.47047C15.9062 9.70376 15.7171 9.89289 15.4838 9.89289C15.2505 9.89289 15.0614 9.70376 15.0614 9.47047Z" fill="black"/>
<path d="M5.90929 10.7378L16.0473 10.7378C16.2806 10.7378 16.4697 10.9269 16.4697 11.1602C16.4697 11.3935 16.2806 11.5826 16.0473 11.5826L5.90929 11.5826C5.67599 11.5826 5.48687 11.3935 5.48687 11.1602C5.48687 10.9269 5.67599 10.7378 5.90929 10.7378Z" fill="white"/>
<circle cx="4.55627" cy="4.55627" r="5.05627" transform="matrix(-1 0 0 1 22.0029 12.8899)" fill="black" stroke="white"/>
<path d="M18.7555 16.4362C18.326 16.4362 17.9778 16.0971 17.9778 15.6788C17.9778 15.2605 18.326 14.9214 18.7555 14.9214C19.185 14.9214 19.5332 15.2605 19.5332 15.6788C19.5332 16.0971 19.185 16.4362 18.7555 16.4362Z" fill="#FFC600"/>
<path d="M18.3154 15.6792C18.3154 15.4556 18.5043 15.2593 18.7559 15.2593C19.0073 15.2595 19.1953 15.4557 19.1953 15.6792C19.1951 15.9025 19.0071 16.0989 18.7559 16.0991C18.5044 16.0991 18.3156 15.9026 18.3154 15.6792ZM17.6406 15.6792C17.6408 16.2921 18.1485 16.7739 18.7559 16.7739C19.363 16.7737 19.8709 16.292 19.8711 15.6792C19.8711 15.0663 19.3632 14.5837 18.7559 14.5835C18.1484 14.5835 17.6406 15.0661 17.6406 15.6792Z" fill="black"/>
<path d="M18.3154 15.6792C18.3154 15.4556 18.5043 15.2593 18.7559 15.2593C19.0073 15.2595 19.1953 15.4557 19.1953 15.6792C19.1951 15.9025 19.0071 16.0989 18.7559 16.0991C18.5044 16.0991 18.3156 15.9026 18.3154 15.6792ZM17.6406 15.6792C17.6408 16.2921 18.1485 16.7739 18.7559 16.7739C19.363 16.7737 19.8709 16.292 19.8711 15.6792C19.8711 15.0663 19.3632 14.5837 18.7559 14.5835C18.1484 14.5835 17.6406 15.0661 17.6406 15.6792Z" fill="#FFC600"/>
<path d="M15.5416 18.1784C15.1121 18.1784 14.7639 17.8393 14.7639 17.421C14.7639 17.0027 15.1121 16.6636 15.5416 16.6636C15.9711 16.6636 16.3193 17.0027 16.3193 17.421C16.3193 17.8393 15.9711 18.1784 15.5416 18.1784Z" fill="#FFC600"/>
<path d="M15.1016 17.4214C15.1016 17.1978 15.2904 17.0015 15.542 17.0015C15.7934 17.0017 15.9814 17.1979 15.9814 17.4214C15.9812 17.6447 15.7932 17.8411 15.542 17.8413C15.2906 17.8413 15.1018 17.6448 15.1016 17.4214ZM14.4268 17.4214C14.427 18.0343 14.9347 18.5161 15.542 18.5161C16.1492 18.5159 16.657 18.0341 16.6572 17.4214C16.6572 16.8084 16.1493 16.3259 15.542 16.3257C14.9345 16.3257 14.4268 16.8083 14.4268 17.4214Z" fill="black"/>
<path d="M15.1016 17.4214C15.1016 17.1978 15.2904 17.0015 15.542 17.0015C15.7934 17.0017 15.9814 17.1979 15.9814 17.4214C15.9812 17.6447 15.7932 17.8411 15.542 17.8413C15.2906 17.8413 15.1018 17.6448 15.1016 17.4214ZM14.4268 17.4214C14.427 18.0343 14.9347 18.5161 15.542 18.5161C16.1492 18.5159 16.657 18.0341 16.6572 17.4214C16.6572 16.8084 16.1493 16.3259 15.542 16.3257C14.9345 16.3257 14.4268 16.8083 14.4268 17.4214Z" fill="#FFC600"/>
<path d="M18.7555 19.9709C18.326 19.9709 17.9778 19.6318 17.9778 19.2135C17.9778 18.7952 18.326 18.4561 18.7555 18.4561C19.185 18.4561 19.5332 18.7952 19.5332 19.2135C19.5332 19.6318 19.185 19.9709 18.7555 19.9709Z" fill="#FFC600"/>
<path d="M18.3154 19.2139C18.3154 18.9903 18.5043 18.7939 18.7559 18.7939C19.0073 18.7941 19.1953 18.9904 19.1953 19.2139C19.1951 19.4372 19.0071 19.6336 18.7559 19.6338C18.5044 19.6338 18.3156 19.4373 18.3154 19.2139ZM17.6406 19.2139C17.6408 19.8267 18.1485 20.3086 18.7559 20.3086C19.363 20.3084 19.8709 19.8266 19.8711 19.2139C19.8711 18.6009 19.3632 18.1184 18.7559 18.1182C18.1484 18.1182 17.6406 18.6008 17.6406 19.2139Z" fill="black"/>
<path d="M18.3154 19.2139C18.3154 18.9903 18.5043 18.7939 18.7559 18.7939C19.0073 18.7941 19.1953 18.9904 19.1953 19.2139C19.1951 19.4372 19.0071 19.6336 18.7559 19.6338C18.5044 19.6338 18.3156 19.4373 18.3154 19.2139ZM17.6406 19.2139C17.6408 19.8267 18.1485 20.3086 18.7559 20.3086C19.363 20.3084 19.8709 19.8266 19.8711 19.2139C19.8711 18.6009 19.3632 18.1184 18.7559 18.1182C18.1484 18.1182 17.6406 18.6008 17.6406 19.2139Z" fill="#FFC600"/>
<path d="M17.8955 15.7544L16.0967 16.7485L15.8008 16.9116L16.127 17.5024L16.4229 17.3394L18.2217 16.3442L18.5176 16.1812L18.1904 15.5903L17.8955 15.7544Z" fill="black"/>
<path d="M17.8955 15.7544L16.0967 16.7485L15.8008 16.9116L16.127 17.5024L16.4229 17.3394L18.2217 16.3442L18.5176 16.1812L18.1904 15.5903L17.8955 15.7544Z" fill="#FFC600"/>
<path d="M15.7812 17.9258L18.2148 19.2676L18.541 18.6768L16.1074 17.334L15.7812 17.9258Z" fill="black"/>
<path d="M15.7812 17.9258L18.2148 19.2676L18.541 18.6768L16.1074 17.334L15.7812 17.9258Z" fill="#FFC600"/>
</svg>
