<svg width="24" height="24" viewBox="0 0 24 24" fill="none" xmlns="http://www.w3.org/2000/svg">
<path d="M16.3806 18.1075C15.6255 18.7983 14.0659 18.7014 12.2587 18.5984C11.5532 18.5499 10.7981 18.5014 9.99354 18.5014C9.18897 18.5014 8.43392 18.5499 7.72837 18.5984C5.91501 18.6953 4.35539 18.7983 3.60652 18.1075C3.20424 17.7136 3 17.0712 3 16.0895C3 13.1382 4.91239 10.5262 7.72219 9.58691C8.39678 9.97476 9.16422 10.1869 9.96259 10.2111H9.98735C10.8229 10.2111 11.6089 9.98688 12.2773 9.59297C15.1242 10.5384 16.9747 13.1382 16.9747 16.0834C16.9871 17.0712 16.7828 17.7136 16.3806 18.1075Z" fill="#FFC600"/>
<path d="M5.79492 7.14104C5.79492 5.05397 7.497 3.29785 9.63811 3.29785C11.7252 3.29785 13.4813 4.99993 13.4813 7.14104C13.4813 9.22811 11.7792 10.9842 9.63811 10.9842C7.497 10.9302 5.79492 9.22811 5.79492 7.14104Z" fill="#FFC600"/>
<circle cx="4.55627" cy="4.55627" r="4.55627" transform="matrix(-1 0 0 1 21 11.5898)" fill="black"/>
<path d="M17.7526 15.1364C17.3231 15.1364 16.9749 14.7973 16.9749 14.379C16.9749 13.9607 17.3231 13.6216 17.7526 13.6216C18.1821 13.6216 18.5303 13.9607 18.5303 14.379C18.5303 14.7973 18.1821 15.1364 17.7526 15.1364Z" fill="#FFC600"/>
<path d="M17.3125 14.3794C17.3125 14.1558 17.5014 13.9595 17.7529 13.9595C18.0043 13.9597 18.1924 14.1559 18.1924 14.3794C18.1922 14.6027 18.0042 14.7991 17.7529 14.7993C17.5015 14.7993 17.3127 14.6028 17.3125 14.3794ZM16.6377 14.3794C16.6379 14.9923 17.1456 15.4741 17.7529 15.4741C18.3601 15.4739 18.868 14.9922 18.8682 14.3794C18.8682 13.7665 18.3602 13.2839 17.7529 13.2837C17.1455 13.2837 16.6377 13.7663 16.6377 14.3794Z" fill="black"/>
<path d="M17.3125 14.3794C17.3125 14.1558 17.5014 13.9595 17.7529 13.9595C18.0043 13.9597 18.1924 14.1559 18.1924 14.3794C18.1922 14.6027 18.0042 14.7991 17.7529 14.7993C17.5015 14.7993 17.3127 14.6028 17.3125 14.3794ZM16.6377 14.3794C16.6379 14.9923 17.1456 15.4741 17.7529 15.4741C18.3601 15.4739 18.868 14.9922 18.8682 14.3794C18.8682 13.7665 18.3602 13.2839 17.7529 13.2837C17.1455 13.2837 16.6377 13.7663 16.6377 14.3794Z" fill="#FFC600"/>
<path d="M14.5387 16.8786C14.1092 16.8786 13.761 16.5395 13.761 16.1212C13.761 15.7029 14.1092 15.3638 14.5387 15.3638C14.9682 15.3638 15.3164 15.7029 15.3164 16.1212C15.3164 16.5395 14.9682 16.8786 14.5387 16.8786Z" fill="#FFC600"/>
<path d="M14.0986 16.1216C14.0986 15.898 14.2875 15.7017 14.5391 15.7017C14.7905 15.7018 14.9785 15.8981 14.9785 16.1216C14.9783 16.3449 14.7903 16.5413 14.5391 16.5415C14.2876 16.5415 14.0988 16.345 14.0986 16.1216ZM13.4238 16.1216C13.424 16.7345 13.9317 17.2163 14.5391 17.2163C15.1462 17.2161 15.6541 16.7343 15.6543 16.1216C15.6543 15.5086 15.1464 15.0261 14.5391 15.0259C13.9316 15.0259 13.4238 15.5085 13.4238 16.1216Z" fill="black"/>
<path d="M14.0986 16.1216C14.0986 15.898 14.2875 15.7017 14.5391 15.7017C14.7905 15.7018 14.9785 15.8981 14.9785 16.1216C14.9783 16.3449 14.7903 16.5413 14.5391 16.5415C14.2876 16.5415 14.0988 16.345 14.0986 16.1216ZM13.4238 16.1216C13.424 16.7345 13.9317 17.2163 14.5391 17.2163C15.1462 17.2161 15.6541 16.7343 15.6543 16.1216C15.6543 15.5086 15.1464 15.0261 14.5391 15.0259C13.9316 15.0259 13.4238 15.5085 13.4238 16.1216Z" fill="#FFC600"/>
<path d="M17.7526 18.6706C17.3231 18.6706 16.9749 18.3315 16.9749 17.9132C16.9749 17.4949 17.3231 17.1558 17.7526 17.1558C18.1821 17.1558 18.5303 17.4949 18.5303 17.9132C18.5303 18.3315 18.1821 18.6706 17.7526 18.6706Z" fill="#FFC600"/>
<path d="M17.3125 17.9136C17.3125 17.69 17.5014 17.4937 17.7529 17.4937C18.0043 17.4938 18.1924 17.6901 18.1924 17.9136C18.1922 18.1369 18.0042 18.3333 17.7529 18.3335C17.5015 18.3335 17.3127 18.137 17.3125 17.9136ZM16.6377 17.9136C16.6379 18.5265 17.1456 19.0083 17.7529 19.0083C18.3601 19.0081 18.868 18.5263 18.8682 17.9136C18.8682 17.3006 18.3602 16.8181 17.7529 16.8179C17.1455 16.8179 16.6377 17.3005 16.6377 17.9136Z" fill="black"/>
<path d="M17.3125 17.9136C17.3125 17.69 17.5014 17.4937 17.7529 17.4937C18.0043 17.4938 18.1924 17.6901 18.1924 17.9136C18.1922 18.1369 18.0042 18.3333 17.7529 18.3335C17.5015 18.3335 17.3127 18.137 17.3125 17.9136ZM16.6377 17.9136C16.6379 18.5265 17.1456 19.0083 17.7529 19.0083C18.3601 19.0081 18.868 18.5263 18.8682 17.9136C18.8682 17.3006 18.3602 16.8181 17.7529 16.8179C17.1455 16.8179 16.6377 17.3005 16.6377 17.9136Z" fill="#FFC600"/>
<path d="M16.8926 14.4541L15.0938 15.4482L14.7979 15.6113L15.124 16.2021L15.4199 16.0391L17.2188 15.0439L17.5146 14.8809L17.1875 14.29L16.8926 14.4541Z" fill="black"/>
<path d="M16.8926 14.4541L15.0938 15.4482L14.7979 15.6113L15.124 16.2021L15.4199 16.0391L17.2188 15.0439L17.5146 14.8809L17.1875 14.29L16.8926 14.4541Z" fill="#FFC600"/>
<path d="M14.7783 16.6255L17.2119 17.9673L17.5381 17.3765L15.1045 16.0337L14.7783 16.6255Z" fill="black"/>
<path d="M14.7783 16.6255L17.2119 17.9673L17.5381 17.3765L15.1045 16.0337L14.7783 16.6255Z" fill="#FFC600"/>
</svg>
