<svg width="24" height="24" viewBox="0 0 24 24" fill="none" xmlns="http://www.w3.org/2000/svg">
<path d="M11.85 5.48737L11.85 13.4072C11.85 13.8582 11.5979 14.2695 11.2 14.4751C10.802 14.6807 10.3244 14.6475 9.95296 14.3889L7.45232 12.6178C7.14057 12.399 6.71606 12.399 6.39768 12.6178L3.89704 14.3889C3.69141 14.5348 3.44599 14.6077 3.20057 14.6077C3.01485 14.6077 2.82249 14.5613 2.65003 14.4751C2.25205 14.2695 2 13.8582 2 13.4072L2 5.48737C2 4.11434 3.11434 3 4.48737 3L9.36263 3C10.7357 3 11.85 4.11434 11.85 5.48737Z" fill="black"/>
<path d="M12.9996 18.5126L12.9996 10.5928C12.9996 10.1418 13.2517 9.73054 13.6496 9.52492C14.0476 9.31929 14.5252 9.35246 14.8966 9.61115L17.3973 11.3822C17.709 11.601 18.1336 11.601 18.4519 11.3822L20.9526 9.61115C21.1582 9.46522 21.4036 9.39226 21.649 9.39226C21.8348 9.39226 22.0271 9.43869 22.1996 9.52492C22.5976 9.73054 22.8496 10.1418 22.8496 10.5928L22.8496 18.5126C22.8496 19.8857 21.7353 21 20.3622 21L15.487 21C14.114 21 12.9996 19.8857 12.9996 18.5126Z" fill="#FFC600"/>
</svg>
