<svg width="24" height="24" viewBox="0 0 24 24" fill="none" xmlns="http://www.w3.org/2000/svg">
<path d="M13.4777 10.548H18.9497L12.7393 4.43164V9.82073C12.7393 10.0136 12.8171 10.1986 12.9555 10.335C13.094 10.4714 13.2819 10.548 13.4777 10.548Z" fill="black"/>
<path d="M11.2614 9.81818V4H8.30754C7.32828 4 6.38913 4.38312 5.69669 5.06507C5.00424 5.74702 4.61523 6.67194 4.61523 7.63636V16.3636C4.61523 17.3281 5.00424 18.253 5.69669 18.9349C6.38913 19.6169 7.32828 20 8.30754 20H15.6922C16.6714 20 17.6106 19.6169 18.303 18.9349C18.9955 18.253 19.3845 17.3281 19.3845 16.3636V12H13.4768C12.8892 12 12.3257 11.7701 11.9103 11.361C11.4948 10.9518 11.2614 10.3968 11.2614 9.81818Z" fill="#FFC600"/>
</svg>
