<svg width="24" height="24" viewBox="0 0 24 24" fill="none" xmlns="http://www.w3.org/2000/svg">
<path d="M19.9006 20.4159L18.3643 18.8797C18.881 18.2579 19.1873 17.4624 19.1873 16.5937C19.1873 14.6139 17.5779 13 15.5937 13C13.6094 13 12 14.6139 12 16.5937C12 18.5734 13.6139 20.1873 15.5937 20.1873C16.4624 20.1873 17.2579 19.881 17.8797 19.3643L19.4159 20.9006C19.4845 20.9691 19.5714 21.0011 19.6582 21.0011C19.7451 21.0011 19.832 20.9691 19.9006 20.9006C20.0331 20.768 20.0331 20.5485 19.9006 20.4159ZM15.2416 14.8151C14.4506 14.8151 13.8105 15.4552 13.8105 16.2462C13.8105 16.4336 13.6551 16.5891 13.4676 16.5891C13.2802 16.5891 13.1247 16.4336 13.1247 16.2462C13.1247 15.0803 14.0757 14.1293 15.2416 14.1293C15.4291 14.1293 15.5845 14.2848 15.5845 14.4722C15.5845 14.6597 15.4291 14.8151 15.2416 14.8151Z" fill="#131214"/>
<path d="M15 3C16.6569 3 18 4.34315 18 6V12.7578C17.2849 12.2792 16.4251 12 15.5 12C13.0147 12 11 14.0147 11 16.5C11 17.4253 11.28 18.2849 11.7588 19H7C5.34315 19 4 17.6569 4 16V6C4 4.34315 5.34315 3 7 3H15Z" fill="#FFC600"/>
<rect x="6" y="6" width="6" height="1" rx="0.5" fill="white"/>
<rect x="6" y="8" width="9" height="1" rx="0.5" fill="white"/>
</svg>
