<svg width="24" height="24" viewBox="0 0 24 24" fill="none" xmlns="http://www.w3.org/2000/svg">
<path d="M20.7592 19.5857L18.4104 17.2369C19.6614 15.7313 20.4031 13.805 20.4031 11.7016C20.4031 6.90795 16.5062 3 11.7016 3C6.89688 3 3 6.90795 3 11.7016C3 16.4952 6.90795 20.4031 11.7016 20.4031C13.805 20.4031 15.7313 19.6614 17.2369 18.4104L19.5857 20.7592C19.7518 20.9253 19.9621 21.0028 20.1725 21.0028C20.3828 21.0028 20.5932 20.9253 20.7592 20.7592C21.0803 20.4382 21.0803 19.9068 20.7592 19.5857Z" fill="#FFC600"/>
<path d="M12 9L12 15M15 12L9 12" stroke="black" stroke-width="1.5" stroke-linecap="round"/>
</svg>
