<svg width="24" height="24" viewBox="0 0 24 24" fill="none" xmlns="http://www.w3.org/2000/svg">
<path d="M12 21C16.9706 21 21 16.9706 21 12C21 7.02944 16.9706 3 12 3C7.02944 3 3 7.02944 3 12C3 16.9706 7.02944 21 12 21Z" fill="#FFC600"/>
<path d="M16.6162 6.00087L16.6162 8.30811L14.309 8.30811" stroke="black" stroke-linecap="round" stroke-linejoin="round"/>
<path d="M6.1046 13.103C5.53056 10.0501 7.39878 7.0235 10.449 6.20628C12.7835 5.58074 15.1655 6.42215 16.6162 8.1655" stroke="black" stroke-linecap="round" stroke-linejoin="round"/>
<path d="M17.8957 10.8944C18.4698 13.9473 16.6015 16.9739 13.5513 17.7912C11.217 18.4167 8.83513 17.5754 7.38433 15.8323" stroke="black" stroke-linecap="round" stroke-linejoin="round"/>
<path d="M7.38413 17.9966L7.38413 15.6893L9.69141 15.6893" stroke="black" stroke-linecap="round" stroke-linejoin="round"/>
</svg>
