<svg width="24" height="24" viewBox="0 0 24 24" fill="none" xmlns="http://www.w3.org/2000/svg">
<g clip-path="url(#clip0_31884_3943)">
<path d="M17.7259 10.3688C18.7485 10.3688 19.5817 11.2066 19.5817 12.235C19.5817 13.2633 18.7485 14.1012 17.7259 14.1012H6.34884C5.32627 14.1012 4.49306 13.2633 4.49306 12.235C4.49306 11.2066 5.32627 10.3688 6.34884 10.3688H17.7259ZM17.7259 9.89648H6.34884C5.06873 9.89648 4.02344 10.9477 4.02344 12.235C4.02344 13.5223 5.06873 14.5734 6.34884 14.5734H17.7183C18.9984 14.5734 20.0437 13.5223 20.0437 12.235C20.0513 10.9477 19.006 9.89648 17.7259 9.89648Z" fill="#FFC600"/>
<path d="M16.2187 14.1006H6.34894C5.32637 14.1006 4.49316 13.2627 4.49316 12.2344C4.49316 11.2061 5.32637 10.3682 6.34894 10.3682H16.2187C17.2412 10.3682 18.0744 11.2061 18.0744 12.2344C18.0744 13.2627 17.2412 14.1006 16.2187 14.1006Z" fill="#FFC600"/>
<path d="M7.74166 11.785H7.19629V11.2061H8.90815V11.785H8.36278V13.2475H7.74166V11.785Z" fill="black"/>
<path d="M9.07398 11.2061H9.98293C10.3086 11.2061 10.5207 11.2975 10.6495 11.4422C10.7631 11.5641 10.8161 11.7164 10.8161 11.9297V11.9373C10.8161 12.2344 10.6722 12.44 10.4526 12.5619L10.8843 13.2551H10.1723L9.82387 12.6686H9.68752V13.2551H9.06641V11.2061H9.07398ZM9.96779 12.1811C10.1193 12.1811 10.2102 12.1049 10.2102 11.983V11.9754C10.2102 11.8459 10.1193 11.7773 9.97536 11.7773H9.70267V12.1811H9.96779Z" fill="black"/>
<path d="M11.727 11.1909H12.3405L13.1207 13.2476H12.4466L12.3481 12.9733H11.6967L11.5982 13.2476H10.9316L11.727 11.1909ZM12.1966 12.4935L12.03 11.9983L11.8633 12.4935H12.1966Z" fill="black"/>
<path d="M13.0283 12.2347C13.0283 11.6177 13.4601 11.1606 14.013 11.1606C14.422 11.1606 14.6947 11.3815 14.8538 11.6938L14.3387 12.0214C14.2706 11.8767 14.1721 11.77 14.0054 11.77C13.7934 11.77 13.657 11.9681 13.657 12.2194V12.2271C13.657 12.4937 13.8009 12.6765 14.0054 12.6765C14.1797 12.6765 14.2781 12.5698 14.3539 12.4175L14.869 12.7374C14.7099 13.0421 14.4523 13.2858 13.9903 13.2858C13.4752 13.3011 13.0283 12.8745 13.0283 12.2347Z" fill="black"/>
<path d="M15.0439 11.2061H15.6651V11.9678L16.1953 11.2061H16.9149L16.271 12.0973L16.93 13.2551H16.1877L15.8241 12.6076L15.6651 12.8209V13.2551H15.0439V11.2061Z" fill="black"/>
<path d="M4.04004 15.4107H5.8428L6.56996 18.1377L7.40317 15.3955H8.88779L9.721 18.1377L10.4482 15.4107H12.2206L10.5315 21.1236H9.03928L8.13033 18.3053L7.22138 21.1236H5.72918L4.04004 15.4107Z" fill="black"/>
<path d="M12.6299 15.4111H14.3493V21.0859H12.6299V15.4111Z" fill="black"/>
<path d="M14.8945 15.4111H16.5079L18.341 17.9172V15.4111H20.0528V21.0859H18.5228L16.6064 18.4656V21.0859H14.8945V15.4111Z" fill="black"/>
<path d="M5.64586 4.75401H4.04004V3.06299H9.06958V4.76162H7.46376V9.06534H5.64586V4.75401Z" fill="black"/>
<path d="M10.675 3.01758H12.4777L14.7804 9.05802H12.8035L12.5156 8.2506H10.6068L10.3266 9.05802H8.37988L10.675 3.01758ZM12.0611 6.8338L11.5612 5.37891L11.0689 6.8338H12.0611Z" fill="black"/>
<path d="M15.1602 3.06299H17.6143C19.0611 3.06299 20.0534 3.77139 20.0534 5.1958V5.21104C20.0534 6.65831 19.0459 7.42764 17.5765 7.42764H16.9856V9.05773H15.1677V3.06299H15.1602ZM17.478 5.99561C17.9476 5.99561 18.2582 5.76709 18.2582 5.33291V5.31768C18.2582 4.8835 17.9703 4.65498 17.4856 4.65498H16.9856V5.98799H17.478V5.99561Z" fill="black"/>
</g>
<defs>
<clipPath id="clip0_31884_3943">
<rect width="16.1487" height="18.1061" fill="white" transform="translate(4.02344 3.01758)"/>
</clipPath>
</defs>
</svg>
