<svg width="24" height="24" viewBox="0 0 24 24" fill="none" xmlns="http://www.w3.org/2000/svg">
<path d="M11.7934 4.0773C18.138 3.8264 22.2289 10.8929 18.862 16.3027C15.8488 21.1443 8.86185 21.3629 5.5572 16.7109C1.86217 11.5097 5.47095 4.32729 11.7934 4.0773ZM15.5701 9.08664C15.4267 9.11073 15.241 9.23345 15.1357 9.33299C13.9954 10.4129 12.905 11.7097 11.8011 12.846C11.7339 12.9151 11.3381 13.326 11.2995 13.336C11.2709 13.3437 11.2464 13.3415 11.2219 13.3237C10.5777 12.7997 9.94947 12.2511 9.29671 11.7383C9.12967 11.607 8.86911 11.3647 8.68617 11.2929C7.94626 11.002 7.33572 11.9188 7.91811 12.5056C8.9263 13.1951 9.86686 14.2378 10.8696 14.9023C11.4924 15.315 11.7875 14.9446 12.2096 14.5169C13.5855 13.1237 14.8928 11.6574 16.2678 10.2625C16.689 9.72434 16.2387 8.97528 15.5701 9.08709V9.08664Z" fill="#FFC600"/>
<path d="M16.1861 8.18386C16.9508 8.05407 17.4657 8.9271 16.984 9.55379C15.4117 11.1796 13.9167 12.8886 12.3434 14.5123C11.8606 15.0108 11.5232 15.4425 10.811 14.9615C9.66438 14.187 8.58936 12.9717 7.43595 12.1681C6.77049 11.4842 7.46814 10.4157 8.31424 10.7547C8.52343 10.8384 8.82139 11.1208 9.01241 11.2739C9.75885 11.8715 10.4773 12.5114 11.2138 13.1217C11.2419 13.1423 11.2699 13.1444 11.3026 13.136C11.3462 13.1243 11.7994 12.6459 11.8762 12.5649C13.1386 11.24 14.3854 9.72914 15.6894 8.47045C15.8098 8.35444 16.0226 8.2114 16.1861 8.18333V8.18386Z" fill="black"/>
</svg>
