<svg width="24" height="24" viewBox="0 0 24 24" fill="none" xmlns="http://www.w3.org/2000/svg">
<rect x="3" y="3" width="10" height="10" rx="5" fill="black"/>
<path d="M8.24023 5.62494C8.44758 5.44256 8.76391 5.46252 8.94629 5.66986L10.4023 7.32514L10.4004 7.32611C10.504 7.44063 10.5585 7.58514 10.5586 7.73139C10.5586 7.87779 10.5031 8.02204 10.3994 8.13666L10.4023 8.13861L8.94629 9.79389C8.76391 10.0012 8.44758 10.0212 8.24023 9.83881C8.03315 9.65645 8.01316 9.341 8.19531 9.13373L8.98926 8.23139H6C5.72386 8.23139 5.5 8.00753 5.5 7.73139C5.5002 7.45542 5.72398 7.23139 6 7.23139H8.98828L8.19531 6.33002C8.01308 6.12279 8.03321 5.80735 8.24023 5.62494Z" fill="white"/>
<rect x="11" y="11" width="10" height="10" rx="5" fill="#FFC600"/>
<path d="M15.0547 13.6823C15.2371 13.4755 15.5526 13.4552 15.7598 13.6374C15.9669 13.8197 15.9866 14.1352 15.8047 14.3425L15.0117 15.2439H18C18.2757 15.244 18.4996 15.4682 18.5 15.7439C18.5 16.0199 18.276 16.2437 18 16.2439H15.0107L15.8047 17.1462C15.9869 17.3534 15.9667 17.6688 15.7598 17.8513C15.5525 18.0336 15.2371 18.0135 15.0547 17.8064L13.5986 16.1511L13.6006 16.1491C13.497 16.0345 13.4414 15.8902 13.4414 15.7439C13.4416 15.5976 13.4969 15.453 13.6006 15.3386L13.5986 15.3376L15.0547 13.6823Z" fill="black"/>
</svg>
