<svg width="24" height="24" viewBox="0 0 24 24" fill="none" xmlns="http://www.w3.org/2000/svg">
<path d="M6.62664 18.3556L7.82504 20.8015C8.04656 21.2536 8.70161 21.2209 8.87693 20.7489L9.20253 19.8724C9.23834 19.776 9.24756 19.6718 9.22921 19.5706L8.89024 17.7011C8.83101 17.3745 8.50748 17.1663 8.18564 17.2478L7.00062 17.5479C6.64771 17.6372 6.46647 18.0287 6.62664 18.3556Z" fill="#FFC600"/>
<path d="M5.62547 17.3561L3.16251 16.1438C2.71069 15.9214 2.74478 15.2662 3.21725 15.0919L4.09592 14.7678C4.19249 14.7322 4.29687 14.7232 4.3981 14.7418L6.28033 15.0885C6.60563 15.1485 6.81281 15.4705 6.73246 15.7914L6.43451 16.9812C6.34582 17.3353 5.95302 17.5174 5.62547 17.3561Z" fill="#FFC600"/>
<rect x="7.41211" y="15.729" width="1.16695" height="3.72738" rx="0.583474" transform="rotate(45 7.41211 15.729)" fill="#FFC600"/>
<path d="M11.0584 11.2197L3.39617 6.31306C2.99714 6.05753 3.06293 5.45569 3.50774 5.29241L4.66497 4.8676C4.79366 4.82036 4.93502 4.82081 5.0634 4.86888L13.6757 8.09303C14.0662 8.23922 14.1749 8.74018 13.88 9.03502L11.7727 11.1423C11.5824 11.3327 11.2852 11.3649 11.0584 11.2197Z" fill="#FFC600"/>
<path d="M15.8467 5.46484C16.4586 4.85134 17.316 4.54648 18.1777 4.6377L18.5732 4.67969C18.845 4.70848 19.059 4.92625 19.084 5.19824L19.1182 5.57715C19.1941 6.42157 18.8915 7.25693 18.293 7.85742L9.15723 17.0205C8.69547 17.4836 8.08859 17.7747 7.43848 17.8457L7.25488 17.8662C6.56475 17.9416 5.96633 17.3903 5.98438 16.6963L5.99023 16.4609C6.00949 15.7287 6.30899 15.0304 6.82617 14.5117L15.8467 5.46484ZM16.7891 5.85742C16.6311 5.85322 16.4998 5.97891 16.4951 6.13672C16.4909 6.29489 16.6153 6.42736 16.7734 6.43164C16.923 6.43564 17.129 6.47576 17.2852 6.58496C17.423 6.68146 17.5469 6.84771 17.5361 7.17676C17.5311 7.33454 17.6548 7.46702 17.8125 7.47266C17.9707 7.47796 18.1041 7.35349 18.1094 7.19531C18.1265 6.6751 17.9117 6.32521 17.6133 6.11621C17.3329 5.92014 17.0036 5.86318 16.7891 5.85742Z" fill="#FFC600"/>
<rect x="12.9785" y="15.293" width="5.41911" height="2.29256" rx="0.573113" transform="rotate(-36.4288 12.9785 15.293)" fill="#FFC600"/>
<rect x="6.43164" y="9.39697" width="5.41911" height="2.29256" rx="0.573113" transform="rotate(-53.9188 6.43164 9.39697)" fill="#FFC600"/>
<path d="M16.8052 20.3059L17.6863 19.6789C18.8128 18.8765 19.6846 17.7571 20.1951 16.4579C20.7056 15.1588 20.8324 13.7363 20.5601 12.3648C20.5467 12.2972 20.5181 12.2337 20.4767 12.1792C20.4352 12.1246 20.382 12.0805 20.3211 12.0502L16.2001 10L12.0796 12.0502C12.0186 12.0804 11.9653 12.1245 11.9237 12.1791C11.8822 12.2336 11.8536 12.2972 11.8401 12.3648C11.5678 13.7363 11.6948 15.1588 12.2053 16.458C12.7159 17.7572 13.5879 18.8765 14.7144 19.6789L15.5955 20.3059C15.7728 20.4321 15.984 20.4998 16.2004 20.4998C16.4168 20.4998 16.6279 20.4321 16.8052 20.3059Z" fill="black"/>
<path d="M16.9302 15.7821C16.9302 15.692 16.9116 15.6361 16.8942 15.6024C16.8767 15.5684 16.8524 15.5416 16.8215 15.5193C16.7512 15.4686 16.6538 15.4474 16.5954 15.4474H15.8523C15.6631 15.4473 15.3884 15.3942 15.1492 15.222C14.8891 15.0347 14.7002 14.7258 14.7002 14.2952C14.7002 13.8647 14.8891 13.5565 15.1492 13.3692C15.3885 13.1969 15.663 13.1431 15.8523 13.1431H17.1156C17.3415 13.1431 17.5246 13.3262 17.5246 13.5522C17.5246 13.7781 17.3415 13.9612 17.1156 13.9612H15.8523C15.7939 13.9613 15.6973 13.9825 15.627 14.0331C15.596 14.0555 15.5719 14.0822 15.5543 14.1162C15.5369 14.15 15.5184 14.2052 15.5184 14.2952C15.5184 14.3855 15.5369 14.4412 15.5543 14.475C15.5719 14.5089 15.596 14.5358 15.627 14.5581C15.6973 14.6087 15.7939 14.6292 15.8523 14.6292H16.5954C16.7847 14.6292 17.06 14.683 17.2993 14.8553C17.5594 15.0426 17.7484 15.3516 17.7484 15.7821C17.7482 16.2125 17.5593 16.5209 17.2993 16.7082C17.06 16.8805 16.7847 16.9343 16.5954 16.9343H15.2579C15.0321 16.9343 14.8489 16.751 14.8488 16.5252C14.8488 16.2993 15.032 16.1161 15.2579 16.1161H16.5954C16.6538 16.1161 16.7512 16.0949 16.8215 16.0442C16.8524 16.0219 16.8767 15.9951 16.8942 15.9611C16.9116 15.9274 16.9301 15.8721 16.9302 15.7821Z" fill="#FFC600"/>
<path d="M15.8154 13.5521V12.809C15.8154 12.5831 15.9986 12.3999 16.2245 12.3999C16.4504 12.3999 16.6336 12.5831 16.6336 12.809V13.5521C16.6336 13.778 16.4504 13.9611 16.2245 13.9611C15.9986 13.9611 15.8154 13.778 15.8154 13.5521Z" fill="#FFC600"/>
<path d="M15.8154 17.2679V16.5248C15.8154 16.2989 15.9986 16.1157 16.2245 16.1157C16.4504 16.1157 16.6336 16.2989 16.6336 16.5248V17.2679C16.6336 17.4938 16.4504 17.677 16.2245 17.677C15.9986 17.677 15.8154 17.4938 15.8154 17.2679Z" fill="#FFC600"/>
</svg>
