<svg width="40" height="40" viewBox="0 0 40 40" fill="none" xmlns="http://www.w3.org/2000/svg">
<g clip-path="url(#clip0_382_3172)">
<path d="M13.26 7.83977H12.35C12.05 7.83977 11.78 7.63977 11.68 7.35977L11.4 6.48977C11.3 6.16977 11.01 6.00977 10.73 6.00977C10.45 6.00977 10.17 6.16977 10.06 6.48977L9.77997 7.35977C9.68997 7.64977 9.41997 7.83977 9.10997 7.83977H8.19997C7.51997 7.83977 7.23997 8.69977 7.78997 9.09977L8.52997 9.63977C8.77997 9.81977 8.87997 10.1298 8.77997 10.4198L8.49997 11.2898C8.33997 11.7798 8.72997 12.2098 9.16997 12.2098C9.30997 12.2098 9.44997 12.1698 9.57997 12.0698L10.32 11.5298C10.44 11.4398 10.59 11.3998 10.73 11.3998C10.87 11.3998 11.02 11.4398 11.14 11.5298L11.88 12.0698C12.01 12.1698 12.15 12.2098 12.29 12.2098C12.73 12.2098 13.12 11.7798 12.96 11.2898L12.68 10.4198C12.59 10.1298 12.68 9.81977 12.93 9.63977L13.67 9.09977C14.22 8.69977 13.94 7.82977 13.26 7.82977V7.83977Z" fill="black"/>
<path d="M22.09 7.83977H21.18C20.88 7.83977 20.61 7.63977 20.51 7.35977L20.23 6.48977C20.13 6.16977 19.84 6.00977 19.56 6.00977C19.28 6.00977 19 6.16977 18.89 6.48977L18.61 7.35977C18.52 7.64977 18.25 7.83977 17.94 7.83977H17.03C16.35 7.83977 16.07 8.70977 16.62 9.10977L17.36 9.64977C17.61 9.82977 17.71 10.1398 17.61 10.4298L17.33 11.2998C17.17 11.7898 17.56 12.2198 18 12.2198C18.14 12.2198 18.28 12.1798 18.41 12.0798L19.15 11.5398C19.27 11.4498 19.42 11.4098 19.56 11.4098C19.7 11.4098 19.85 11.4498 19.97 11.5398L20.71 12.0798C20.84 12.1798 20.98 12.2198 21.12 12.2198C21.56 12.2198 21.95 11.7898 21.79 11.2998L21.51 10.4298C21.42 10.1398 21.51 9.82977 21.76 9.64977L22.5 9.10977C23.05 8.70977 22.77 7.83977 22.09 7.83977Z" fill="black"/>
<path d="M30.9201 7.83977H30.0101C29.7101 7.83977 29.4401 7.63977 29.3401 7.35977L29.0601 6.48977C28.9601 6.16977 28.6701 6.00977 28.3901 6.00977C28.1101 6.00977 27.8301 6.16977 27.7201 6.48977L27.4401 7.35977C27.3501 7.64977 27.0801 7.83977 26.7701 7.83977H25.8601C25.1801 7.83977 24.9001 8.70977 25.4501 9.10977L26.1901 9.64977C26.4401 9.82977 26.5401 10.1398 26.4401 10.4298L26.1601 11.2998C26.0001 11.7898 26.3901 12.2198 26.8301 12.2198C26.9701 12.2198 27.1101 12.1798 27.2401 12.0798L27.9801 11.5398C28.1001 11.4498 28.2501 11.4098 28.3901 11.4098C28.5301 11.4098 28.6801 11.4498 28.8001 11.5398L29.5401 12.0798C29.6701 12.1798 29.8101 12.2198 29.9501 12.2198C30.3901 12.2198 30.7801 11.7898 30.6201 11.2998L30.3401 10.4298C30.2501 10.1398 30.3401 9.82977 30.5901 9.64977L31.3301 9.10977C31.8801 8.70977 31.6001 7.83977 30.9201 7.83977Z" fill="black"/>
<path d="M7.62012 29.3301C7.62012 32.2401 9.92012 34.6101 12.7601 34.6101H26.4701C29.3101 34.6101 31.6101 32.2501 31.6101 29.3301V23.3501H7.62012V29.3301ZM22.0501 27.8401H25.4801C26.0401 27.8401 26.5101 28.3201 26.5101 28.9001C26.5101 29.4801 26.0401 29.9501 25.4801 29.9501H22.0501C21.4901 29.9501 21.0201 29.4701 21.0201 28.9001C21.0201 28.3301 21.4901 27.8401 22.0501 27.8401Z" fill="black"/>
<path d="M26.4801 15.6099H12.7601C9.92012 15.6099 7.62012 17.9699 7.62012 20.8899V21.2399H31.6201V20.8899C31.6201 17.9799 29.3201 15.6099 26.4801 15.6099Z" fill="#FFC600"/>
</g>
<defs>
<clipPath id="clip0_382_3172">
<rect width="24.12" height="28.61" fill="white" transform="translate(7.5 6)"/>
</clipPath>
</defs>
</svg>
