<svg width="24" height="24" viewBox="0 0 24 24" fill="none" xmlns="http://www.w3.org/2000/svg">
<path d="M5.75 13.75H7.75C8.85579 13.75 9.75 14.6442 9.75 15.75V17.75C9.75 18.8558 8.85579 19.75 7.75 19.75H5.75C4.64421 19.75 3.75 18.8558 3.75 17.75V15.75C3.75 14.6442 4.64421 13.75 5.75 13.75ZM15.75 13.75H17.75C18.8558 13.75 19.75 14.6442 19.75 15.75V17.75C19.75 18.8558 18.8558 19.75 17.75 19.75H15.75C14.6442 19.75 13.75 18.8558 13.75 17.75V15.75C13.75 14.6442 14.6442 13.75 15.75 13.75ZM5.75 3.75H7.75C8.85579 3.75 9.75 4.64421 9.75 5.75V7.75C9.75 8.85579 8.85579 9.75 7.75 9.75H5.75C4.64421 9.75 3.75 8.85579 3.75 7.75V5.75C3.75 4.64421 4.64421 3.75 5.75 3.75ZM15.75 3.75H17.75C18.8558 3.75 19.75 4.64421 19.75 5.75V7.75C19.75 8.85579 18.8558 9.75 17.75 9.75H15.75C14.6442 9.75 13.75 8.85579 13.75 7.75V5.75C13.75 4.64421 14.6442 3.75 15.75 3.75Z" stroke="black" stroke-width="1.5"/>
</svg>
