<svg width="37" height="37" viewBox="0 0 37 37" fill="none" xmlns="http://www.w3.org/2000/svg">
<g clip-path="url(#clip0_786_29281)">
<path d="M17.2716 5.4819C26.7885 5.10604 32.9248 15.692 27.8746 23.7961C23.3548 31.0491 12.8743 31.3766 7.91734 24.4076C2.3748 16.616 7.78797 5.8564 17.2716 5.4819ZM22.9367 12.9861C22.7215 13.0222 22.443 13.2061 22.2851 13.3552C20.5746 14.973 18.9391 16.9156 17.2832 18.6179C17.1824 18.7214 16.5886 19.3369 16.5308 19.3519C16.4879 19.3635 16.4511 19.3601 16.4143 19.3335C15.4481 18.5484 14.5058 17.7266 13.5266 16.9585C13.276 16.7617 12.8852 16.3988 12.6108 16.2912C11.5009 15.8554 10.5851 17.2288 11.4587 18.1079C12.971 19.1408 14.3818 20.7028 15.8859 21.6983C16.8201 22.3165 17.2627 21.7616 17.896 21.1209C19.9598 19.0339 21.9208 16.8373 23.9832 14.7476C24.6151 13.9414 23.9397 12.8193 22.9367 12.9868V12.9861Z" fill="#FFC600"/>
<path d="M22.9384 12.9859C23.9414 12.8191 24.6169 13.9412 23.985 14.7467C21.9225 16.8364 19.9615 19.033 17.8977 21.12C17.2645 21.7607 16.8219 22.3156 15.8877 21.6974C14.3836 20.7019 12.9734 19.1399 11.4605 18.107C10.5876 17.2279 11.5027 15.8545 12.6126 16.2903C12.887 16.3979 13.2778 16.7608 13.5284 16.9576C14.5075 17.7257 15.4499 18.5482 16.4161 19.3326C16.4529 19.3591 16.4896 19.3619 16.5325 19.351C16.5897 19.336 17.1841 18.7211 17.2849 18.617C18.9409 16.914 20.5764 14.9721 22.2868 13.3543C22.4448 13.2051 22.724 13.0213 22.9384 12.9852V12.9859Z" fill="black"/>
</g>
<path d="M26.6948 32.9502C30.5608 32.9502 33.6948 29.8162 33.6948 25.9502C33.6948 22.0842 30.5608 18.9502 26.6948 18.9502C22.8288 18.9502 19.6948 22.0842 19.6948 25.9502C19.6948 29.8162 22.8288 32.9502 26.6948 32.9502Z" fill="black"/>
<path d="M28.1417 23.6953H26.1584C25.7695 23.6953 24.9917 23.9286 24.9917 24.862C24.9917 25.7953 25.7695 26.0286 26.1584 26.0286H27.325C27.7139 26.0286 28.4917 26.262 28.4917 27.1953C28.4917 28.1286 27.7139 28.362 27.325 28.362H25.225" stroke="#FFC600" stroke-width="1.3" stroke-linecap="round"/>
<path d="M26.7456 23.695V22.5283" stroke="#FFC600" stroke-width="1.3" stroke-linecap="round"/>
<path d="M26.7456 29.528V28.3613" stroke="#FFC600" stroke-width="1.3" stroke-linecap="round"/>
<defs>
<clipPath id="clip0_786_29281">
<rect width="24" height="24" fill="white" transform="translate(5.69092 5.45654)"/>
</clipPath>
</defs>
</svg>
