<svg width="37" height="37" viewBox="0 0 37 37" fill="none" xmlns="http://www.w3.org/2000/svg">
<path d="M10.6546 25.7445H9.72029C8.97287 25.7445 8.41231 25.1952 8.41231 24.4628V8.44149C8.41231 6.97668 6.81055 5.24609 5.31571 5.24609H25.0289C26.0566 5.24609 27.2847 6.61048 27.2847 7.61753V24.6459C27.2847 25.2867 26.7241 25.8361 26.0701 25.8361H14.8588" fill="#FFC600"/>
<path d="M21.0646 32.2447H15.7392C14.9918 32.2447 14.3378 31.9701 13.8707 31.5123L12.0956 29.7729C11.8153 29.4982 11.6284 29.0404 11.6284 28.6742V25.8362H20.8777C21.158 25.8362 21.4383 25.5615 21.4383 25.2869V21.0756C21.4383 20.2516 22.0923 19.5192 22.9331 19.4277C23.8674 19.3361 24.7083 20.0685 24.7083 20.984V27.5756C24.7083 28.1249 24.6148 28.5827 24.3346 29.0405L23.4937 30.7799C23.0266 31.6039 22.0923 32.2447 21.0646 32.2447Z" fill="black"/>
<path d="M11.5425 22.7461H14.6664" stroke="black" stroke-width="1.20015" stroke-miterlimit="10" stroke-linecap="round"/>
<path d="M16.9487 22.7461H20.0726" stroke="black" stroke-width="1.20015" stroke-miterlimit="10" stroke-linecap="round"/>
<path d="M22.355 22.7461H25.4789" stroke="black" stroke-width="1.20015" stroke-miterlimit="10" stroke-linecap="round"/>
<path d="M28.967 6.01063C28.967 6.01063 29.3653 5.69062 29.6032 5.59404C29.8412 5.49746 30.0962 5.44775 30.3538 5.44775C30.6113 5.44775 30.8663 5.49746 31.1043 5.59404C31.3422 5.69062 31.5584 5.83218 31.7405 6.01063C31.9226 6.18908 32.0671 6.40094 32.1657 6.6341C32.2642 6.86726 32.3149 7.11716 32.3149 7.36953C32.3149 7.6219 32.2642 7.8718 32.1657 8.10496C32.0671 8.33812 31.7405 8.72843 31.7405 8.72843C31.7405 8.72843 25.4406 16.6914 22.3799 17.901C21.6246 18.1995 20.6048 18.4667 19.8099 18.6526C19.2174 18.7911 18.698 18.2821 18.8394 17.7016C19.029 16.9226 19.3017 15.9233 19.6063 15.1832C20.8408 12.184 28.967 6.01063 28.967 6.01063Z" fill="black"/>
</svg>
