<svg width="37" height="37" viewBox="0 0 37 37" fill="none" xmlns="http://www.w3.org/2000/svg">
<path d="M13.9069 12.1756L23.5363 12.1579C23.7885 12.1464 24.013 12.2896 24.1052 12.5213L26.7491 20.3636C26.8153 20.7119 26.8233 20.9135 26.5103 21.1266H11.1154C10.788 20.9126 10.8086 20.6509 10.8765 20.2973L13.6215 12.3568L13.9069 12.1756Z" fill="#FFC600"/>
<path d="M6.00992 22.3027L14.8344 22.2842C15.337 22.3275 15.422 22.4168 15.6027 22.8483C16.6152 25.262 17.1992 28.0426 18.1822 30.4899C18.2591 30.7914 18.2466 31.1654 17.9166 31.2927L3.44649 31.3572C3.06009 31.3678 2.71574 31.0036 2.84275 30.6234L5.52514 22.6838C5.6119 22.4707 5.78274 22.3434 6.00992 22.3027Z" fill="#FFC600"/>
<path d="M22.6148 22.3027L31.4392 22.2842C31.7558 22.2851 32.026 22.4239 32.1252 22.7316L34.8175 30.8515L34.466 31.3033L20.0522 31.3564C19.461 31.3351 19.351 31.0168 19.4494 30.4899C20.4332 28.0435 21.0155 25.2602 22.0289 22.8483C22.1666 22.5194 22.2158 22.3691 22.6157 22.3027H22.6148Z" fill="#FFC600"/>
<path d="M30.2631 11.6932C30.3277 11.6932 30.4063 11.7241 30.4616 11.7582C30.8695 12.0113 30.9886 13.3297 31.6876 13.7277C32.0682 13.9444 33.4919 14.2765 33.2218 14.8401C33.0918 15.1103 31.7421 15.4478 31.3972 15.8078C31.075 16.1454 30.6912 17.5985 30.3199 17.6372C29.891 17.6821 29.5898 16.5595 29.4108 16.2243C29.2426 15.91 29.1461 15.773 28.8301 15.5849C28.5623 15.4254 27.4375 15.0422 27.3519 14.8533C27.0927 14.2796 28.0517 14.114 28.4494 13.9189C29.1531 13.5728 29.178 13.5426 29.5275 12.8467C29.6746 12.5533 29.8996 11.6916 30.2639 11.6924L30.2631 11.6932Z" fill="black"/>
<path d="M6.58517 11.6929C6.94945 11.6921 7.17441 12.5537 7.32153 12.8471C7.63678 13.475 7.643 13.5369 8.28284 13.8613C8.51403 13.9782 9.45822 14.3041 9.51582 14.4891C9.54851 14.5952 9.54306 14.7516 9.49636 14.8538C9.41151 15.0419 8.20422 15.4685 7.93179 15.6148C7.34721 15.9291 7.25069 16.9231 6.89652 17.4248C6.32907 18.2284 5.89006 16.5701 5.69313 16.2055C5.61606 16.0622 5.51176 15.8579 5.39344 15.7503C5.00347 15.3972 4.10832 15.2594 3.73858 14.9622C3.05126 14.4102 4.66331 13.9828 5.00425 13.8032C5.93287 13.3116 5.75773 12.5359 6.26369 11.8686C6.33374 11.7765 6.46763 11.6936 6.58594 11.6929H6.58517Z" fill="black"/>
<path d="M15.5284 8.07297C15.4163 7.95684 15.4249 7.68588 15.5393 7.56279C15.7456 7.34293 16.6882 7.0743 17.0112 6.88308C17.6892 6.47974 17.7235 5.52055 18.143 4.99567C18.2146 4.90664 18.2847 4.85554 18.4014 4.84393C18.4684 4.83774 18.5275 4.85709 18.5867 4.88496C18.8895 5.02973 19.2117 6.41471 19.7068 6.78553C20.1084 7.08668 20.8837 7.22913 21.2441 7.51634C21.9587 8.08535 20.1598 8.55837 19.8212 8.75113C19.197 9.1057 19.1261 9.99676 18.7657 10.541C18.1952 11.4034 17.7235 9.65923 17.525 9.30234C17.3662 9.0159 17.2385 8.875 16.9497 8.71475C16.6609 8.5545 15.6802 8.23167 15.5268 8.07297H15.5284Z" fill="black"/>
</svg>
