<svg width="30" height="29" viewBox="0 0 30 29" fill="none" xmlns="http://www.w3.org/2000/svg">
<path d="M23.1406 10.271V20.5418C23.1406 23.0431 21.1106 25.0731 18.6094 25.0731H11.3594C8.85813 25.0731 6.82812 23.0431 6.82812 20.5418V10.271C6.82812 9.15933 7.29937 8.15641 8.03646 7.43141V7.85433C8.03646 8.68808 8.26604 9.4735 8.65271 10.1381C9.43813 11.4793 10.9002 12.3856 12.5677 12.3856H17.401C19.0685 12.3856 20.5306 11.4793 21.316 10.1381C21.7027 9.4735 21.9323 8.68808 21.9323 7.85433V7.43141C22.6694 8.15641 23.1406 9.15933 23.1406 10.271ZM20.1077 6.45266C20.011 5.03891 18.839 3.92725 17.401 3.92725H12.5677C11.1298 3.92725 9.95771 5.03891 9.86104 6.45266C9.84896 6.51308 9.84896 6.58558 9.84896 6.646V7.85433C9.84896 8.0235 9.86104 8.19266 9.89729 8.34975C10.1269 9.6185 11.2385 10.5731 12.5677 10.5731H17.401C18.7302 10.5731 19.8419 9.6185 20.0715 8.34975C20.1077 8.19266 20.1198 8.0235 20.1198 7.85433V6.646C20.1198 6.646 20.1198 6.51308 20.1077 6.45266Z" fill="#FFC600"/>
<path d="M17.4036 3.92725C18.8416 3.92725 20.0136 5.03891 20.1103 6.45266C20.1224 6.51308 20.1224 6.646 20.1224 6.646V7.85433C20.1224 8.0235 20.1103 8.19266 20.0741 8.34975C19.8445 9.6185 18.7328 10.5731 17.4036 10.5731H12.5703C11.2411 10.5731 10.1295 9.6185 9.8999 8.34975C9.86365 8.19266 9.85156 8.0235 9.85156 7.85433V6.646C9.85156 6.58558 9.85156 6.51308 9.86365 6.45266C9.96031 5.03891 11.1324 3.92725 12.5703 3.92725H17.4036Z" fill="black"/>
</svg>
