<svg width="25" height="25" viewBox="0 0 25 25" fill="none" xmlns="http://www.w3.org/2000/svg">
<path d="M21.3828 9.89844V10.1484H3.88281V9.89844C3.88281 7.82844 5.56281 6.14844 7.63281 6.14844H17.6328C19.7028 6.14844 21.3828 7.82844 21.3828 9.89844ZM3.88281 11.6484H21.3828V15.8984C21.3828 17.9684 19.7028 19.6484 17.6328 19.6484H7.63281C5.56281 19.6484 3.88281 17.9684 3.88281 15.8984V11.6484ZM13.6528 15.5884C13.6528 15.9984 13.9928 16.3384 14.4028 16.3384H16.9028C17.3128 16.3384 17.6528 15.9984 17.6528 15.5884C17.6528 15.1784 17.3128 14.8384 16.9028 14.8384H14.4028C13.9928 14.8384 13.6528 15.1684 13.6528 15.5884Z" fill="black"/>
<path d="M21.3828 10.1484V9.89844C21.3828 7.82844 19.7028 6.14844 17.6328 6.14844H7.63281C5.56281 6.14844 3.88281 7.82844 3.88281 9.89844V10.1484H21.3828Z" fill="#FFC600"/>
</svg>
