<svg width="25" height="24" viewBox="0 0 25 24" fill="none" xmlns="http://www.w3.org/2000/svg">
<path d="M12.6318 5.76026L3.76185 2.45117C3.58185 2.3799 3.37185 2.43081 3.23185 2.57336L2.19185 3.64245C1.98185 3.85626 2.00185 4.21263 2.23185 4.40608L9.07185 9.90426L12.6318 5.77045V5.76026Z" fill="#FFC600"/>
<path d="M18.3071 1.01587C18.9542 0.952511 19.5447 1.14065 19.9575 1.56274C20.3681 1.98264 20.5495 2.57794 20.4946 3.22485V3.22778L20.3539 4.7854C20.2804 5.64763 19.7942 6.51118 19.0883 7.13892L7.92816 17.1008L8.42816 19.8948H8.42523C8.45628 20.0488 8.42828 20.1872 8.3891 20.2854C8.34473 20.3964 8.27681 20.492 8.20258 20.5676L7.67328 21.1067L7.66449 21.1155L7.6557 21.1233C7.54021 21.2302 7.38597 21.3171 7.20941 21.3411C7.03003 21.3654 6.77309 21.3233 6.60394 21.094L6.59808 21.0872L6.59418 21.0803L4.39691 17.8772L3.90765 17.3782L0.766052 15.1467L0.767029 15.1458C0.537926 14.9848 0.479674 14.7313 0.50531 14.5354C0.529863 14.3479 0.626245 14.189 0.739685 14.0735L1.26898 13.5334L1.33344 13.4749C1.46803 13.3638 1.64402 13.289 1.83246 13.2903L1.92816 13.2971L1.93793 13.2991L1.94769 13.3L4.67816 13.8069L14.4565 2.44946C15.0721 1.73163 15.9243 1.2341 16.7797 1.15845L18.3071 1.01587ZM17.0043 3.62915C16.8601 3.48659 16.6259 3.46656 16.4506 3.59497L16.4028 3.64478C16.2136 3.83736 16.2243 4.12649 16.3832 4.28833L17.2778 5.19946C17.4323 5.35245 17.7082 5.36361 17.894 5.17993C18.074 5.00157 18.0709 4.70576 17.9096 4.54126V4.54028L17.0043 3.62915Z" fill="#FFC600" stroke="#FFC600"/>
<path d="M13.7761 13.8636C13.7761 12.7843 14.4461 11.8272 15.4361 11.481L16.9761 10.9414L16.1061 8.52832L12.0461 12.153L13.7861 14.393V13.8738L13.7761 13.8636Z" fill="#FFC600"/>
<path d="M23.806 11.9518C23.746 11.8703 23.666 11.8092 23.576 11.7787L18.826 10.1088C18.726 10.0783 18.626 10.0783 18.526 10.1088L13.776 11.7787C13.586 11.8499 13.456 12.0332 13.456 12.2368V15.9939C13.456 18.2238 14.666 19.8732 15.896 20.983C17.126 22.0928 18.376 22.6528 18.486 22.7038C18.546 22.7343 18.606 22.7445 18.666 22.7445C18.726 22.7445 18.786 22.7343 18.846 22.7038C18.946 22.663 20.206 22.0928 21.436 20.983C22.666 19.8732 23.876 18.2136 23.876 15.9939V12.2368C23.876 12.135 23.846 12.0332 23.786 11.9518H23.806Z" fill="black"/>
<path d="M16.0461 15.5537L17.9661 17.7835L21.5961 13.6191" stroke="white" stroke-width="1.3" stroke-linecap="round" stroke-linejoin="round"/>
</svg>
