<svg width="41" height="40" viewBox="0 0 41 40" fill="none" xmlns="http://www.w3.org/2000/svg">
<rect y="11" width="40" height="18" rx="9" fill="#FFC600"/>
<path d="M11.8261 22.8819C12.1606 23.1262 12.6561 23.0744 12.9328 22.7662C13.2095 22.458 13.1627 22.0101 12.8282 21.7658L12.3271 22.3239L11.8261 22.8819ZM12.3271 22.3239L12.8282 21.7658L10.0084 19.7062L9.50739 20.2643L9.00635 20.8224L11.8261 22.8819L12.3271 22.3239Z" fill="black"/>
<path d="M12.8282 18.5084C13.1627 18.2641 13.2095 17.8162 12.9328 17.508C12.6561 17.1997 12.1606 17.1479 11.8261 17.3922L12.3271 17.9503L12.8282 18.5084ZM12.3271 17.9503L11.8261 17.3922L9.00635 19.4518L9.50739 20.0098L10.0084 20.5679L12.8282 18.5084L12.3271 17.9503Z" fill="black"/>
<path d="M7.18855 17.3922C6.85405 17.1479 6.35857 17.1997 6.08185 17.508C5.80513 17.8162 5.85196 18.2641 6.18645 18.5084L6.6875 17.9503L7.18855 17.3922ZM6.6875 17.9503L6.18645 18.5084L9.00621 20.5679L9.50725 20.0098L10.0083 19.4518L7.18855 17.3922L6.6875 17.9503Z" fill="black"/>
<path d="M6.18645 21.7658C5.85196 22.0101 5.80513 22.458 6.08185 22.7662C6.35857 23.0744 6.85405 23.1262 7.18855 22.8819L6.6875 22.3239L6.18645 21.7658ZM6.6875 22.3239L7.18855 22.8819L10.0083 20.8224L9.50725 20.2643L9.00621 19.7062L6.18645 21.7658L6.6875 22.3239Z" fill="black"/>
<path d="M9.50732 16.8644L9.50732 23.4097" stroke="black" stroke-width="1.5" stroke-linecap="round"/>
<path d="M32.6865 22.8819C33.0209 23.1262 33.5164 23.0744 33.7932 22.7662C34.0699 22.458 34.023 22.0101 33.6885 21.7658L33.1875 22.3239L32.6865 22.8819ZM33.1875 22.3239L33.6885 21.7658L30.8688 19.7062L30.3677 20.2643L29.8667 20.8224L32.6865 22.8819L33.1875 22.3239Z" fill="black"/>
<path d="M33.6885 18.5084C34.023 18.2641 34.0699 17.8162 33.7932 17.508C33.5164 17.1997 33.0209 17.1479 32.6865 17.3922L33.1875 17.9503L33.6885 18.5084ZM33.1875 17.9503L32.6865 17.3922L29.8667 19.4518L30.3677 20.0098L30.8688 20.5679L33.6885 18.5084L33.1875 17.9503Z" fill="black"/>
<path d="M28.0489 17.3922C27.7144 17.1479 27.2189 17.1997 26.9422 17.508C26.6655 17.8162 26.7123 18.2641 27.0468 18.5084L27.5479 17.9503L28.0489 17.3922ZM27.5479 17.9503L27.0468 18.5084L29.8666 20.5679L30.3676 20.0098L30.8687 19.4518L28.0489 17.3922L27.5479 17.9503Z" fill="black"/>
<path d="M27.0468 21.7658C26.7123 22.0101 26.6655 22.458 26.9422 22.7662C27.2189 23.0744 27.7144 23.1262 28.0489 22.8819L27.5479 22.3239L27.0468 21.7658ZM27.5479 22.3239L28.0489 22.8819L30.8687 20.8224L30.3676 20.2643L29.8666 19.7062L27.0468 21.7658L27.5479 22.3239Z" fill="black"/>
<path d="M30.3677 16.8644L30.3677 23.4097" stroke="black" stroke-width="1.5" stroke-linecap="round"/>
<path d="M22.2563 22.8819C22.5908 23.1262 23.0863 23.0744 23.363 22.7662C23.6397 22.458 23.5929 22.0101 23.2584 21.7658L22.7573 22.3239L22.2563 22.8819ZM22.7573 22.3239L23.2584 21.7658L20.4386 19.7062L19.9376 20.2643L19.4365 20.8224L22.2563 22.8819L22.7573 22.3239Z" fill="black"/>
<path d="M23.2584 18.5084C23.5929 18.2641 23.6397 17.8162 23.363 17.508C23.0863 17.1997 22.5908 17.1479 22.2563 17.3922L22.7573 17.9503L23.2584 18.5084ZM22.7573 17.9503L22.2563 17.3922L19.4365 19.4518L19.9376 20.0098L20.4386 20.5679L23.2584 18.5084L22.7573 17.9503Z" fill="black"/>
<path d="M17.6187 17.3922C17.2842 17.1479 16.7887 17.1997 16.512 17.508C16.2353 17.8162 16.2821 18.2641 16.6166 18.5084L17.1177 17.9503L17.6187 17.3922ZM17.1177 17.9503L16.6166 18.5084L19.4364 20.5679L19.9374 20.0098L20.4385 19.4518L17.6187 17.3922L17.1177 17.9503Z" fill="black"/>
<path d="M16.6166 21.7658C16.2821 22.0101 16.2353 22.458 16.512 22.7662C16.7887 23.0744 17.2842 23.1262 17.6187 22.8819L17.1177 22.3239L16.6166 21.7658ZM17.1177 22.3239L17.6187 22.8819L20.4385 20.8224L19.9374 20.2643L19.4364 19.7062L16.6166 21.7658L17.1177 22.3239Z" fill="black"/>
<path d="M19.9373 16.8644L19.9373 23.4097" stroke="black" stroke-width="1.5" stroke-linecap="round"/>
</svg>
