<svg width="44" height="41" viewBox="0 0 44 41" fill="none" xmlns="http://www.w3.org/2000/svg">
<path d="M20.3539 12.8984V24.8384C20.3539 25.5184 19.9739 26.1384 19.3739 26.4484C18.7739 26.7584 18.0539 26.7084 17.4939 26.3184L13.7239 23.6484C13.2539 23.3184 12.6139 23.3184 12.1339 23.6484L8.36391 26.3184C8.05391 26.5384 7.68391 26.6484 7.31391 26.6484C7.03391 26.6484 6.74391 26.5784 6.48391 26.4484C5.88391 26.1384 5.50391 25.5184 5.50391 24.8384V12.8984C5.50391 10.8284 7.18391 9.14844 9.25391 9.14844H16.6039C18.6739 9.14844 20.3539 10.8284 20.3539 12.8984Z" fill="black"/>
<path d="M22.5133 31.8984L22.5133 19.9584C22.5133 19.2784 22.8933 18.6584 23.4933 18.3484C24.0933 18.0384 24.8133 18.0884 25.3733 18.4784L29.1433 21.1484C29.6133 21.4784 30.2533 21.4784 30.7333 21.1484L34.5033 18.4784C34.8133 18.2584 35.1833 18.1484 35.5533 18.1484C35.8333 18.1484 36.1233 18.2184 36.3833 18.3484C36.9833 18.6584 37.3633 19.2784 37.3633 19.9584L37.3633 31.8984C37.3633 33.9684 35.6833 35.6484 33.6133 35.6484L26.2633 35.6484C24.1933 35.6484 22.5133 33.9684 22.5133 31.8984Z" fill="#FFC600"/>
</svg>
