<svg width="33" height="23" viewBox="0 0 33 23" fill="none" xmlns="http://www.w3.org/2000/svg">
<path d="M24.9844 6.89844C29.4027 6.89844 32.9844 10.4802 32.9844 14.8984C32.9844 19.3167 29.4027 22.8984 24.9844 22.8984C20.5661 22.8984 16.9844 19.3167 16.9844 14.8984C16.9844 10.4802 20.5661 6.89844 24.9844 6.89844Z" fill="#FFC600"/>
<path d="M23.4209 11.2002C23.6944 10.8893 24.1685 10.8585 24.4795 11.1318C24.7903 11.4053 24.8211 11.8794 24.5479 12.1904L22.8281 14.1455H28.7344C29.1486 14.1455 29.4844 14.4813 29.4844 14.8955C29.4842 15.3095 29.1485 15.6455 28.7344 15.6455H22.8291L24.5479 17.5996C24.8213 17.9106 24.7905 18.3847 24.4795 18.6582C24.1685 18.9316 23.6945 18.9017 23.4209 18.5908L20.7314 15.5312C20.5689 15.3521 20.4845 15.1244 20.4844 14.8955C20.4844 14.6664 20.5687 14.438 20.7314 14.2588H20.7305L23.4209 11.2002Z" fill="black"/>
<path d="M8.98438 16.0391C4.5661 16.0391 0.984376 12.4573 0.984374 8.03906C0.984374 3.62079 4.5661 0.0390645 8.98437 0.0390632C13.4027 0.0390628 16.9844 3.62078 16.9844 8.03906C16.9844 12.4573 13.4027 16.0391 8.98438 16.0391ZM9.48926 11.8057C9.80025 12.0789 10.2744 12.0481 10.5479 11.7373L13.2383 8.67871L13.2373 8.67871C13.4 8.49952 13.4843 8.27101 13.4844 8.04199C13.4843 7.81318 13.3998 7.58534 13.2373 7.40625L10.5479 4.34668C10.2743 4.03581 9.80023 4.00586 9.48926 4.2793C9.17836 4.55285 9.14746 5.0269 9.4209 5.33789L11.1396 7.29199L5.23437 7.29199C4.8203 7.29199 4.48459 7.62797 4.48437 8.04199C4.48446 8.45613 4.82021 8.79199 5.23437 8.79199L11.1406 8.79199L9.4209 10.7471C9.14772 11.0581 9.17847 11.5322 9.48926 11.8057Z" fill="black"/>
</svg>
