<svg width="24" height="24" viewBox="0 0 24 24" fill="none" xmlns="http://www.w3.org/2000/svg">
<path d="M15.0001 17C15.0001 18.6568 13.6569 20 12.0001 20C10.3432 20 9.00009 18.6568 9.00009 17M4.80635 14.7906C5.58473 13.623 6.00009 12.2512 6.00009 10.848V9.99999C6.00009 6.68629 8.68638 4 12.0001 4C15.3138 4 18.0001 6.68629 18.0001 9.99999V10.848C18.0001 12.2512 18.4154 13.623 19.1938 14.7906C19.5915 15.3871 19.2485 16.1868 18.5461 16.3305C14.1821 17.2232 9.81809 17.2232 5.4541 16.3305C4.75169 16.1868 4.40865 15.3871 4.80635 14.7906Z" stroke="black" stroke-width="1.5" stroke-linecap="round" stroke-linejoin="round"/>
<circle cx="19" cy="5" r="4" fill="#E33232"/>
</svg>
