<svg width="31" height="31" viewBox="0 0 31 31" fill="none" xmlns="http://www.w3.org/2000/svg">
<path d="M1.86914 15.8183C1.87887 8.22842 8.01947 2.06512 15.632 2.06836C23.1959 2.0716 29.4111 8.21221 29.3689 15.9058C29.33 23.3789 23.2478 29.6103 15.5185 29.5649C8.03568 29.5195 1.88211 23.4405 1.86914 15.8183ZM27.9132 15.8183C27.9651 8.9968 22.3659 3.5792 15.8525 3.52084C12.1791 3.48842 9.07316 4.795 6.57672 7.47948C4.4434 9.77492 3.35728 12.5178 3.3281 15.6626C3.29244 19.3068 4.61847 22.3868 7.28026 24.8606C9.65026 27.0652 12.4871 28.1222 15.7358 28.1189C22.3627 28.1124 27.9716 22.6138 27.9132 15.8215V15.8183Z" fill="currentColor"/>
<path d="M14.6564 24.2477C14.2933 24.2088 13.9658 24.1667 13.6351 24.1343C13.2882 24.1018 12.9348 24.1051 12.5912 24.0467C11.9622 23.9397 11.3462 23.7744 10.8988 23.2718C10.6913 23.0384 10.5357 22.7726 10.4903 22.4548C10.4416 22.1079 10.2763 21.8032 10.1531 21.4822C10.085 21.3104 10.0396 21.1223 10.0202 20.9375C9.99422 20.6976 9.93262 20.542 9.67325 20.435C9.31013 20.2826 8.99564 20.0265 8.74924 19.712C8.59038 19.511 8.39909 19.4396 8.15917 19.4234C7.79929 19.404 7.51723 19.2062 7.25786 18.976C6.84611 18.6064 6.57053 18.1395 6.34358 17.6403C6.26576 17.4717 6.20092 17.2933 6.10366 17.1377C6.03882 17.034 5.92858 16.9497 5.82483 16.8816C5.39039 16.593 5.10508 16.1781 4.85219 15.7404C4.83274 15.7079 4.82301 15.6496 4.83598 15.6172C5.00457 15.2022 5.22504 14.8228 5.55898 14.5181C5.56871 14.5084 5.58816 14.5051 5.64328 14.4792C5.6141 14.6575 5.5914 14.8099 5.56222 14.9882C5.75999 14.8747 5.92858 14.7775 6.09717 14.6802C6.45381 14.4727 6.79748 14.5473 7.14763 14.7126C7.28704 14.7807 7.44266 14.8261 7.59504 14.852C7.77012 14.8812 7.78957 14.9331 7.76687 15.1082C7.70203 15.5815 7.40375 15.9446 7.20923 16.3596C7.13466 16.5185 7.05685 16.6838 7.02767 16.8524C7.00497 16.9756 7.03415 17.1248 7.09251 17.2382C7.23841 17.5333 7.38754 17.8283 7.57559 18.0974C7.76363 18.373 8.0846 18.4411 8.38936 18.5383C8.81733 18.6745 9.08318 18.3957 9.37497 18.1947C9.87426 17.851 10.3476 17.4652 10.8534 17.1312C11.1225 16.9497 11.4305 16.8135 11.7612 16.7681C12.0206 16.7325 12.2864 16.6838 12.5425 16.7098C13.2299 16.7778 13.8718 16.9918 14.3711 17.5008C14.6823 17.8186 14.8769 18.2011 15.0098 18.6291C15.1687 19.1479 14.9352 19.5337 14.6467 19.9065C14.3938 20.234 14.0923 20.516 13.7389 20.7268C13.4471 20.8986 13.1358 21.0413 12.8311 21.1904C12.549 21.3266 12.2475 21.3557 11.9363 21.3428C11.8876 21.3428 11.8293 21.3784 11.7904 21.4141C11.6315 21.5632 11.5245 21.748 11.4888 21.962C11.4175 22.3965 11.6574 22.6558 12.0043 22.8471C12.3837 23.0546 12.7987 23.1422 13.2266 23.1519C13.5768 23.1584 13.6254 23.1033 13.7065 22.7693C13.8653 22.1144 14.1377 21.5081 14.5397 20.9667C14.8315 20.5744 15.1784 20.234 15.6226 20.0135C16.1413 19.7606 16.6698 19.7055 17.2209 19.9389C17.6651 20.127 17.9731 20.4544 18.1579 20.8759C18.3557 21.3298 18.4205 21.8129 18.2163 22.296C18.1417 22.4743 18.0639 22.6494 17.9666 22.8763C18.2163 22.7401 18.4432 22.6364 18.6442 22.5002C19.1014 22.1825 19.5164 21.8096 19.8049 21.3266C19.9541 21.0769 20.0675 20.8078 20.1778 20.5387C20.408 19.9843 20.3561 19.3975 20.3172 18.8204C20.2977 18.5545 20.1875 18.2952 20.1227 18.0326C20.1 17.945 20.0935 17.8542 20.074 17.7343C20.6382 17.7278 21.0694 18.0196 21.52 18.3179C21.6562 16.6871 21.1763 15.28 20.2037 13.9993C20.7062 13.8891 21.1537 14.0545 21.5978 14.2295C21.614 14.2198 21.6302 14.2068 21.6465 14.1971C21.5978 14.0512 21.5719 13.8956 21.4973 13.7627C21.2704 13.3509 21.0142 12.9521 20.7873 12.5371C20.6868 12.3523 20.6317 12.1416 20.5701 11.9406C20.5539 11.892 20.5863 11.8271 20.5895 11.7979C20.9267 12.0508 21.2444 12.3069 21.5784 12.5371C21.935 12.7835 22.2463 13.0786 22.4732 13.4417C22.6515 13.727 22.8136 14.0318 22.8428 14.3852C22.872 14.7159 22.9141 15.0465 22.9433 15.3772C22.9466 15.4194 22.9271 15.494 22.9012 15.5004C22.859 15.5134 22.7974 15.4972 22.752 15.4745C22.5348 15.3643 22.3208 15.2476 22.1036 15.1373C22.0744 15.1211 22.0323 15.1276 21.9804 15.1211C22.0679 15.3935 22.1555 15.6528 22.23 15.9154C22.2819 16.0938 22.3143 16.2786 22.3468 16.4634C22.3857 16.6838 22.4213 16.9043 22.4505 17.128C22.4764 17.3128 22.5089 17.5008 22.5056 17.6889C22.4927 18.1558 22.4732 18.6259 22.4278 19.0895C22.4051 19.3359 22.3241 19.5791 22.2657 19.8222C22.2592 19.8514 22.2236 19.8968 22.2009 19.8968C22.1684 19.8968 22.1198 19.8773 22.0971 19.8514C21.9966 19.7347 21.9026 19.6115 21.8021 19.4948C21.7632 19.4494 21.7113 19.4137 21.6432 19.3586C21.6432 19.4818 21.627 19.5823 21.6432 19.6731C21.7664 20.234 21.7308 20.8046 21.6854 21.3655C21.6465 21.8453 21.5427 22.3187 21.4552 22.792C21.4227 22.9638 21.3579 23.1292 21.3093 23.2978C21.2995 23.327 21.3093 23.3594 21.3093 23.4437C21.426 23.3464 21.52 23.2848 21.6011 23.207C22.1295 22.685 22.5607 22.0917 22.8136 21.3849C22.9466 21.0153 23.0438 20.6295 23.1346 20.2469C23.3194 19.4656 23.2935 18.6648 23.3129 17.8704C23.3291 17.2577 23.3291 16.6384 23.3875 16.0289C23.4394 15.4778 23.5917 14.9396 23.9062 14.4694C23.9905 14.3462 24.1008 14.2393 24.198 14.1225L24.2531 14.1452C24.2531 14.2328 24.2564 14.3171 24.2531 14.4046C24.2337 14.7418 24.1883 15.0822 24.2013 15.4162C24.2142 15.7242 24.2791 16.0322 24.3407 16.3337C24.4088 16.6676 24.4995 16.9951 24.5903 17.3258C24.6552 17.5657 24.7362 17.8024 24.7978 18.0423C24.8335 18.1752 24.84 18.3179 24.8853 18.4702C24.9372 18.3535 25.0053 18.2433 25.0377 18.1201C25.1285 17.7699 25.2096 17.4166 25.2906 17.0599C25.3879 16.6352 25.4527 16.204 25.4624 15.7663C25.4722 15.0919 25.5046 14.4208 25.5078 13.7465C25.5078 13.4611 25.4787 13.1758 25.4398 12.8938C25.3814 12.4788 25.3068 12.0703 25.229 11.6585C25.1771 11.3797 25.1155 11.1041 25.0604 10.8253C25.0507 10.7734 25.0669 10.7151 25.0701 10.6599C25.0864 10.6567 25.1026 10.6502 25.1188 10.647C25.2063 10.8123 25.3036 10.9777 25.3846 11.1463C25.5176 11.4316 25.657 11.7169 25.7607 12.0119C25.8969 12.3977 26.0136 12.79 26.1109 13.1856C26.2276 13.6589 26.3184 14.1355 26.4124 14.6121C26.4318 14.7126 26.4254 14.8164 26.4318 14.9201C26.4481 15.2151 26.4837 15.5102 26.4805 15.8052C26.4805 16.1716 26.4578 16.5379 26.4254 16.9011C26.3962 17.1896 26.3346 17.4717 26.2859 17.757C26.26 17.9061 26.2438 18.0553 26.2049 18.1979C26.1271 18.4962 26.0428 18.7945 25.9553 19.0895C25.8839 19.3229 25.8191 19.5596 25.7218 19.7833C25.537 20.2145 25.3522 20.6457 25.1318 21.0607C24.7881 21.7091 24.3698 22.3089 23.89 22.8698C23.3907 23.4534 22.8363 23.9786 22.23 24.4455C21.6238 24.9124 20.9721 25.3047 20.2815 25.6289C19.8925 25.8104 19.4904 25.9725 19.0852 26.1152C18.7123 26.2449 18.3298 26.3389 17.9472 26.4427C17.9018 26.4556 17.8467 26.4297 17.7948 26.4232C17.8078 26.3811 17.811 26.3324 17.8337 26.2935C18.0671 25.9109 18.3135 25.5349 18.5308 25.1458C18.6929 24.854 18.8323 24.546 18.9587 24.238C19.056 24.0078 19.1208 23.7679 19.1857 23.5053C18.6702 23.7809 18.1158 23.9495 17.5516 24.037C16.981 24.1278 16.3974 24.2445 15.7814 24.037C15.843 23.9657 15.8787 23.917 15.9241 23.8781C16.3456 23.5345 16.686 23.1162 16.9616 22.6494C17.2047 22.2344 17.2793 21.774 17.2047 21.2974C17.1366 20.8694 16.6147 20.6295 16.271 20.7462C15.7166 20.9343 15.4151 21.3687 15.1654 21.8453C14.945 22.2668 14.7764 22.7142 14.7472 23.1973C14.731 23.502 14.7083 23.8068 14.6856 24.1116C14.6823 24.1634 14.6694 24.2121 14.6629 24.2445L14.6564 24.2477ZM12.9543 18.2563C12.7209 18.0099 12.468 17.864 12.1502 17.8283C11.612 17.7667 11.1484 17.958 10.7269 18.2595C10.5908 18.3568 10.4384 18.4735 10.3768 18.6161C10.299 18.7977 10.286 19.0149 10.2893 19.2159C10.2925 19.4494 10.3346 19.686 10.3833 19.9162C10.4125 20.0459 10.4676 20.1918 10.5616 20.2761C10.7788 20.4804 11.0641 20.5485 11.3592 20.5549C11.5569 20.5614 11.6996 20.4642 11.7742 20.2826C11.9103 19.9357 12.0497 19.592 12.1697 19.2386C12.3123 18.8236 12.5101 18.4605 12.9543 18.2563ZM6.81369 15.1989C6.71642 15.1568 6.65806 15.1146 6.59646 15.1082C6.2301 15.0725 5.99667 15.3189 5.75027 15.5296C5.72109 15.5556 5.72433 15.6658 5.75351 15.7015C5.98694 15.9706 6.22686 16.2332 6.47326 16.4925C6.55756 16.5801 6.66779 16.5477 6.72939 16.4439C6.82341 16.2786 6.78451 16.1197 6.61267 15.9835C6.37276 15.7922 6.32412 15.5069 6.66455 15.3189C6.70021 15.2994 6.73263 15.267 6.81693 15.1989H6.81369ZM13.3725 18.8172C13.392 18.9241 13.4017 18.9728 13.4114 19.0246C13.4374 19.1608 13.4763 19.2937 13.486 19.4299C13.4957 19.592 13.3985 19.6796 13.2364 19.6698C13.1326 19.6634 13.0321 19.6277 12.8927 19.5985C12.857 19.793 12.8181 19.9908 12.7792 20.2048C12.8278 20.1918 12.8635 20.1853 12.8959 20.1691C13.0289 20.1043 13.1585 20.033 13.2882 19.9649C13.6222 19.7963 13.8848 19.5628 13.9918 19.1868C14.0242 19.0733 13.9983 18.9728 13.8815 18.9371C13.7324 18.8885 13.5735 18.8658 13.3758 18.8172H13.3725ZM9.78024 19.8255C9.73485 19.3943 9.69594 19.0084 9.65055 18.5805C9.51763 18.6648 9.39443 18.7264 9.29392 18.8139C9.20638 18.8885 9.10912 18.9857 9.08966 19.0895C9.07345 19.1673 9.17396 19.2678 9.21935 19.3586C9.22583 19.3716 9.22908 19.391 9.2388 19.404C9.37173 19.5855 9.53708 19.725 9.777 19.8255H9.78024ZM10.5292 20.837C10.5616 21.0769 10.6459 21.3136 10.8048 21.5308C10.8631 21.6119 10.9182 21.6313 10.9863 21.5665C11.1128 21.44 11.2295 21.3071 11.3429 21.1677C11.3559 21.1515 11.317 21.0607 11.2878 21.0542C11.0414 20.9764 10.795 20.9116 10.5324 20.8402L10.5292 20.837Z" fill="currentColor"/>
<path d="M5.70832 14.3204C5.79586 13.8665 5.97742 13.5163 6.19788 13.1921C6.63233 12.5502 7.12838 11.9601 7.72493 11.4608C8.08805 11.1561 8.49007 10.8999 8.85968 10.6017C8.96018 10.5206 9.00233 10.3617 9.06069 10.2321C9.18389 9.97269 9.27143 9.69063 9.42381 9.45395C9.66372 9.08111 10.0009 8.77959 10.3835 8.55912C10.98 8.2187 11.5863 7.89773 12.2023 7.59621C12.6011 7.40168 13.0258 7.25903 13.4408 7.08719C13.4765 7.07422 13.5186 7.03856 13.5283 7.00614C13.5608 6.86673 13.5802 6.72083 13.6062 6.58142C13.6483 6.35123 13.6775 6.11455 13.7423 5.89085C13.8072 5.6639 13.9985 5.59581 14.2189 5.69308C14.6177 5.86815 14.9484 6.13725 15.2207 6.47443C15.2661 6.52955 15.3439 6.59439 15.4055 6.59115C15.5028 6.58466 15.6098 6.56521 15.6422 6.42256C15.6941 6.18264 15.7622 5.94596 15.8465 5.71577C16.0086 5.26511 16.1221 4.78528 16.4917 4.4481C16.7348 4.22763 17.0266 4.179 17.3573 4.27302C17.9506 4.44485 18.3786 4.86633 18.8292 5.23918C19.2929 5.62499 19.7176 6.05944 20.152 6.48091C20.285 6.6106 20.4017 6.75974 20.5054 6.91212C20.6254 7.08719 20.8037 7.15852 20.982 7.2493C21.5332 7.52812 22.1006 7.78749 22.629 8.10847C23.3001 8.51697 23.8545 9.0649 24.3182 9.70035C24.3538 9.75223 24.3733 9.81383 24.4284 9.9273C24.3409 9.90137 24.2825 9.89488 24.2436 9.86894C23.9518 9.65821 23.6179 9.55446 23.2807 9.45071C23.2515 9.44098 23.2158 9.45071 23.151 9.45071C23.6633 10.0602 23.9194 10.767 24.0004 11.5127C24.0783 12.2552 24.101 13.0138 23.7313 13.7238C23.5368 13.0657 23.339 12.4173 22.9046 11.8661C22.4766 11.3149 21.9158 10.9356 21.3224 10.5141C21.3127 10.6244 21.2997 10.6827 21.3062 10.7378C21.3776 11.2177 20.7097 11.5386 20.3012 11.396C19.844 11.2339 19.4647 11.0037 19.1567 10.6406C19.027 10.4882 18.9265 10.3131 18.826 10.138C18.7806 10.0602 18.8098 9.99539 18.92 9.98566C19.04 9.97593 19.2021 9.99539 19.2637 9.93055C19.3253 9.8657 19.2831 9.70684 19.2831 9.58688C19.2831 9.12325 19.1729 8.67584 19.0659 8.22518C18.9427 7.70968 18.7449 7.22336 18.4921 6.75974C18.2554 6.32853 17.9701 5.92651 17.6102 5.58933C17.5259 5.50827 17.4286 5.4337 17.3216 5.38832C17.2536 5.36238 17.1466 5.3721 17.0817 5.41101C16.7964 5.57636 16.6992 5.87139 16.5986 6.15994C16.5079 6.41607 16.4333 6.67544 16.3587 6.93806C16.3263 7.05153 16.3004 7.165 16.2809 7.28172C16.2128 7.65457 15.9826 7.85234 15.6228 7.92691C15.5093 7.9496 15.3958 7.98526 15.2823 8.01444C15.2726 7.99499 15.2596 7.97554 15.2499 7.95609C15.2953 7.87179 15.3472 7.78749 15.3861 7.69996C15.425 7.61242 15.4477 7.51516 15.4834 7.39844C15.0295 7.45031 14.6307 7.54758 14.2546 7.70968C13.551 8.01444 12.841 8.30948 12.1504 8.64342C11.622 8.89955 11.0838 9.15568 10.6623 9.59012C10.3802 9.88191 10.176 10.2223 10.0431 10.6017C9.9847 10.767 9.94255 10.9388 9.87122 11.0977C9.8388 11.169 9.75126 11.2339 9.67669 11.2663C9.14174 11.5095 8.65866 11.8337 8.18531 12.1806C7.41044 12.748 6.7069 13.3964 6.03902 14.0837C5.98714 14.1388 5.94175 14.2004 5.8834 14.2458C5.84449 14.2782 5.78937 14.288 5.70508 14.3236L5.70832 14.3204Z" fill="currentColor"/>
<path d="M18.1765 20.1139C18.1765 19.9356 18.1797 19.7508 18.1765 19.5692C18.1668 19.2774 18.0371 19.0213 17.8912 18.7782C17.6091 18.308 17.2946 17.8574 17.0158 17.3873C16.7662 16.969 16.5652 16.5216 16.5684 16.0191C16.5684 15.6754 16.6657 15.3447 16.7921 15.0238C16.9348 14.6509 17.0677 14.2748 17.2071 13.902C17.3108 13.6232 17.4146 13.3443 17.5119 13.059C17.554 12.9391 17.567 12.8094 17.6026 12.6862C17.7064 12.3198 17.6967 11.9405 17.7064 11.5644C17.7194 10.9873 17.5248 10.4783 17.2492 9.98873C17.2395 9.97252 17.2298 9.95307 17.2039 9.89795C17.2784 9.90768 17.3335 9.90119 17.366 9.92389C17.982 10.3356 18.5169 10.8284 18.8184 11.519C18.9708 11.8692 19.0681 12.2485 19.0681 12.6376C19.0681 13.0007 19.0811 13.3605 19.0681 13.7237C19.0519 14.1419 19.12 14.5537 19.2464 14.9427C19.3307 15.2053 19.5058 15.4388 19.6387 15.6884C19.6679 15.7403 19.6841 15.8019 19.7068 15.857C19.6549 15.8732 19.5998 15.9089 19.5479 15.9024C19.1718 15.8732 18.8606 15.6852 18.5753 15.455C18.4521 15.3545 18.3386 15.2442 18.2122 15.1275C18.1473 15.3577 18.2284 15.549 18.3159 15.737C18.5007 16.1293 18.6952 16.5151 18.8703 16.9107C19.0843 17.3905 19.2107 17.8963 19.1491 18.4248C19.0843 19.0019 18.8314 19.5044 18.4391 19.9324C18.3743 20.0004 18.3516 20.1463 18.183 20.1009L18.1765 20.1139Z" fill="currentColor"/>
<path d="M15.3077 18.5095C15.3012 18.4608 15.2882 18.409 15.2882 18.3603C15.2882 18.2469 15.285 18.1334 15.2882 18.0199C15.3044 17.5595 15.2396 17.1089 15.1391 16.6614C15.071 16.3567 15.0062 16.0422 14.8894 15.7537C14.7889 15.504 14.6366 15.2641 14.4647 15.0534C14.2799 14.8264 13.9687 14.8264 13.7125 14.9982C13.3559 15.2382 13.0025 15.491 12.6297 15.7018C12.2893 15.8931 11.9002 15.9838 11.5111 15.8995C11.0637 15.8023 10.746 15.5105 10.5774 15.0793C10.4607 14.781 10.4412 14.4665 10.4769 14.1488C10.4996 13.9348 10.344 13.7143 10.1267 13.6722C9.93546 13.6333 9.73769 13.6138 9.54316 13.5879C9.5075 13.5814 9.47508 13.5717 9.42969 13.5231C9.53344 13.4712 9.63394 13.4096 9.74417 13.3674C9.93222 13.2961 10.1235 13.2151 10.3213 13.1826C10.6909 13.121 10.9794 13.3383 11.1513 13.656C11.2712 13.8797 11.3652 14.1229 11.5014 14.3401C11.5987 14.4957 11.7413 14.6157 11.9586 14.6189C12.1369 14.6221 12.3055 14.6773 12.4967 14.6319C12.7626 14.5703 12.928 14.4114 13.0706 14.2104C13.2424 13.9608 13.4013 13.7046 13.6639 13.5295C14.0043 13.3026 14.3545 13.228 14.7403 13.4031C14.7533 13.4096 14.7727 13.4031 14.7954 13.4031C14.9446 13.134 14.8927 12.839 14.8959 12.5504C14.8992 12.223 14.8797 11.889 14.9154 11.5648C14.9608 11.1239 15.2137 10.7802 15.5897 10.5662C15.8718 10.4041 16.2025 10.4139 16.517 10.4982C16.7018 10.5468 16.8769 10.6246 17.0552 10.6927C17.1071 10.7154 17.1622 10.751 17.1978 10.7932C17.2465 10.8515 17.2659 10.9261 17.1589 10.9521C16.624 11.072 16.2965 11.4449 16.0566 11.8988C15.9107 12.1743 15.8102 12.4759 15.7227 12.7741C15.6254 13.1016 15.5606 13.4355 15.486 13.7695C15.4438 13.9608 15.593 14.0872 15.6676 14.2331C15.8459 14.5703 15.9691 14.9237 16.0566 15.2933C16.1733 15.7861 16.1474 16.2821 16.1085 16.7749C16.0858 17.0667 15.982 17.3618 15.8686 17.6373C15.7583 17.9129 15.5897 18.1658 15.4471 18.4252C15.4276 18.4608 15.3985 18.4933 15.3725 18.5289C15.3531 18.5224 15.3369 18.516 15.3174 18.5127L15.3077 18.5095Z" fill="currentColor"/>
<path d="M14.393 8.1667C14.4481 8.15697 14.5032 8.13428 14.5583 8.13752C14.9668 8.16346 15.3786 8.17967 15.7839 8.23479C15.9525 8.25748 16.1243 8.33529 16.2702 8.42607C16.6074 8.63681 16.5004 9.12637 16.2053 9.35332C15.9622 9.54137 15.6801 9.67754 15.4143 9.82667C15.0706 10.018 14.7237 10.2028 14.3768 10.3908C14.38 10.4038 14.3833 10.42 14.3865 10.433C14.4805 10.4524 14.581 10.4589 14.6686 10.4946C14.8631 10.5691 14.8988 10.6858 14.7885 10.8577C14.6653 11.049 14.5389 11.2402 14.3962 11.4186C14.0364 11.8627 13.7705 12.3588 13.5662 12.8905C13.4106 13.299 13.1415 13.4903 12.7071 13.513C12.3375 13.5324 11.9808 13.487 11.6339 13.3574C11.595 13.3444 11.5691 13.3022 11.5367 13.2731C11.5723 13.2439 11.6015 13.1953 11.6437 13.1888C12.2272 13.0623 12.6714 12.7219 13.0313 12.268C13.1675 12.0962 13.2615 11.8887 13.3685 11.6909C13.3912 11.6488 13.3782 11.5872 13.3879 11.4931C13.2582 11.6034 13.161 11.6974 13.0572 11.7784C12.8724 11.9211 12.6714 12.0378 12.4218 11.9989C12.3861 11.9924 12.344 11.9924 12.3115 11.9827C12.0781 11.8984 11.9484 11.9308 11.796 12.1286C11.6891 12.268 11.5918 12.4139 11.4978 12.563C11.4329 12.67 11.3746 12.6635 11.3 12.5792C11.0763 12.3231 11.0374 12.0832 11.206 11.7946C11.3065 11.6228 11.4491 11.4737 11.5885 11.2889C11.5205 11.2402 11.4426 11.1916 11.3713 11.1397C10.9142 10.8123 10.9142 10.2352 11.394 9.95312C11.4589 9.91421 11.5205 9.87531 11.6112 9.8137C11.6112 9.88827 11.6274 9.94339 11.6112 9.97905C11.5399 10.1023 11.5172 10.2384 11.6469 10.3033C11.7442 10.3551 11.929 10.3778 12.0003 10.3227C12.3278 10.0536 12.6779 10.1379 13.041 10.1801C13.2874 10.206 13.5403 10.1509 13.79 10.1282C13.8126 10.1282 13.8483 10.0796 13.8516 10.0471C13.9261 9.60297 14.2082 9.29496 14.5259 9.00966C14.6329 8.91239 14.7302 8.80864 14.8339 8.70814C14.9344 8.61411 14.9085 8.53306 14.808 8.47146C14.714 8.4131 14.607 8.37096 14.5097 8.31584C14.4611 8.28666 14.4189 8.24775 14.3735 8.21209C14.38 8.19588 14.3833 8.18291 14.3897 8.1667H14.393ZM13.4041 10.809H12.7752C12.7752 10.9549 12.7946 11.0879 12.7719 11.2175C12.7427 11.3797 12.6033 11.4056 12.451 11.4186C12.4996 11.4607 12.5612 11.5029 12.6033 11.4866C12.9405 11.3634 13.1902 11.13 13.4074 10.809H13.4041Z" fill="currentColor"/>
<path d="M18.5697 9.94345C18.2552 9.63545 17.9829 9.34365 17.6846 9.08104C17.4706 8.88976 17.2339 8.72441 16.9973 8.56878C16.7573 8.41316 16.6763 8.27375 16.7476 8.00789C16.8125 7.76798 16.887 7.52806 16.9778 7.29787C17.0264 7.17142 17.114 7.05795 17.2015 6.95096C17.2923 6.84073 17.4252 6.81479 17.529 6.91854C17.704 7.09361 17.9018 7.26545 18.0153 7.47943C18.2066 7.8393 18.3784 8.21539 18.4822 8.60769C18.5827 8.98054 18.5891 9.38256 18.6313 9.77162C18.6378 9.82025 18.5989 9.87536 18.5729 9.94669L18.5697 9.94345Z" fill="currentColor"/>
<path d="M10.6073 17.0276C10.5684 16.9725 10.5263 16.9304 10.5003 16.8785C10.4063 16.6937 10.1923 16.5835 9.98808 16.6418C9.67359 16.7294 9.38504 16.8817 9.1354 17.0925C8.91169 17.2805 8.7042 17.488 8.48697 17.6858C8.45779 17.7117 8.41889 17.7344 8.34756 17.7831C8.34756 17.6728 8.33459 17.595 8.34756 17.5237C8.50318 16.872 8.81767 16.3144 9.34614 15.8961C9.59902 15.6984 9.88109 15.5427 10.2248 15.5622C10.6689 15.5881 11.0288 15.9253 10.9802 16.3954C10.9607 16.5964 10.8083 16.8688 10.6008 17.0309L10.6073 17.0276Z" fill="currentColor"/>
<path d="M7.85156 16.7748C7.86129 16.5867 7.83859 16.3857 7.89047 16.2074C8.04933 15.6465 8.32167 15.1407 8.75288 14.7355C8.93768 14.5604 9.1549 14.4404 9.4013 14.3788C9.59907 14.3269 9.91032 14.4793 10.0368 14.703C10.0854 14.7841 10.1275 14.8684 10.1664 14.9559C10.2118 15.0564 10.1729 15.1051 10.0627 15.1115C9.88762 15.1213 9.70282 15.1115 9.54071 15.1634C9.14517 15.2866 8.8469 15.5622 8.59401 15.8767C8.38976 16.1296 8.21468 16.4116 8.0234 16.6775C7.99422 16.7196 7.95531 16.7553 7.91965 16.7942C7.89695 16.791 7.8775 16.7877 7.8548 16.7845L7.85156 16.7748Z" fill="currentColor"/>
</svg>
