<svg width="24" height="24" viewBox="0 0 24 24" fill="none" xmlns="http://www.w3.org/2000/svg">
<path d="M12 21C16.9706 21 21 16.9706 21 12C21 7.02943 16.9706 3 12 3C7.02943 3 3 7.02943 3 12C3 16.9706 7.02943 21 12 21Z" stroke="#6E7375" stroke-width="1.5" stroke-linecap="round" stroke-linejoin="round"/>
<path d="M7.4999 13.35C8.24549 13.35 8.8499 12.7456 8.8499 12C8.8499 11.2544 8.24549 10.65 7.4999 10.65C6.75432 10.65 6.1499 11.2544 6.1499 12C6.1499 12.7456 6.75432 13.35 7.4999 13.35Z" fill="#6E7375"/>
<path d="M11.9999 13.35C12.7455 13.35 13.3499 12.7456 13.3499 12C13.3499 11.2544 12.7455 10.65 11.9999 10.65C11.2543 10.65 10.6499 11.2544 10.6499 12C10.6499 12.7456 11.2543 13.35 11.9999 13.35Z" fill="#6E7375"/>
<path d="M16.4999 13.35C17.2455 13.35 17.8499 12.7456 17.8499 12C17.8499 11.2544 17.2455 10.65 16.4999 10.65C15.7543 10.65 15.1499 11.2544 15.1499 12C15.1499 12.7456 15.7543 13.35 16.4999 13.35Z" fill="#6E7375"/>
</svg>
