<svg width="26" height="26" viewBox="0 0 26 26" fill="none" xmlns="http://www.w3.org/2000/svg">
<path fill-rule="evenodd" clip-rule="evenodd" d="M2.3418 23.335C2.3418 22.8987 2.69546 22.5451 3.13174 22.5451H8.18803C8.6243 22.5451 8.97797 22.8987 8.97797 23.335C8.97797 23.7713 8.6243 24.125 8.18803 24.125H3.13174C2.69546 24.125 2.3418 23.7713 2.3418 23.335Z" fill="black"/>
<path fill-rule="evenodd" clip-rule="evenodd" d="M3.13203 17.6812C3.5683 17.6812 3.92197 18.0349 3.92197 18.4712V23.335C3.92197 23.7712 3.56801 24.125 3.13174 24.125C2.69546 24.125 2.3418 23.7713 2.3418 23.335L2.34209 18.4712C2.34209 18.0349 2.69576 17.6812 3.13203 17.6812Z" fill="black"/>
<path fill-rule="evenodd" clip-rule="evenodd" d="M23.7735 17.6812C24.2098 17.6812 24.5634 18.0349 24.5634 18.4712V23.335C24.5634 23.7713 24.2098 24.1249 23.7735 24.1249C23.3372 24.1249 22.9836 23.7713 22.9836 23.335V18.4712C22.9836 18.0349 23.3372 17.6812 23.7735 17.6812Z" fill="black"/>
<path fill-rule="evenodd" clip-rule="evenodd" d="M18.0301 23.335C18.0301 22.8987 18.3838 22.5451 18.8201 22.5451H23.7741C24.2104 22.5451 24.5634 22.8987 24.5634 23.335C24.5634 23.7713 24.2098 24.1249 23.7735 24.1249L18.8201 24.1249C18.3838 24.1249 18.0301 23.7713 18.0301 23.335Z" fill="black"/>
<path fill-rule="evenodd" clip-rule="evenodd" d="M18.0301 2.67861C18.0301 2.24234 18.3838 1.88867 18.82 1.88867H23.7741C24.2104 1.88867 24.564 2.24234 24.564 2.67861C24.564 3.11488 24.2104 3.46855 23.7741 3.46855H18.82C18.3838 3.46855 18.0301 3.11488 18.0301 2.67861Z" fill="black"/>
<path fill-rule="evenodd" clip-rule="evenodd" d="M23.7741 1.88867C24.2104 1.88867 24.564 2.24234 24.564 2.67861L24.5634 7.64374C24.5634 8.08001 24.2098 8.43368 23.7735 8.43368C23.3372 8.43368 22.9836 8.08001 22.9836 7.64374V2.67861C22.9836 2.24234 23.3378 1.88867 23.7741 1.88867Z" fill="black"/>
<path fill-rule="evenodd" clip-rule="evenodd" d="M3.13231 1.88879C3.56858 1.88879 3.92225 2.24245 3.92225 2.67873V7.64385C3.92225 8.08012 3.56858 8.43379 3.13231 8.43379C2.69604 8.43379 2.34237 8.08012 2.34237 7.64385V2.67873C2.34237 2.24245 2.69604 1.88879 3.13231 1.88879Z" fill="black"/>
<path fill-rule="evenodd" clip-rule="evenodd" d="M2.34237 2.67873C2.34237 2.24245 2.69604 1.88879 3.13231 1.88879H8.1886C8.62488 1.88879 8.97854 2.24245 8.97854 2.67873C8.97854 3.115 8.62488 3.46866 8.1886 3.46866H3.13231C2.69604 3.46866 2.34237 3.115 2.34237 2.67873Z" fill="black"/>
<path fill-rule="evenodd" clip-rule="evenodd" d="M22.7492 12.8349C22.7492 13.2712 22.3955 13.6248 21.9593 13.6248L4.94518 13.6248C4.50891 13.6248 4.15524 13.2712 4.15524 12.8349C4.15524 12.3986 4.50891 12.045 4.94518 12.045L21.9593 12.045C22.3955 12.045 22.7492 12.3986 22.7492 12.8349Z" fill="black"/>
<path d="M2.3418 23.335C2.3418 22.8987 2.69546 22.5451 3.13174 22.5451H8.18803C8.6243 22.5451 8.97797 22.8987 8.97797 23.335C8.97797 23.7713 8.6243 24.1249 8.18803 24.1249H3.13174M2.3418 23.335C2.3418 23.7713 2.69546 24.1249 3.13174 24.1249M2.3418 23.335L2.34209 18.4712C2.34209 18.0349 2.69576 17.6812 3.13203 17.6812C3.5683 17.6812 3.92197 18.0349 3.92197 18.4712V23.335C3.92197 23.7712 3.56801 24.1249 3.13174 24.1249M24.5634 23.335V18.4712C24.5634 18.0349 24.2098 17.6812 23.7735 17.6812C23.3372 17.6812 22.9836 18.0349 22.9836 18.4712V23.335C22.9836 23.7713 23.3372 24.1249 23.7735 24.1249M24.5634 23.335C24.5634 23.7713 24.2098 24.1249 23.7735 24.1249M24.5634 23.335C24.5634 22.8987 24.2104 22.5451 23.7741 22.5451H18.8201C18.3838 22.5451 18.0301 22.8987 18.0301 23.335C18.0301 23.7713 18.3838 24.1249 18.8201 24.1249L23.7735 24.1249M23.7741 1.88867H18.82C18.3838 1.88867 18.0301 2.24234 18.0301 2.67861C18.0301 3.11488 18.3838 3.46855 18.82 3.46855H23.7741C24.2104 3.46855 24.564 3.11488 24.564 2.67861M23.7741 1.88867C24.2104 1.88867 24.564 2.24234 24.564 2.67861M23.7741 1.88867C23.3378 1.88867 22.9836 2.24234 22.9836 2.67861V7.64374C22.9836 8.08001 23.3372 8.43368 23.7735 8.43368C24.2098 8.43368 24.5634 8.08001 24.5634 7.64374L24.564 2.67861M3.13231 1.88879C3.56858 1.88879 3.92225 2.24245 3.92225 2.67873V7.64385C3.92225 8.08012 3.56858 8.43379 3.13231 8.43379C2.69604 8.43379 2.34237 8.08012 2.34237 7.64385V2.67873M3.13231 1.88879C2.69604 1.88879 2.34237 2.24245 2.34237 2.67873M3.13231 1.88879H8.1886C8.62488 1.88879 8.97854 2.24245 8.97854 2.67873C8.97854 3.115 8.62488 3.46866 8.1886 3.46866H3.13231C2.69604 3.46866 2.34237 3.115 2.34237 2.67873M21.9593 13.6248C22.3955 13.6248 22.7492 13.2712 22.7492 12.8349C22.7492 12.3986 22.3955 12.045 21.9593 12.045L4.94518 12.045C4.50891 12.045 4.15524 12.3986 4.15524 12.8349C4.15524 13.2712 4.50891 13.6248 4.94518 13.6248L21.9593 13.6248Z" stroke="black" stroke-width="0.104167" stroke-linecap="round"/>
</svg>
