<svg width="36" height="36" viewBox="0 0 36 36" fill="none" xmlns="http://www.w3.org/2000/svg">
<circle cx="18" cy="18" r="17" fill="#FFDA44" stroke="white" stroke-width="2"/>
<circle cx="18" cy="18" r="16" fill="#F0F0F0"/>
<path d="M2 17.9913C2 9.15958 9.15957 2 17.9912 2C26.8229 2 33.9825 9.15958 33.9825 17.9913" fill="#D80027"/>
<path d="M11.7338 10.3435C11.7338 8.01361 13.3712 6.0673 15.5578 5.58975C15.2217 5.51641 14.8731 5.47662 14.5148 5.47662C11.8269 5.47662 9.64795 7.65555 9.64795 10.3435C9.64795 13.0315 11.8269 15.2104 14.5148 15.2104C14.873 15.2104 15.2216 15.1706 15.5578 15.0972C13.3712 14.6197 11.7338 12.6734 11.7338 10.3435Z" fill="#F0F0F0"/>
<path d="M17.9914 5.82434L18.3366 6.88657H19.4535L18.5498 7.54315L18.895 8.60538L17.9914 7.94893L17.0877 8.60538L17.4329 7.54315L16.5293 6.88657H17.6462L17.9914 5.82434Z" fill="#F0F0F0"/>
<path d="M15.2815 7.91016L15.6267 8.97245H16.7436L15.84 9.62896L16.1852 10.6912L15.2815 10.0347L14.3778 10.6912L14.723 9.62896L13.8193 8.97245H14.9363L15.2815 7.91016Z" fill="#F0F0F0"/>
<path d="M20.7008 7.91016L21.0461 8.97245H22.163L21.2593 9.62896L21.6045 10.6912L20.7008 10.0347L19.7972 10.6912L20.1424 9.62896L19.2388 8.97245H20.3557L20.7008 7.91016Z" fill="#F0F0F0"/>
<path d="M19.6576 11.0388L20.0028 12.1011H21.1197L20.2161 12.7576L20.5613 13.8199L19.6576 13.1634L18.754 13.8199L19.0992 12.7576L18.1956 12.1011H19.3124L19.6576 11.0388Z" fill="#F0F0F0"/>
<path d="M16.3247 11.0388L16.6698 12.1011H17.7868L16.8831 12.7576L17.2284 13.8199L16.3247 13.1634L15.421 13.8199L15.7662 12.7576L14.8625 12.1011H15.9795L16.3247 11.0388Z" fill="#F0F0F0"/>
</svg>
