<svg width="28" height="32" viewBox="0 0 28 32" fill="none" xmlns="http://www.w3.org/2000/svg">
<path d="M15.9442 30.3609L18.4896 28.5694C21.7438 26.2768 24.2626 23.0785 25.7373 19.3665C27.2119 15.6546 27.5784 11.5902 26.7918 7.67178C26.7529 7.47869 26.6704 7.29718 26.5507 7.14131C26.431 6.98544 26.2772 6.8594 26.1013 6.77293L14.196 0.915039L2.29213 6.77293C2.11594 6.85921 1.96187 6.98518 1.84187 7.14106C1.72187 7.29694 1.63916 7.47854 1.60015 7.67178C0.813646 11.5904 1.18035 15.6548 2.65531 19.3668C4.13027 23.0787 6.6494 26.277 9.90387 28.5694L12.4492 30.3609C12.9615 30.7216 13.5715 30.915 14.1967 30.915C14.8219 30.915 15.4319 30.7216 15.9442 30.3609V30.3609Z" stroke="black" stroke-width="1.3" stroke-linecap="round" stroke-linejoin="round"/>
<path d="M10.6921 13.915H18.1921V19.915H10.6921V13.915Z" fill="#FFC600"/>
<path d="M14.3727 8.66602C12.5598 8.66602 11.087 10.1388 11.087 11.9517V13.5232H10.9441C10.3975 13.5232 9.94409 13.9766 9.94409 14.5232V19.666C9.94409 20.2126 10.3975 20.666 10.9441 20.666H17.8012C18.3478 20.666 18.8012 20.2126 18.8012 19.666V14.5232C18.8012 13.9766 18.3478 13.5232 17.8012 13.5232H17.6583V11.9517C17.6583 10.1388 16.1855 8.66602 14.3726 8.66602H14.3727ZM14.3727 9.52321C15.7255 9.52321 16.8012 10.5989 16.8012 11.9518V13.5232H11.9441V11.9518C11.9441 10.5989 13.0198 9.52321 14.3726 9.52321H14.3727ZM10.9441 14.3804H17.8012C17.8878 14.3804 17.9441 14.4367 17.9441 14.5233V19.6661C17.9441 19.7527 17.8878 19.809 17.8012 19.809H10.9441C10.8575 19.809 10.8012 19.7527 10.8012 19.6661V14.5233C10.8012 14.4367 10.8575 14.3804 10.9441 14.3804Z" fill="black" stroke="black" stroke-width="0.3"/>
</svg>
