<svg width="20" height="20" viewBox="0 0 20 20" fill="none" xmlns="http://www.w3.org/2000/svg">
<circle cx="10" cy="10" r="10" fill="#193CEB"/>
<g clip-path="url(#clip0_28476_1924)">
<path d="M16.7723 9.91762V9.90797C17.2956 9.76261 17.5572 9.46877 17.5572 9.02618C17.5572 8.42537 17.0727 8.125 16.1037 8.125H14.2529V11.875H16.1522C16.6592 11.875 17.0445 11.783 17.3078 11.5988C17.571 11.4148 17.7026 11.1547 17.7026 10.8188C17.7026 10.3312 17.3925 10.0308 16.7724 9.91762H16.7723ZM15.5611 9.06498H15.847C15.9955 9.06498 16.1004 9.0852 16.1619 9.12556C16.2232 9.16601 16.254 9.23295 16.254 9.32663C16.254 9.5107 16.1231 9.60281 15.8615 9.60281H15.5611V9.06506V9.06498ZM15.9487 10.9351H15.561V10.3925H15.9438C16.2215 10.3925 16.3604 10.4797 16.3604 10.6541C16.3604 10.8415 16.2231 10.9351 15.9487 10.9351Z" fill="white"/>
<path d="M12.9106 8.125V9.99513L11.8484 8.23552C11.807 8.16693 11.7327 8.125 11.6525 8.125H10.5171V11.875H11.6411V9.96129L12.8088 11.875H14.0394V8.47241C14.0394 8.28051 13.8839 8.125 13.692 8.125H12.9105H12.9106Z" fill="white"/>
<path d="M4.42345 9.36047L4.72382 10.533H4.13753L4.42337 9.36047H4.42345ZM3.81298 11.875L3.93894 11.3663H4.93702L5.06785 11.875H6.41475L5.28122 8.36561C5.23491 8.22215 5.10136 8.125 4.95064 8.125H3.69189L2.5 11.875H3.81298Z" fill="white"/>
<path d="M9.1484 8.125C8.40908 8.125 7.80975 8.71971 7.80975 9.45333V10.2504C7.80975 10.4286 7.66407 10.5732 7.48446 10.5732H6.62793V11.875H7.78581C8.52513 11.875 9.12455 11.2803 9.12455 10.5467V10.545L9.12265 9.75031C9.12223 9.57178 9.26792 9.42675 9.44794 9.42675H10.3064V8.125H9.14857H9.1484Z" fill="white"/>
</g>
<defs>
<clipPath id="clip0_28476_1924">
<rect width="15.2026" height="3.75" fill="white" transform="translate(2.5 8.125)"/>
</clipPath>
</defs>
</svg>
